<?xml version="1.0" encoding="UTF-8" standalone="no"?>
<!-- Created with Inkscape (http://www.inkscape.org/) -->

<svg
   width="268"
   height="108"
   viewBox="0 0 268 108"
   version="1.1"
   id="svg5"
   inkscape:version="1.3 (0e150ed6c4, 2023-07-21)"
   sodipodi:docname="source.svg"
   xmlns:inkscape="http://www.inkscape.org/namespaces/inkscape"
   xmlns:sodipodi="http://sodipodi.sourceforge.net/DTD/sodipodi-0.dtd"
   xmlns="http://www.w3.org/2000/svg"
   xmlns:svg="http://www.w3.org/2000/svg">
  <sodipodi:namedview
     id="namedview7"
     pagecolor="#ffffff"
     bordercolor="#747474"
     borderopacity="0.24705882"
     inkscape:showpageshadow="false"
     inkscape:pageopacity="0.0"
     inkscape:pagecheckerboard="false"
     inkscape:deskcolor="#ffffff"
     inkscape:document-units="px"
     showgrid="false"
     inkscape:zoom="2"
     inkscape:cx="226.25"
     inkscape:cy="322.75"
     inkscape:current-layer="layer1">
    <inkscape:grid
       id="grid1"
       units="px"
       originx="0"
       originy="0"
       spacingx="1"
       spacingy="1"
       empcolor="#0099e5"
       empopacity="0.30196078"
       color="#0099e5"
       opacity="0.14901961"
       empspacing="4"
       dotted="false"
       gridanglex="30"
       gridanglez="30"
       visible="false" />
    <inkscape:page
       x="0"
       y="0"
       width="268"
       height="108"
       id="page132"
       margin="0"
       bleed="0" />
    <inkscape:page
       x="485.40625"
       y="0"
       width="1080"
       height="1920"
       id="page133"
       margin="0"
       bleed="0"
       inkscape:export-filename="fuiz-brand-card.png"
       inkscape:export-xdpi="96"
       inkscape:export-ydpi="96" />
    <inkscape:page
       x="1801.2847"
       y="0"
       width="1080"
       height="1080"
       id="page134"
       margin="0"
       bleed="0"
       inkscape:export-filename="fuiz-logo-showcase.png"
       inkscape:export-xdpi="96"
       inkscape:export-ydpi="96" />
    <inkscape:page
       x="0"
       y="182.83217"
       width="128"
       height="128"
       id="page1"
       margin="0"
       bleed="0" />
    <inkscape:page
       x="0"
       y="339.44205"
       width="128"
       height="128"
       id="page2"
       margin="0"
       bleed="0" />
  </sodipodi:namedview>
  <defs
     id="defs2" />
  <g
     inkscape:label="Layer 1"
     inkscape:groupmode="layer"
     id="layer1">
    <path
       id="path9"
       style="color:#000000;fill:#241f31;stroke-linecap:round;stroke-linejoin:round;-inkscape-stroke:none"
       d="M 35.5 0 C 32.409766 0 30 2.4097661 30 5.5 L 30 11.599609 L 30 77.5 C 30 77.886279 30.037447 78.26141 30.109375 78.623047 C 30.181303 78.984684 30.288681 79.33187 30.425781 79.662109 C 30.562881 79.992349 30.730264 80.305569 30.925781 80.597656 C 31.121299 80.889743 31.344617 81.161023 31.591797 81.408203 C 31.838977 81.655383 32.110257 81.878701 32.402344 82.074219 C 32.694431 82.269736 33.007651 82.437119 33.337891 82.574219 C 33.66813 82.711319 34.015316 82.818697 34.376953 82.890625 C 34.73859 82.962553 35.113721 83 35.5 83 L 83.5 83 C 86.590237 83 89 80.590234 89 77.5 L 89 5.5 C 89 2.4097661 86.590237 0 83.5 0 L 35.5 0 z M 25 12.939453 L 17.078125 15.0625 C 14.093189 15.86231 12.389641 18.813892 13.189453 21.798828 L 14.769531 27.691406 L 25 65.876953 L 25 12.939453 z M 10.285156 30.28125 L 3.1796875 34.382812 C 0.50346618 35.92793 -0.37910083 39.220264 1.1660156 41.896484 L 23.988281 81.425781 L 10.285156 30.28125 z M 30.59375 86.755859 L 31.824219 91.345703 C 32.62403 94.33065 35.575611 96.034174 38.560547 95.234375 L 65.5625 88 L 35.5 88 C 33.72717 88 32.060715 87.542039 30.59375 86.755859 z M 68.896484 92.283203 L 39.853516 100.06445 C 38.138741 100.52393 36.409471 100.51207 34.787109 100.13086 L 37.166016 104.25 C 38.711132 106.92623 42.003466 107.80879 44.679688 106.26367 L 68.896484 92.283203 z " />
    <path
       d="m 148.66665,27.938691 v 13.610661 h -21.49866 v 7.578663 h 15.46666 v 12.914661 h -15.46666 v 20.64799 H 110 V 27.938691 Z m 51.96803,11.135995 v 43.61598 h -17.16799 v -6.650663 q -2.01067,3.093332 -5.41333,5.026664 -3.32533,1.933332 -7.96533,1.933332 -7.50133,0 -11.75466,-5.026664 -4.176,-5.026664 -4.176,-13.61066 V 39.074686 h 17.09066 v 23.122656 q 0,3.093332 1.624,4.949331 1.70133,1.778666 4.48533,1.778666 2.86133,0 4.48533,-1.778666 1.624,-1.855999 1.624,-4.949331 V 39.074686 Z m 16.3947,-3.479998 q -4.48533,0 -7.19199,-2.397332 -2.70667,-2.397333 -2.70667,-6.031998 0,-3.711998 2.70667,-6.10933 2.70666,-2.474666 7.19199,-2.474666 4.408,0 7.11467,2.474666 2.70666,2.397332 2.70666,6.10933 0,3.634665 -2.70666,6.031998 -2.70667,2.397332 -7.11467,2.397332 z m 8.50667,3.479998 v 43.61598 h -17.168 v -43.61598 z m 24.20536,29.386653 h 18.17332 V 82.690666 H 230.94941 V 69.234672 L 247.57607,53.304013 H 231.18141 V 39.074686 H 267.1414 V 52.53068 Z"
       id="text11"
       style="font-weight:900;font-size:77.3333px;line-height:1.15;font-family:Poppins;-inkscape-font-specification:'Poppins Heavy';letter-spacing:0px;fill:#241f31;stroke-width:5;stroke-linecap:round;stroke-linejoin:round"
       aria-label="Fuiz" />
    <rect
       style="fill:#fffbf5;fill-opacity:1;stroke:none;stroke-width:1.99999;stroke-linecap:round;stroke-linejoin:round"
       id="rect10"
       width="1080"
       height="1920"
       x="485.40625"
       y="0" />
    <text
       xml:space="preserve"
       style="font-style:normal;font-variant:normal;font-weight:800;font-stretch:normal;font-size:58.6951px;line-height:1.15;font-family:Poppins;-inkscape-font-specification:'Poppins Ultra-Bold';letter-spacing:-0.710021px;fill:#241f31;fill-opacity:1;stroke:none;stroke-width:2;stroke-linecap:round;stroke-linejoin:round"
       x="561.78113"
       y="1383.3691"
       id="text87"><tspan
         sodipodi:role="line"
         id="tspan87"
         x="561.78113"
         y="1383.3691"
         style="font-style:normal;font-variant:normal;font-weight:800;font-stretch:normal;font-family:Poppins;-inkscape-font-specification:'Poppins Ultra-Bold';stroke-width:2">Typography</tspan></text>
    <text
       xml:space="preserve"
       style="font-style:normal;font-variant:normal;font-weight:normal;font-stretch:normal;font-size:36.5981px;line-height:1.15;font-family:'Atkinson Hyperlegible';-inkscape-font-specification:'Atkinson Hyperlegible';letter-spacing:-0.442719px;fill:#63452c;fill-opacity:1;stroke:none;stroke-width:2;stroke-linecap:round;stroke-linejoin:round"
       x="562.35876"
       y="1459.5739"
       id="text88"><tspan
         sodipodi:role="line"
         id="tspan88"
         x="562.35876"
         y="1459.5739"
         style="font-style:normal;font-variant:normal;font-weight:normal;font-stretch:normal;font-family:'Atkinson Hyperlegible';-inkscape-font-specification:'Atkinson Hyperlegible';fill:#63452c;fill-opacity:1;stroke-width:2">Headings: Poppins Ultra-Bold<tspan
   style="font-style:normal;font-variant:normal;font-weight:800;font-stretch:normal;font-family:Poppins;-inkscape-font-specification:'Poppins Ultra-Bold';fill:#63452c;fill-opacity:1"
   id="tspan91" /></tspan><tspan
         sodipodi:role="line"
         x="562.35876"
         y="1501.6616"
         style="font-style:normal;font-variant:normal;font-weight:normal;font-stretch:normal;font-family:'Atkinson Hyperlegible';-inkscape-font-specification:'Atkinson Hyperlegible';fill:#63452c;fill-opacity:1;stroke-width:2"
         id="tspan90">Normal Text: Atkinson Hyperlegible</tspan></text>
    <text
       xml:space="preserve"
       style="font-style:italic;font-variant:normal;font-weight:normal;font-stretch:normal;font-size:82.6667px;line-height:1.15;font-family:'Atkinson Hyperlegible';-inkscape-font-specification:'Atkinson Hyperlegible Italic';letter-spacing:-1px;fill:#241f31;fill-opacity:1;stroke:none;stroke-width:2;stroke-linecap:round;stroke-linejoin:round"
       x="1963.125"
       y="642.33594"
       id="text89"><tspan
         sodipodi:role="line"
         id="tspan89"
         x="1963.125"
         y="642.33594" /></text>
    <text
       xml:space="preserve"
       style="font-style:normal;font-variant:normal;font-weight:800;font-stretch:normal;font-size:58.6951px;line-height:1.15;font-family:Poppins;-inkscape-font-specification:'Poppins Ultra-Bold';letter-spacing:-0.710021px;fill:#241f31;fill-opacity:1;stroke:none;stroke-width:2;stroke-linecap:round;stroke-linejoin:round"
       x="561.78113"
       y="933.29614"
       id="text92"><tspan
         sodipodi:role="line"
         id="tspan92"
         x="561.78113"
         y="933.29614"
         style="font-style:normal;font-variant:normal;font-weight:800;font-stretch:normal;font-family:Poppins;-inkscape-font-specification:'Poppins Ultra-Bold';stroke-width:2">Colors</tspan></text>
    <path
       style="color:#000000;fill:#fffbf5;fill-opacity:1;stroke:#63452c;stroke-width:2;stroke-linecap:round;stroke-linejoin:round;stroke-dasharray:none"
       d="m 740.37012,982.10589 c 0,-6.5137 -5.0794,-11.5931 -11.5931,-11.5931 h -12.8569 -138.9069 c -0.8142,0 -1.6049,0.079 -2.3672,0.2306 -0.76219,0.1516 -1.49399,0.378 -2.1901,0.6669 -0.69609,0.289 -1.35629,0.6418 -1.972,1.054 -0.6157,0.412 -1.1875,0.8828 -1.70849,1.4038 -0.521,0.521 -0.99171,1.0928 -1.40381,1.7085 -0.4122,0.6157 -0.765,1.2759 -1.054,1.972 -0.2889,0.696 -0.5153,1.4279 -0.6669,2.1901 -0.15149,0.7623 -0.23049,1.553 -0.23049,2.3672 v 101.17591 c 0,6.5137 5.0794,11.593 11.593,11.593 h 151.7638 c 6.5137,0 11.5931,-5.0793 11.5931,-11.593 z"
       id="path92" />
    <path
       style="color:#000000;fill:#241f31;fill-opacity:1;stroke-width:1;stroke-linecap:round;stroke-linejoin:round;-inkscape-stroke:none"
       d="m 740.37012,1128.9808 c 0,-6.5137 -5.0794,-11.5931 -11.5931,-11.5931 h -12.8569 -138.9069 c -0.8142,0 -1.6049,0.079 -2.3672,0.2306 -0.76219,0.1515 -1.49399,0.3779 -2.1901,0.6669 -0.69609,0.289 -1.35629,0.6418 -1.972,1.0539 -0.6157,0.4121 -1.1875,0.8829 -1.70849,1.4039 -0.521,0.521 -0.99171,1.0928 -1.40381,1.7085 -0.4122,0.6157 -0.765,1.2759 -1.054,1.9719 -0.2889,0.6961 -0.5153,1.4279 -0.6669,2.1902 -0.15149,0.7623 -0.23049,1.553 -0.23049,2.3672 v 101.1758 c 0,6.5137 5.0794,11.5931 11.593,11.5931 h 151.7638 c 6.5137,0 11.5931,-5.0794 11.5931,-11.5931 z"
       id="path100" />
    <path
       style="color:#000000;fill:#d4131b;fill-opacity:1;stroke-width:1;stroke-linecap:round;stroke-linejoin:round;-inkscape-stroke:none"
       d="m 940.37642,1128.9808 c 0,-6.5137 -5.0794,-11.5931 -11.5931,-11.5931 h -12.8569 -138.9069 c -0.8142,0 -1.6049,0.079 -2.36719,0.2306 -0.76231,0.1515 -1.4941,0.3779 -2.1902,0.6669 -0.696,0.289 -1.3563,0.6418 -1.97191,1.0539 -0.6157,0.4121 -1.1875,0.8829 -1.70849,1.4039 -0.521,0.521 -0.9918,1.0928 -1.4039,1.7085 -0.4121,0.6157 -0.7649,1.2759 -1.05391,1.9719 -0.289,0.6961 -0.5153,1.4279 -0.6669,2.1902 -0.15149,0.7623 -0.2306,1.553 -0.2306,2.3672 v 101.1758 c 0,6.5137 5.0794,11.5931 11.5931,11.5931 h 151.7638 c 6.5137,0 11.5931,-5.0794 11.5931,-11.5931 z"
       id="path101" />
    <path
       style="color:#000000;fill:#63452c;fill-opacity:1;stroke-width:1;stroke-linecap:round;stroke-linejoin:round;-inkscape-stroke:none"
       d="m 940.37642,982.10589 c 0,-6.5137 -5.0794,-11.5931 -11.5931,-11.5931 h -12.8569 -138.9069 c -0.8142,0 -1.6049,0.079 -2.36719,0.2306 -0.76231,0.1516 -1.4941,0.378 -2.1902,0.6669 -0.696,0.289 -1.3563,0.6418 -1.97191,1.054 -0.6157,0.412 -1.1875,0.8828 -1.70849,1.4038 -0.521,0.521 -0.9918,1.0928 -1.4039,1.7085 -0.4121,0.6157 -0.7649,1.2759 -1.05391,1.972 -0.289,0.696 -0.5153,1.4279 -0.6669,2.1901 -0.15149,0.7623 -0.2306,1.553 -0.2306,2.3672 v 101.17591 c 0,6.5137 5.0794,11.593 11.5931,11.593 h 151.7638 c 6.5137,0 11.5931,-5.0793 11.5931,-11.593 z"
       id="path102" />
    <path
       style="color:#000000;fill:#1f8355;fill-opacity:1;stroke-width:1;stroke-linecap:round;stroke-linejoin:round;-inkscape-stroke:none"
       d="m 1140.3825,982.10589 c 0,-6.5137 -5.0793,-11.5931 -11.593,-11.5931 h -12.857 -138.90668 c -0.8142,0 -1.605,0.079 -2.36719,0.2306 -0.76231,0.1516 -1.4941,0.378 -2.1902,0.6669 -0.6961,0.289 -1.3563,0.6418 -1.972,1.054 -0.61561,0.412 -1.1874,0.8828 -1.7085,1.4038 -0.521,0.521 -0.9917,1.0928 -1.4038,1.7085 -0.4121,0.6157 -0.76501,1.2759 -1.05391,1.972 -0.289,0.696 -0.5154,1.4279 -0.667,2.1901 -0.15149,0.7623 -0.23049,1.553 -0.23049,2.3672 v 101.17591 c 0,6.5137 5.0794,11.593 11.5931,11.593 h 151.76367 c 6.5137,0 11.593,-5.0793 11.593,-11.593 z"
       id="path103" />
    <path
       style="color:#000000;fill:#1b68c5;fill-opacity:1;stroke-width:1;stroke-linecap:round;stroke-linejoin:round;-inkscape-stroke:none"
       d="m 1140.3825,1128.9808 c 0,-6.5137 -5.0793,-11.5931 -11.593,-11.5931 h -12.857 -138.90668 c -0.8142,0 -1.605,0.079 -2.36719,0.2306 -0.76231,0.1515 -1.4941,0.3779 -2.1902,0.6669 -0.6961,0.289 -1.3563,0.6418 -1.972,1.0539 -0.61561,0.4121 -1.1874,0.8829 -1.7085,1.4039 -0.521,0.521 -0.9917,1.0928 -1.4038,1.7085 -0.4121,0.6157 -0.76501,1.2759 -1.05391,1.9719 -0.289,0.6961 -0.5154,1.4279 -0.667,2.1902 -0.15149,0.7623 -0.23049,1.553 -0.23049,2.3672 v 101.1758 c 0,6.5137 5.0794,11.5931 11.5931,11.5931 h 151.76367 c 6.5137,0 11.593,-5.0794 11.593,-11.5931 z"
       id="path104" />
    <path
       style="color:#000000;fill:#da5c00;fill-opacity:1;stroke-width:1;stroke-linecap:round;stroke-linejoin:round;-inkscape-stroke:none"
       d="m 1340.3887,982.10589 c 0,-6.5137 -5.0793,-11.5931 -11.593,-11.5931 h -12.857 -138.9068 c -0.8142,0 -1.6049,0.079 -2.3672,0.2306 -0.7623,0.1516 -1.4941,0.378 -2.1902,0.6669 -0.6961,0.289 -1.3563,0.6418 -1.9719,1.054 -0.6157,0.412 -1.1875,0.8828 -1.7085,1.4038 -0.521,0.521 -0.9918,1.0928 -1.4039,1.7085 -0.4121,0.6157 -0.7649,1.2759 -1.0539,1.972 -0.289,0.696 -0.5153,1.4279 -0.6669,2.1901 -0.1516,0.7623 -0.2306,1.553 -0.2306,2.3672 v 101.17591 c 0,6.5137 5.0794,11.593 11.5931,11.593 h 151.7638 c 6.5137,0 11.593,-5.0793 11.593,-11.593 z"
       id="path105" />
    <text
       xml:space="preserve"
       style="font-style:normal;font-variant:normal;font-weight:800;font-stretch:normal;font-size:80.2052px;line-height:1.15;font-family:Poppins;-inkscape-font-specification:'Poppins Ultra-Bold';letter-spacing:-0.970222px;fill:#63452c;fill-opacity:1;stroke:none;stroke-width:2;stroke-linecap:round;stroke-linejoin:round"
       x="560.57654"
       y="173.36723"
       id="text106"><tspan
         sodipodi:role="line"
         id="tspan106"
         x="560.57654"
         y="173.36723"
         style="font-style:normal;font-variant:normal;font-weight:800;font-stretch:normal;font-family:Poppins;-inkscape-font-specification:'Poppins Ultra-Bold';stroke-width:2">Fuiz</tspan><tspan
         sodipodi:role="line"
         x="560.57654"
         y="265.60321"
         style="font-style:normal;font-variant:normal;font-weight:800;font-stretch:normal;font-family:Poppins;-inkscape-font-specification:'Poppins Ultra-Bold';stroke-width:2"
         id="tspan118">Brand Card</tspan></text>
    <text
       xml:space="preserve"
       style="font-style:normal;font-variant:normal;font-weight:normal;font-stretch:normal;font-size:36.6667px;line-height:1.15;font-family:'Atkinson Hyperlegible';-inkscape-font-specification:'Atkinson Hyperlegible';text-align:center;letter-spacing:-0.517053px;text-anchor:middle;fill:#63452c;fill-opacity:1;stroke:none;stroke-width:2;stroke-linecap:round;stroke-linejoin:round"
       x="653.01599"
       y="1047.7308"
       id="text107"><tspan
         sodipodi:role="line"
         id="tspan107"
         x="652.75745"
         y="1047.7308"
         style="font-style:normal;font-variant:normal;font-weight:normal;font-stretch:normal;font-size:36.6667px;font-family:'Atkinson Hyperlegible';-inkscape-font-specification:'Atkinson Hyperlegible';text-align:center;text-anchor:middle;fill:#63452c;fill-opacity:1;stroke-width:2">#FFFBF5</tspan></text>
    <text
       xml:space="preserve"
       style="font-style:normal;font-variant:normal;font-weight:normal;font-stretch:normal;font-size:36.6667px;line-height:1.15;font-family:'Atkinson Hyperlegible';-inkscape-font-specification:'Atkinson Hyperlegible';text-align:center;letter-spacing:-0.517053px;text-anchor:middle;fill:#fff7eb;fill-opacity:1;stroke:none;stroke-width:2;stroke-linecap:round;stroke-linejoin:round"
       x="653.01599"
       y="1191.8154"
       id="text108"><tspan
         sodipodi:role="line"
         id="tspan108"
         x="652.75745"
         y="1191.8154"
         style="font-style:normal;font-variant:normal;font-weight:normal;font-stretch:normal;font-size:36.6667px;font-family:'Atkinson Hyperlegible';-inkscape-font-specification:'Atkinson Hyperlegible';text-align:center;text-anchor:middle;fill:#fff7eb;fill-opacity:1;stroke-width:2">#241F31</tspan></text>
    <text
       xml:space="preserve"
       style="font-style:normal;font-variant:normal;font-weight:normal;font-stretch:normal;font-size:36.6667px;line-height:1.15;font-family:'Atkinson Hyperlegible';-inkscape-font-specification:'Atkinson Hyperlegible';text-align:center;letter-spacing:-0.517053px;text-anchor:middle;fill:#fff7eb;fill-opacity:1;stroke:none;stroke-width:2;stroke-linecap:round;stroke-linejoin:round"
       x="853.40137"
       y="1194.6057"
       id="text109"><tspan
         sodipodi:role="line"
         id="tspan109"
         x="853.14282"
         y="1194.6057"
         style="font-style:normal;font-variant:normal;font-weight:normal;font-stretch:normal;font-size:36.6667px;font-family:'Atkinson Hyperlegible';-inkscape-font-specification:'Atkinson Hyperlegible';text-align:center;text-anchor:middle;fill:#fff7eb;fill-opacity:1;stroke-width:2">#D4131B</tspan></text>
    <text
       xml:space="preserve"
       style="font-style:normal;font-variant:normal;font-weight:normal;font-stretch:normal;font-size:36.6667px;line-height:1.15;font-family:'Atkinson Hyperlegible';-inkscape-font-specification:'Atkinson Hyperlegible';text-align:center;letter-spacing:-0.517053px;text-anchor:middle;fill:#fff7eb;fill-opacity:1;stroke:none;stroke-width:2;stroke-linecap:round;stroke-linejoin:round"
       x="853.40137"
       y="1047.7308"
       id="text110"><tspan
         sodipodi:role="line"
         id="tspan110"
         x="853.14282"
         y="1047.7308"
         style="font-style:normal;font-variant:normal;font-weight:normal;font-stretch:normal;font-size:36.6667px;font-family:'Atkinson Hyperlegible';-inkscape-font-specification:'Atkinson Hyperlegible';text-align:center;text-anchor:middle;fill:#fff7eb;fill-opacity:1;stroke-width:2">#63452C</tspan></text>
    <text
       xml:space="preserve"
       style="font-style:normal;font-variant:normal;font-weight:normal;font-stretch:normal;font-size:36.6667px;line-height:1.15;font-family:'Atkinson Hyperlegible';-inkscape-font-specification:'Atkinson Hyperlegible';text-align:center;letter-spacing:-0.517053px;text-anchor:middle;fill:#fff7eb;fill-opacity:1;stroke:none;stroke-width:2;stroke-linecap:round;stroke-linejoin:round"
       x="1052.9077"
       y="1047.7308"
       id="text111"><tspan
         sodipodi:role="line"
         id="tspan111"
         x="1052.6492"
         y="1047.7308"
         style="font-style:normal;font-variant:normal;font-weight:normal;font-stretch:normal;font-size:36.6667px;font-family:'Atkinson Hyperlegible';-inkscape-font-specification:'Atkinson Hyperlegible';text-align:center;text-anchor:middle;fill:#fff7eb;fill-opacity:1;stroke-width:2">#1F8355F</tspan></text>
    <text
       xml:space="preserve"
       style="font-style:normal;font-variant:normal;font-weight:normal;font-stretch:normal;font-size:36.6667px;line-height:1.15;font-family:'Atkinson Hyperlegible';-inkscape-font-specification:'Atkinson Hyperlegible';text-align:center;letter-spacing:-0.517053px;text-anchor:middle;fill:#fff7eb;fill-opacity:1;stroke:none;stroke-width:2;stroke-linecap:round;stroke-linejoin:round"
       x="1052.9077"
       y="1194.6057"
       id="text112"><tspan
         sodipodi:role="line"
         id="tspan112"
         x="1052.6492"
         y="1194.6057"
         style="font-style:normal;font-variant:normal;font-weight:normal;font-stretch:normal;font-size:36.6667px;font-family:'Atkinson Hyperlegible';-inkscape-font-specification:'Atkinson Hyperlegible';text-align:center;text-anchor:middle;fill:#fff7eb;fill-opacity:1;stroke-width:2">#1B68C5</tspan></text>
    <text
       xml:space="preserve"
       style="font-style:normal;font-variant:normal;font-weight:normal;font-stretch:normal;font-size:36.6667px;line-height:1.15;font-family:'Atkinson Hyperlegible';-inkscape-font-specification:'Atkinson Hyperlegible';text-align:center;letter-spacing:-0.517053px;text-anchor:middle;fill:#fff7eb;fill-opacity:1;stroke:none;stroke-width:2;stroke-linecap:round;stroke-linejoin:round"
       x="1252.9139"
       y="1047.7308"
       id="text113"><tspan
         sodipodi:role="line"
         id="tspan113"
         x="1252.6554"
         y="1047.7308"
         style="font-style:normal;font-variant:normal;font-weight:normal;font-stretch:normal;font-size:36.6667px;font-family:'Atkinson Hyperlegible';-inkscape-font-specification:'Atkinson Hyperlegible';text-align:center;text-anchor:middle;fill:#fff7eb;fill-opacity:1;stroke-width:2">#DA5C00</tspan></text>
    <text
       xml:space="preserve"
       style="font-style:normal;font-variant:normal;font-weight:normal;font-stretch:normal;font-size:14.6667px;line-height:1.15;font-family:'Atkinson Hyperlegible';-inkscape-font-specification:'Atkinson Hyperlegible';text-align:center;letter-spacing:-0.517053px;text-anchor:middle;fill:#63452c;fill-opacity:1;stroke:none;stroke-width:2;stroke-linecap:round;stroke-linejoin:round"
       x="588.23145"
       y="535.41321"
       id="text114"><tspan
         sodipodi:role="line"
         id="tspan114"
         x="588.23145"
         y="535.41321"
         style="font-style:normal;font-variant:normal;font-weight:normal;font-stretch:normal;font-size:14.6667px;font-family:'Atkinson Hyperlegible';-inkscape-font-specification:'Atkinson Hyperlegible';text-align:center;text-anchor:middle;fill:#63452c;fill-opacity:1;stroke-width:2" /></text>
    <text
       xml:space="preserve"
       style="font-style:normal;font-variant:normal;font-weight:800;font-stretch:normal;font-size:58.6951px;line-height:1.15;font-family:Poppins;-inkscape-font-specification:'Poppins Ultra-Bold';letter-spacing:-0.710021px;fill:#241f31;fill-opacity:1;stroke:none;stroke-width:2;stroke-linecap:round;stroke-linejoin:round"
       x="561.78113"
       y="429.90176"
       id="text116"><tspan
         sodipodi:role="line"
         id="tspan116"
         x="561.78113"
         y="429.90176"
         style="font-style:normal;font-variant:normal;font-weight:800;font-stretch:normal;font-family:Poppins;-inkscape-font-specification:'Poppins Ultra-Bold';stroke-width:2">Logo</tspan></text>
    <path
       id="path117"
       style="color:#000000;fill:#241f31;stroke-linecap:round;stroke-linejoin:round;-inkscape-stroke:none"
       d="m 619.50972,485.27863 c -3.0902,0 -5.5,2.40977 -5.5,5.5 v 6.09961 65.90039 c 0,0.38629 0.037,0.76141 0.1094,1.12306 0.072,0.36163 0.1793,0.70881 0.3164,1.03905 0.1371,0.33024 0.3045,0.64346 0.5,0.93556 0.1955,0.29208 0.4189,0.56336 0.666,0.81053 0.2472,0.24718 0.5185,0.4705 0.8106,0.66602 0.2921,0.19552 0.6053,0.3629 0.9355,0.5 0.3303,0.1371 0.6775,0.24448 1.0391,0.31641 0.3616,0.0719 0.7368,0.10937 1.123,0.10937 h 48 c 3.0903,0 5.5,-2.40976 5.5,-5.5 v -72 c 0,-3.09023 -2.4097,-5.5 -5.5,-5.5 z m -10.5,12.93946 -7.9218,2.12304 c -2.985,0.79981 -4.6885,3.7514 -3.8887,6.73633 l 1.5801,5.89258 10.2304,38.18554 z m -14.7148,17.34179 -7.10549,4.10156 c -2.67621,1.54512 -3.55881,4.83745 -2.0136,7.51367 l 22.8222,39.52931 z m 20.3086,56.47461 1.2305,4.58984 c 0.7998,2.98495 3.7513,4.68848 6.7363,3.88868 l 27.0019,-7.23438 h -30.0625 c -1.7728,0 -3.4392,-0.45795 -4.9062,-1.24414 z m 38.3027,5.52734 -29.04289,7.78125 c -1.7148,0.45948 -3.4441,0.44762 -5.0665,0.0664 l 2.379,4.11914 c 1.5451,2.67623 4.83739,3.55879 7.5136,2.01367 z" />
    <path
       d="m 732.67643,513.21732 v 13.61066 h -21.49871 v 7.57867 h 15.4667 v 12.91467 h -15.4667 v 20.64799 h -17.16799 v -54.75198 z m 51.968,11.136 v 43.61598 h -17.168 v -6.65067 q -2.0106,3.09333 -5.4133,5.02667 -3.3253,1.93333 -7.9653,1.93333 -7.5014,0 -11.7547,-5.02667 -4.176,-5.02666 -4.176,-13.61066 v -25.28798 h 17.0907 v 23.12265 q 0,3.09333 1.624,4.94933 1.7013,1.77868 4.4853,1.77868 2.8613,0 4.4853,-1.77868 1.624,-1.856 1.624,-4.94933 v -23.12265 z m 16.3947,-3.48 q -4.4853,0 -7.192,-2.39733 -2.7066,-2.39734 -2.7066,-6.032 0,-3.712 2.7066,-6.10933 2.7067,-2.47467 7.192,-2.47467 4.408,0 7.1147,2.47467 2.7067,2.39733 2.7067,6.10933 0,3.63466 -2.7067,6.032 -2.7067,2.39733 -7.1147,2.39733 z m 8.5067,3.48 v 43.61598 h -17.168 v -43.61598 z m 24.2054,29.38665 h 18.1733 v 14.22933 h -36.9653 v -13.456 l 16.6266,-15.93066 h -16.3946 v -14.22932 h 35.9599 v 13.45599 z"
       id="path118"
       style="font-weight:900;font-size:77.3333px;line-height:1.15;font-family:Poppins;-inkscape-font-specification:'Poppins Heavy';letter-spacing:0px;fill:#241f31;stroke-width:5;stroke-linecap:round;stroke-linejoin:round"
       aria-label="Fuiz" />
    <path
       id="path119"
       style="color:#000000;fill:#d4131b;fill-opacity:1;stroke-linecap:round;stroke-linejoin:round;-inkscape-stroke:none"
       d="m 971.90622,485.27863 c -3.0902,0 -5.5,2.40977 -5.5,5.5 v 6.09961 65.90039 c 0,0.38629 0.037,0.76141 0.1094,1.12306 0.072,0.36163 0.1793,0.70881 0.3164,1.03905 0.1371,0.33024 0.3045,0.64346 0.5,0.93556 0.1955,0.29208 0.4188,0.56336 0.666,0.81053 0.2472,0.24718 0.5185,0.4705 0.8106,0.66602 0.292,0.19552 0.6053,0.3629 0.9355,0.5 0.33031,0.1371 0.6774,0.24448 1.0391,0.31641 0.3616,0.0719 0.7367,0.10937 1.123,0.10937 h 47.99998 c 3.0903,0 5.5,-2.40976 5.5,-5.5 v -72 c 0,-3.09023 -2.4097,-5.5 -5.5,-5.5 z m -10.5,12.93946 -7.9219,2.12304 c -2.9849,0.79981 -4.6884,3.7514 -3.8886,6.73633 l 1.58,5.89258 10.2305,38.18554 z m -14.7148,17.34179 -7.10549,4.10156 c -2.67621,1.54512 -3.5588,4.83745 -2.0137,7.51367 l 22.8223,39.52931 z m 20.30861,56.47461 1.23039,4.58984 c 0.7998,2.98495 3.75141,4.68848 6.7364,3.88868 l 27.00188,-7.23438 h -30.06248 c -1.7728,0 -3.4393,-0.45795 -4.90619,-1.24414 z m 38.30267,5.52734 -29.04297,7.78125 c -1.7147,0.45948 -3.444,0.44762 -5.0664,0.0664 l 2.3789,4.11914 c 1.5452,2.67623 4.8375,3.55879 7.5137,2.01367 z" />
    <path
       d="m 1085.0728,513.21732 v 13.61066 h -21.4986 v 7.57867 h 15.4666 v 12.91467 h -15.4666 v 20.64799 h -17.1679 v -54.75198 z m 51.968,11.136 v 43.61598 h -17.168 v -6.65067 q -2.0107,3.09333 -5.4133,5.02667 -3.3254,1.93333 -7.9654,1.93333 -7.5013,0 -11.7546,-5.02667 -4.176,-5.02666 -4.176,-13.61066 v -25.28798 h 17.0906 v 23.12265 q 0,3.09333 1.624,4.94933 1.7014,1.77868 4.4854,1.77868 2.8613,0 4.4853,-1.77868 1.624,-1.856 1.624,-4.94933 v -23.12265 z m 16.3947,-3.48 q -4.4853,0 -7.192,-2.39733 -2.7067,-2.39734 -2.7067,-6.032 0,-3.712 2.7067,-6.10933 2.7067,-2.47467 7.192,-2.47467 4.408,0 7.1147,2.47467 2.7066,2.39733 2.7066,6.10933 0,3.63466 -2.7066,6.032 -2.7067,2.39733 -7.1147,2.39733 z m 8.5067,3.48 v 43.61598 h -17.168 v -43.61598 z m 24.2053,29.38665 h 18.1733 v 14.22933 h -36.9653 v -13.456 l 16.6267,-15.93066 h -16.3947 v -14.22932 h 35.96 v 13.45599 z"
       id="path120"
       style="font-weight:900;font-size:77.3333px;line-height:1.15;font-family:Poppins;-inkscape-font-specification:'Poppins Heavy';letter-spacing:0px;fill:#241f31;stroke-width:5;stroke-linecap:round;stroke-linejoin:round"
       aria-label="Fuiz" />
    <rect
       style="fill:#241f31;fill-opacity:1;stroke:none;stroke-width:2;stroke-linecap:round;stroke-linejoin:round;stroke-dasharray:none"
       id="rect122"
       width="318.61197"
       height="151.99609"
       x="561.85022"
       y="644.53699"
       ry="12.000001"
       rx="12" />
    <path
       id="path123"
       style="color:#000000;fill:#fff7eb;fill-opacity:1;stroke-linecap:round;stroke-linejoin:round;-inkscape-stroke:none"
       d="m 619.50972,668.32312 c -3.0902,0 -5.5,2.40976 -5.5,5.5 v 6.09961 65.90039 c 0,0.38628 0.037,0.7614 0.1094,1.12305 0.072,0.36163 0.1793,0.70881 0.3164,1.03906 0.1371,0.33024 0.3045,0.64346 0.5,0.93555 0.1955,0.29208 0.4189,0.56336 0.666,0.81053 0.2472,0.24718 0.5185,0.4705 0.8106,0.66602 0.2921,0.19552 0.6053,0.3629 0.9355,0.5 0.3303,0.13711 0.6775,0.24448 1.0391,0.31641 0.3616,0.0719 0.7368,0.10938 1.123,0.10938 h 48 c 3.0903,0 5.5,-2.40977 5.5,-5.5 v -72 c 0,-3.09024 -2.4097,-5.5 -5.5,-5.5 z m -10.5,12.93944 -7.9218,2.12306 c -2.985,0.7998 -4.6885,3.75139 -3.8887,6.73632 l 1.5801,5.89258 10.2304,38.18554 z m -14.7148,17.34181 -7.10549,4.10155 c -2.67621,1.54512 -3.55881,4.83745 -2.0136,7.51368 l 22.8222,39.5293 z m 20.3086,56.47461 1.2305,4.58983 c 0.7998,2.98496 3.7513,4.68848 6.7363,3.88868 l 27.0019,-7.23437 h -30.0625 c -1.7728,0 -3.4392,-0.45796 -4.9062,-1.24414 z m 38.3027,5.52733 -29.04289,7.78125 c -1.7148,0.45948 -3.4441,0.44763 -5.0665,0.0664 l 2.379,4.11914 c 1.5451,2.67623 4.83739,3.55879 7.5136,2.01367 z" />
    <path
       d="m 732.67643,696.2618 v 13.61067 h -21.49871 v 7.57866 h 15.4667 v 12.91467 h -15.4667 v 20.64799 h -17.16799 v -54.75198 z m 51.968,11.136 v 43.61598 h -17.168 v -6.65067 q -2.0106,3.09334 -5.4133,5.02667 -3.3253,1.93333 -7.9653,1.93333 -7.5014,0 -11.7547,-5.02667 -4.176,-5.02666 -4.176,-13.61066 V 707.3978 h 17.0907 v 23.12265 q 0,3.09333 1.624,4.94933 1.7013,1.77868 4.4853,1.77868 2.8613,0 4.4853,-1.77868 1.624,-1.856 1.624,-4.94933 V 707.3978 Z m 16.3947,-3.48 q -4.4853,0 -7.192,-2.39733 -2.7066,-2.39734 -2.7066,-6.032 0,-3.712 2.7066,-6.10933 2.7067,-2.47467 7.192,-2.47467 4.408,0 7.1147,2.47467 2.7067,2.39733 2.7067,6.10933 0,3.63466 -2.7067,6.032 -2.7067,2.39733 -7.1147,2.39733 z m 8.5067,3.48 v 43.61598 h -17.168 V 707.3978 Z m 24.2054,29.38665 h 18.1733 v 14.22933 h -36.9653 v -13.456 l 16.6266,-15.93066 h -16.3946 V 707.3978 h 35.9599 v 13.45599 z"
       id="path124"
       style="font-weight:900;font-size:77.3333px;line-height:1.15;font-family:Poppins;-inkscape-font-specification:'Poppins Heavy';letter-spacing:0px;fill:#fff7eb;fill-opacity:1;stroke-width:5;stroke-linecap:round;stroke-linejoin:round"
       aria-label="Fuiz" />
    <path
       id="path126"
       style="color:#000000;fill:#241f31;stroke-linecap:round;stroke-linejoin:round;-inkscape-stroke:none"
       d="m 971.90622,667.02353 c -3.0902,0 -5.5,2.40977 -5.5,5.5 v 6.09961 65.90039 c 0,0.38629 0.037,0.76141 0.1094,1.12305 0.072,0.36163 0.1793,0.70882 0.3164,1.03906 0.1371,0.33024 0.3045,0.64346 0.5,0.93555 0.1955,0.29209 0.4188,0.56336 0.666,0.81054 0.2472,0.24718 0.5185,0.4705 0.8106,0.66602 0.292,0.19552 0.6053,0.3629 0.9355,0.5 0.33031,0.1371 0.6774,0.24448 1.0391,0.3164 0.3616,0.0719 0.7367,0.10938 1.123,0.10938 h 47.99998 c 3.0903,0 5.5,-2.40977 5.5,-5.5 v -72 c 0,-3.09023 -2.4097,-5.5 -5.5,-5.5 z m -10.5,12.93945 -7.9219,2.12305 c -2.9849,0.79981 -4.6884,3.75139 -3.8886,6.73633 l 1.58,5.89258 10.2305,38.18554 z m -14.7148,17.3418 -7.10549,4.10156 c -2.67621,1.54512 -3.5588,4.83745 -2.0137,7.51367 l 22.8223,39.5293 z m 20.30861,56.47461 1.23039,4.58984 c 0.7998,2.98495 3.75141,4.68847 6.7364,3.88867 l 27.00188,-7.23437 h -30.06248 c -1.7728,0 -3.4393,-0.45796 -4.90619,-1.24414 z m 38.30267,5.52734 -29.04297,7.78125 c -1.7147,0.45948 -3.444,0.44762 -5.0664,0.0664 l 2.3789,4.11914 c 1.5452,2.67624 4.8375,3.5588 7.5137,2.01368 z" />
    <path
       id="path127"
       style="color:#000000;fill:#d4131b;fill-opacity:1;stroke-linecap:round;stroke-linejoin:round;-inkscape-stroke:none"
       d="m 1100.6733,667.02353 c -3.0903,0 -5.5,2.40977 -5.5,5.5 v 6.09961 65.90039 c 0,0.38629 0.037,0.76141 0.1094,1.12305 0.072,0.36163 0.1793,0.70882 0.3164,1.03906 0.1371,0.33024 0.3044,0.64346 0.5,0.93555 0.1955,0.29209 0.4188,0.56336 0.666,0.81054 0.2472,0.24718 0.5184,0.4705 0.8105,0.66602 0.2921,0.19552 0.6053,0.3629 0.9356,0.5 0.3302,0.1371 0.6774,0.24448 1.039,0.3164 0.3617,0.0719 0.7368,0.10938 1.1231,0.10938 h 48 c 3.0902,0 5.5,-2.40977 5.5,-5.5 v -72 c 0,-3.09023 -2.4098,-5.5 -5.5,-5.5 z m -10.5,12.93945 -7.9219,2.12305 c -2.9849,0.79981 -4.6885,3.75139 -3.8887,6.73633 l 1.5801,5.89258 10.2305,38.18554 z m -14.7149,17.3418 -7.1054,4.10156 c -2.6763,1.54512 -3.5588,4.83745 -2.0137,7.51367 l 22.8223,39.5293 z m 20.3086,56.47461 1.2305,4.58984 c 0.7998,2.98495 3.7514,4.68847 6.7363,3.88867 l 27.002,-7.23437 h -30.0625 c -1.7729,0 -3.4393,-0.45796 -4.9063,-1.24414 z m 38.3028,5.52734 -29.043,7.78125 c -1.7148,0.45948 -3.4441,0.44762 -5.0664,0.0664 l 2.3789,4.11914 c 1.5451,2.67624 4.8374,3.5588 7.5137,2.01368 z" />
    <rect
       style="fill:#241f31;fill-opacity:1;stroke:none;stroke-width:2;stroke-linecap:round;stroke-linejoin:round;stroke-dasharray:none"
       id="rect127"
       width="147.6178"
       height="151.99609"
       x="1191.7145"
       y="644.53699"
       ry="12.000001"
       rx="12" />
    <path
       id="path128"
       style="color:#000000;fill:#fff7eb;fill-opacity:1;stroke-linecap:round;stroke-linejoin:round;-inkscape-stroke:none"
       d="m 1252.4198,667.02353 c -3.0902,0 -5.5,2.40977 -5.5,5.5 v 6.09961 65.90039 c 0,0.38629 0.037,0.76141 0.1094,1.12305 0.072,0.36163 0.1793,0.70882 0.3164,1.03906 0.1371,0.33024 0.3045,0.64346 0.5,0.93555 0.1955,0.29209 0.4189,0.56336 0.666,0.81054 0.2472,0.24718 0.5185,0.4705 0.8106,0.66602 0.2921,0.19552 0.6053,0.3629 0.9355,0.5 0.3303,0.1371 0.6775,0.24448 1.0391,0.3164 0.3616,0.0719 0.7368,0.10938 1.123,0.10938 h 48 c 3.0903,0 5.5,-2.40977 5.5,-5.5 v -72 c 0,-3.09023 -2.4097,-5.5 -5.5,-5.5 z m -10.5,12.93945 -7.9218,2.12305 c -2.985,0.79981 -4.6885,3.75139 -3.8887,6.73633 l 1.5801,5.89258 10.2304,38.18554 z m -14.7148,17.3418 -7.1055,4.10156 c -2.6762,1.54512 -3.5588,4.83745 -2.0136,7.51367 l 22.8222,39.5293 z m 20.3086,56.47461 1.2305,4.58984 c 0.7998,2.98495 3.7513,4.68847 6.7363,3.88867 l 27.0019,-7.23437 h -30.0625 c -1.7728,0 -3.4393,-0.45796 -4.9062,-1.24414 z m 38.3027,5.52734 -29.0429,7.78125 c -1.7148,0.45948 -3.4441,0.44762 -5.0665,0.0664 l 2.379,4.11914 c 1.5451,2.67624 4.8374,3.5588 7.5136,2.01368 z" />
    <text
       xml:space="preserve"
       style="font-style:normal;font-variant:normal;font-weight:800;font-stretch:normal;font-size:58.6951px;line-height:1.15;font-family:Poppins;-inkscape-font-specification:'Poppins Ultra-Bold';letter-spacing:-0.710021px;fill:#241f31;fill-opacity:1;stroke:none;stroke-width:2;stroke-linecap:round;stroke-linejoin:round"
       x="561.78113"
       y="1641.275"
       id="text128"><tspan
         sodipodi:role="line"
         id="tspan128"
         x="561.78113"
         y="1641.275"
         style="font-style:normal;font-variant:normal;font-weight:800;font-stretch:normal;font-family:Poppins;-inkscape-font-specification:'Poppins Ultra-Bold';stroke-width:2">Notes</tspan></text>
    <text
       xml:space="preserve"
       style="font-style:normal;font-variant:normal;font-weight:normal;font-stretch:normal;font-size:36.5981px;line-height:1.15;font-family:'Atkinson Hyperlegible';-inkscape-font-specification:'Atkinson Hyperlegible';letter-spacing:-0.442719px;white-space:pre;inline-size:897.625;display:inline;fill:#63452c;fill-opacity:1;stroke:none;stroke-width:2;stroke-linecap:round;stroke-linejoin:round"
       x="497.57428"
       y="1651.97"
       id="text131"
       transform="translate(64.784525,56.255809)"><tspan
         x="497.57428"
         y="1651.97"
         id="tspan5">Quizzing should be fun for everyone. Therefore, the Fuiz </tspan><tspan
         x="497.57428"
         y="1694.0578"
         id="tspan6">brand and design style has a focus on legibility and </tspan><tspan
         x="497.57428"
         y="1736.1455"
         id="tspan7">contrast, by using the Atkinson Hyperlegible typeface and </tspan><tspan
         x="497.57428"
         y="1778.2333"
         id="tspan8">muted colors.</tspan></text>
    <rect
       style="fill:#fffbf5;fill-opacity:1;stroke:none;stroke-width:1.99999;stroke-linecap:round;stroke-linejoin:round"
       id="rect132"
       width="1080"
       height="1080"
       x="1801.2847"
       y="0" />
    <path
       id="path134"
       style="color:#000000;fill:#d4131b;fill-opacity:1;stroke-width:1;stroke-linecap:round;stroke-linejoin:round;-inkscape-stroke:none"
       d="m 2141.6552,445.50185 c -5.4573,0 -9.7126,4.25551 -9.7126,9.71267 v 10.77155 116.37616 c 0,0.68215 0.065,1.3446 0.193,1.98324 0.1271,0.63862 0.3168,1.25173 0.5589,1.83492 0.2421,0.58318 0.5375,1.13631 0.883,1.65212 0.3452,0.5158 0.7395,0.99486 1.1761,1.43137 0.4363,0.4365 0.9154,0.83087 1.4313,1.17615 0.5158,0.34528 1.0689,0.64086 1.6522,0.88297 0.5831,0.24211 1.1962,0.43174 1.8348,0.55874 0.6387,0.12697 1.3011,0.19316 1.9833,0.19316 h 84.7652 c 5.4571,0 9.7126,-4.25551 9.7126,-9.71267 V 455.21452 c 0,-5.45716 -4.2555,-9.71267 -9.7126,-9.71267 z m -18.5423,22.8503 -13.9896,3.74918 c -5.2712,1.41241 -8.2797,6.62473 -6.8673,11.89595 l 2.7904,10.40595 18.0665,67.43339 z m -25.9857,30.62458 -12.5477,7.24311 c -4.7262,2.72859 -6.2846,8.54265 -3.5561,13.2687 l 40.3029,69.80638 z m 35.8638,99.7308 2.173,8.10538 c 1.4124,5.27124 6.6247,8.27956 11.8959,6.86716 l 47.6839,-12.77547 h -53.0886 c -3.1308,0 -6.0736,-0.80873 -8.6642,-2.19707 z m 67.6405,9.76095 -51.2882,13.74122 c -3.0283,0.81142 -6.0821,0.79047 -8.947,0.11726 l 4.201,7.27416 c 2.7285,4.72606 8.5425,6.28461 13.2687,3.55602 z" />
    <path
       d="m 2341.5007,494.83991 v 24.03561 h -37.9652 v 13.38347 h 27.313 v 22.80653 h -27.313 v 36.46312 h -30.3177 v -96.68873 z m 91.7726,19.66551 v 77.02322 h -30.3177 v -11.74468 q -3.5508,5.46263 -9.5597,8.8768 -5.8723,3.41414 -14.0663,3.41414 -13.2468,0 -20.7581,-8.8768 -7.3746,-8.87678 -7.3746,-24.03561 v -44.65707 h 30.1812 v 40.83322 q 0,5.46264 2.8679,8.74023 3.0044,3.14102 7.9208,3.14102 5.053,0 7.9209,-3.14102 2.8679,-3.27759 2.8679,-8.74023 v -40.83322 z m 28.952,-6.14547 q -7.9209,0 -12.7006,-4.23354 -4.7799,-4.23356 -4.7799,-10.65215 0,-6.55518 4.7799,-10.78872 4.7797,-4.37012 12.7006,-4.37012 7.7843,0 12.564,4.37012 4.7799,4.23354 4.7799,10.78872 0,6.41859 -4.7799,10.65215 -4.7797,4.23354 -12.564,4.23354 z m 15.0222,6.14547 v 77.02322 h -30.3177 v -77.02322 z m 42.7453,51.89507 h 32.0929 v 25.12815 h -65.2785 v -23.76249 l 29.3616,-28.1326 h -28.9519 v -25.12813 h 63.5032 v 23.76248 z"
       id="path135"
       style="font-weight:900;font-size:77.3333px;line-height:1.15;font-family:Poppins;-inkscape-font-specification:'Poppins Heavy';letter-spacing:0px;fill:#241f31;stroke-width:5;stroke-linecap:round;stroke-linejoin:round"
       aria-label="Fuiz" />
    <path
       id="path1"
       style="color:#000000;fill:#d4131b;fill-opacity:1;stroke-linecap:round;stroke-linejoin:round;-inkscape-stroke:none"
       d="m 50.5,198.83217 c -3.090234,0 -5.5,2.40977 -5.5,5.5 v 6.09961 65.90039 c 0,0.38628 0.03745,0.76141 0.109375,1.12305 0.07193,0.36164 0.179306,0.70882 0.316406,1.03906 0.1371,0.33024 0.304483,0.64346 0.5,0.93555 0.195518,0.29209 0.418836,0.56337 0.666016,0.81055 0.24718,0.24718 0.51846,0.4705 0.810547,0.66601 0.292087,0.19552 0.605307,0.3629 0.935547,0.5 0.330239,0.1371 0.677425,0.24448 1.039062,0.31641 0.361637,0.0719 0.736768,0.10937 1.123047,0.10937 h 48 c 3.09024,0 5.5,-2.40976 5.5,-5.5 v -72 c 0,-3.09023 -2.40976,-5.5 -5.5,-5.5 z m -10.5,12.93946 -7.921875,2.12304 c -2.984936,0.79981 -4.688484,3.7514 -3.888672,6.73633 l 1.580078,5.89258 L 40,264.70913 Z m -14.714844,17.34179 -7.105469,4.10157 c -2.676221,1.54511 -3.558788,4.83745 -2.013672,7.51367 l 22.822266,39.5293 z m 20.308594,56.47461 1.230469,4.58985 c 0.799811,2.98494 3.751392,4.68847 6.736328,3.88867 L 80.5625,286.83217 H 50.5 c -1.77283,0 -3.439285,-0.45796 -4.90625,-1.24414 z m 38.302734,5.52735 -29.042968,7.78124 c -1.714775,0.45948 -3.444045,0.44762 -5.066407,0.0664 l 2.378907,4.11914 c 1.545116,2.67623 4.83745,3.55879 7.513672,2.01367 z" />
    <rect
       style="fill:#fffbf5;stroke-width:2;stroke-linecap:round;stroke-linejoin:round;stroke-opacity:0.3;fill-opacity:1"
       id="rect2"
       width="128"
       height="128"
       x="0"
       y="339.44205"
       inkscape:export-filename="./logo.png"
       inkscape:export-xdpi="96"
       inkscape:export-ydpi="96" />
    <path
       id="path2"
       style="color:#000000;fill:#d4131b;fill-opacity:1;stroke-linecap:round;stroke-linejoin:round;-inkscape-stroke:none"
       d="m 50.5,355.44205 c -3.090234,0 -5.5,2.40977 -5.5,5.5 v 6.09961 65.90039 c 0,0.38628 0.03745,0.76141 0.109375,1.12305 0.07193,0.36164 0.179306,0.70882 0.316406,1.03906 0.1371,0.33024 0.304483,0.64346 0.5,0.93555 0.195518,0.29209 0.418836,0.56337 0.666016,0.81055 0.24718,0.24718 0.51846,0.4705 0.810547,0.66601 0.292087,0.19552 0.605307,0.3629 0.935547,0.5 0.330239,0.1371 0.677425,0.24448 1.039062,0.31641 0.361637,0.0719 0.736768,0.10937 1.123047,0.10937 h 48 c 3.09024,0 5.5,-2.40976 5.5,-5.5 v -72 c 0,-3.09023 -2.40976,-5.5 -5.5,-5.5 z m -10.5,12.93946 -7.921875,2.12304 c -2.984936,0.79981 -4.688484,3.7514 -3.888672,6.73633 l 1.580078,5.89258 L 40,421.31901 Z m -14.714844,17.34179 -7.105469,4.10157 c -2.676221,1.54511 -3.558788,4.83745 -2.013672,7.51367 l 22.822266,39.5293 z m 20.308594,56.47461 1.230469,4.58985 c 0.799811,2.98494 3.751392,4.68847 6.736328,3.88867 L 80.5625,443.44205 H 50.5 c -1.77283,0 -3.439285,-0.45796 -4.90625,-1.24414 z m 38.302734,5.52735 -29.042968,7.78124 c -1.714775,0.45948 -3.444045,0.44762 -5.066407,0.0664 l 2.378907,4.11914 c 1.545116,2.67623 4.83745,3.55879 7.513672,2.01367 z" />
  </g>
</svg>
