<?xml version="1.0" encoding="UTF-8"?>
<!-- Created with Inkscape (http://www.inkscape.org/) -->
<svg width="128" height="128" version="1.1" viewBox="0 0 128 128" xmlns="http://www.w3.org/2000/svg">
 <g transform="translate(-3.2031e-5 -184)" stroke-linecap="round" stroke-linejoin="round">
  <text x="1963.125" y="642.33594" fill="#241f31" font-family="'Atkinson Hyperlegible'" font-size="82.667px" font-style="italic" letter-spacing="-1px" stroke-width="2" style="line-height:1.15" xml:space="preserve"><tspan x="1963.125" y="642.33594"/></text>
  <text x="588.23145" y="535.41321" fill="#63452c" font-family="'Atkinson Hyperlegible'" font-size="14.667px" letter-spacing="-.51705px" stroke-width="2" text-align="center" text-anchor="middle" style="line-height:1.15" xml:space="preserve"><tspan x="588.23145" y="535.41321" fill="#63452c" font-family="'Atkinson Hyperlegible'" font-size="14.667px" stroke-width="2" text-align="center" text-anchor="middle"/></text>
  <path d="m50.5 200c-3.0902 0-5.5 2.4098-5.5 5.5v72c0 0.38628 0.03745 0.76141 0.10938 1.123 0.07193 0.36164 0.17931 0.70882 0.31641 1.0391s0.30448 0.64346 0.5 0.93555c0.19552 0.29209 0.41884 0.56337 0.66602 0.81055s0.51846 0.4705 0.81055 0.66601c0.29209 0.19552 0.60531 0.3629 0.93555 0.5 0.33024 0.1371 0.67742 0.24448 1.0391 0.31641 0.36164 0.0719 0.73677 0.10937 1.123 0.10937h48c3.0902 0 5.5-2.4098 5.5-5.5v-72c0-3.0902-2.4098-5.5-5.5-5.5zm-10.5 12.939-7.9219 2.123c-2.9849 0.79981-4.6885 3.7514-3.8887 6.7363l1.5801 5.8926 10.23 38.186zm-14.715 17.342-7.1055 4.1016c-2.6762 1.5451-3.5588 4.8374-2.0137 7.5137l22.822 39.529zm20.309 56.475 1.2305 4.5898c0.79981 2.9849 3.7514 4.6885 6.7363 3.8887l27.002-7.2344h-30.062c-1.7728 0-3.4393-0.45796-4.9062-1.2441zm38.303 5.5274-29.043 7.7812c-1.7148 0.45948-3.444 0.44762-5.0664 0.0664l2.3789 4.1191c1.5451 2.6762 4.8374 3.5588 7.5137 2.0137z" color="#000000" fill="#d4131b" style="-inkscape-stroke:none"/>
 </g>
</svg>
