<svg xmlns="http://www.w3.org/2000/svg" height="40" viewBox="0 -960 960 960" width="40"><path d="m421-297.334 291-292L642.334-659 421-437.666 312.333-546.333l-68.999 68.999 177.666 180ZM92-92v-776.667h269.667q14-35.999 45.833-58 31.833-22 72.5-22t72.5 22q31.833 22.001 45.833 58h270.334V-92H92Zm104.666-104.666h566.668v-566.668H196.666v566.668ZM480-788q17.133 0 28.567-11.434Q520-810.867 520-828q0-17.134-11.433-28.567Q497.133-868 480-868q-17.133 0-28.567 11.433Q440-845.134 440-828q0 17.133 11.433 28.566Q462.867-788 480-788ZM196.666-196.666v-566.668 566.668Z"/></svg>