<svg xmlns="http://www.w3.org/2000/svg" height="20" viewBox="0 -960 960 960" width="20"><path d="M62-110v-118h359v-421q-19-10-33.5-25T363-708h-99l108 249q-1 60.25-47.626 97.625Q277.747-324 217.374-324 157-324 110-361.375 63-398.75 62-459l109-249h-61v-118h252.649Q379-860 410-879t70-19q39 0 70 19t47.351 52.652H850V-708h-61l109 248.758q0 60.492-46.626 97.867Q804.747-324 743.874-324 683-324 636-361.375 589-398.75 588-459l108-249h-99q-10 19-24.5 34T539-649v421h359v118H62Zm616-360h130l-65-148-65 148Zm-525 0h130l-66-148-64 148Zm327.07-268q11.93 0 19.93-8.789 8-8.79 8-20.422 0-11.631-7.868-19.71-7.869-8.079-19.5-8.079-11.632 0-20.132 7.868-8.5 7.869-8.5 19.5Q452-756 460.07-747q8.07 9 20 9Z"/></svg>