<?xml version="1.0" encoding="UTF-8" standalone="no"?>
<!-- Created with Inkscape (http://www.inkscape.org/) -->

<svg
   width="48"
   height="48"
   viewBox="0 0 48 48"
   version="1.1"
   id="svg1"
   sodipodi:docname="correct.svg"
   inkscape:version="1.3 (0e150ed6c4, 2023-07-21)"
   xml:space="preserve"
   inkscape:export-filename="answered.svg"
   inkscape:export-xdpi="96"
   inkscape:export-ydpi="96"
   xmlns:inkscape="http://www.inkscape.org/namespaces/inkscape"
   xmlns:sodipodi="http://sodipodi.sourceforge.net/DTD/sodipodi-0.dtd"
   xmlns="http://www.w3.org/2000/svg"
   xmlns:svg="http://www.w3.org/2000/svg"><sodipodi:namedview
     id="namedview1"
     pagecolor="#ffffff"
     bordercolor="#000000"
     borderopacity="0.25"
     inkscape:showpageshadow="2"
     inkscape:pageopacity="0.0"
     inkscape:pagecheckerboard="0"
     inkscape:deskcolor="#d1d1d1"
     inkscape:document-units="px"
     showguides="false"
     inkscape:zoom="22.627418"
     inkscape:cx="20.682872"
     inkscape:cy="23.577591"
     inkscape:window-width="1920"
     inkscape:window-height="1011"
     inkscape:window-x="0"
     inkscape:window-y="0"
     inkscape:window-maximized="1"
     inkscape:current-layer="layer1" /><defs
     id="defs1"><inkscape:path-effect
       effect="bspline"
       id="path-effect5"
       is_visible="true"
       lpeversion="1.3"
       weight="33.333333"
       steps="2"
       helper_size="0"
       apply_no_weight="true"
       apply_with_weight="true"
       only_selected="false"
       uniform="false" /><inkscape:path-effect
       effect="bspline"
       id="path-effect4"
       is_visible="true"
       lpeversion="1.3"
       weight="33.333333"
       steps="2"
       helper_size="0"
       apply_no_weight="true"
       apply_with_weight="true"
       only_selected="false"
       uniform="false" /><inkscape:path-effect
       effect="fillet_chamfer"
       id="path-effect12"
       is_visible="true"
       lpeversion="1"
       nodesatellites_param="F,0,0,1,0,1.3835449,0,1 @ F,0,0,1,0,1.3835449,0,1 @ F,0,0,1,0,1.3835449,0,1 @ F,0,0,1,0,1.3835449,0,1"
       radius="1.3835449"
       unit="px"
       method="auto"
       mode="F"
       chamfer_steps="1"
       flexible="false"
       use_knot_distance="true"
       apply_no_radius="true"
       apply_with_radius="true"
       only_selected="false"
       hide_knots="false" /><inkscape:path-effect
       effect="bspline"
       id="path-effect10"
       is_visible="true"
       lpeversion="1.3"
       weight="33.333333"
       steps="2"
       helper_size="0"
       apply_no_weight="true"
       apply_with_weight="true"
       only_selected="false"
       uniform="false" /><inkscape:path-effect
       effect="bspline"
       id="path-effect3"
       is_visible="true"
       lpeversion="1.3"
       weight="33.333333"
       steps="2"
       helper_size="0"
       apply_no_weight="true"
       apply_with_weight="true"
       only_selected="false"
       uniform="false" /><inkscape:path-effect
       effect="fillet_chamfer"
       id="path-effect2"
       is_visible="true"
       lpeversion="1"
       nodesatellites_param="F,0,0,1,0,1.2197076,0,1 @ F,0,0,1,0,1.2197076,0,1 @ F,0,0,1,0,1.2197076,0,1 @ F,0,0,1,0,1.2197076,0,1"
       radius="4.6099185"
       unit="px"
       method="auto"
       mode="F"
       chamfer_steps="1"
       flexible="false"
       use_knot_distance="true"
       apply_no_radius="true"
       apply_with_radius="true"
       only_selected="false"
       hide_knots="false" /><clipPath
       clipPathUnits="userSpaceOnUse"
       id="clipPath6"><g
         inkscape:label="Clip"
         id="use6"
         style="stroke-width:1.18863"><ellipse
           style="fill:#ecaf14;fill-opacity:1;stroke:none;stroke-width:0;stroke-linecap:round;stroke-linejoin:round;stroke-dasharray:none;paint-order:stroke markers fill"
           id="ellipse6"
           cx="6.1743493"
           cy="5.7990546"
           rx="0.85619789"
           ry="0.44403717" /></g></clipPath><inkscape:path-effect
       effect="bspline"
       id="path-effect10-1"
       is_visible="true"
       lpeversion="1.3"
       weight="33.333333"
       steps="2"
       helper_size="0"
       apply_no_weight="true"
       apply_with_weight="true"
       only_selected="false"
       uniform="false" /><inkscape:path-effect
       effect="bspline"
       id="path-effect5-5"
       is_visible="true"
       lpeversion="1.3"
       weight="33.333333"
       steps="2"
       helper_size="0"
       apply_no_weight="true"
       apply_with_weight="true"
       only_selected="false"
       uniform="false" /></defs><g
     inkscape:label="Layer 1"
     inkscape:groupmode="layer"
     id="layer1"><rect
       style="fill:#000000;fill-opacity:1;stroke:none;stroke-width:0;stroke-linecap:butt;stroke-linejoin:round;stroke-dasharray:none;stroke-opacity:1;paint-order:normal"
       id="rect11-5-25-5"
       width="1.9176983"
       height="6.2477131"
       x="39.073135"
       y="-8.2049475"
       ry="1.08944"
       rx="1.0893989"
       transform="matrix(0.85808017,0.51351574,0.48660489,-0.87362216,0,0)" /><rect
       style="fill:#000000;fill-opacity:1;stroke:none;stroke-width:0;stroke-linecap:butt;stroke-linejoin:round;stroke-dasharray:none;stroke-opacity:1;paint-order:normal"
       id="rect11-5-2-4-9"
       width="1.9176983"
       height="6.2477131"
       x="-0.12673733"
       y="-31.246525"
       ry="1.08944"
       rx="1.0893989"
       transform="matrix(-0.85808017,0.51351574,-0.48660489,-0.87362216,0,0)" /><path
       sodipodi:type="star"
       style="fill:#ecaf14;fill-opacity:1;stroke:none;stroke-width:0;stroke-linecap:butt;stroke-linejoin:round;stroke-dasharray:none;stroke-opacity:1;paint-order:normal"
       id="path6-7-4"
       inkscape:flatsided="false"
       sodipodi:sides="6"
       sodipodi:cx="4.061543"
       sodipodi:cy="10.426284"
       sodipodi:r1="0.63373685"
       sodipodi:r2="1.2674737"
       sodipodi:arg1="-0.9898861"
       sodipodi:arg2="-0.46628732"
       inkscape:rounded="0.2"
       inkscape:randomized="0"
       d="m 4.4093283,9.896503 c 0.1313129,0.086203 0.7137586,-0.1803517 0.7843774,-0.040041 0.070619,0.1403105 -0.4904688,0.4493002 -0.4994664,0.6061222 -0.009,0.156822 0.5130684,0.527958 0.4268654,0.65927 -0.086203,0.131313 -0.6343402,-0.200108 -0.7746507,-0.129489 -0.1403105,0.07062 -0.2006902,0.708309 -0.357512,0.699312 -0.1568219,-0.009 -0.1438714,-0.649409 -0.2751843,-0.735612 -0.131313,-0.0862 -0.7137586,0.180351 -0.7843774,0.04004 -0.070619,-0.140311 0.4904688,-0.449301 0.4994663,-0.606123 0.009,-0.156822 -0.5130684,-0.5279569 -0.4268653,-0.6592698 0.086203,-0.131313 0.6343402,0.2001081 0.7746507,0.1294893 0.1403104,-0.070619 0.2006901,-0.7083089 0.357512,-0.6993114 0.1568218,0.009 0.1438714,0.6494089 0.2751843,0.7356119 z"
       inkscape:transform-center-x="-0.16467081"
       inkscape:transform-center-y="-0.12299708"
       transform="matrix(2.2643569,0,0,2.2643569,9.8793754,18.626653)" /><path
       sodipodi:type="star"
       style="fill:#ecaf14;fill-opacity:1;stroke:none;stroke-width:0;stroke-linecap:butt;stroke-linejoin:round;stroke-dasharray:none;stroke-opacity:1;paint-order:normal"
       id="path6-6-4-9"
       inkscape:flatsided="false"
       sodipodi:sides="6"
       sodipodi:cx="4.061543"
       sodipodi:cy="10.426284"
       sodipodi:r1="0.63373685"
       sodipodi:r2="1.2674737"
       sodipodi:arg1="-0.9898861"
       sodipodi:arg2="-0.46628732"
       inkscape:rounded="0.2"
       inkscape:randomized="0"
       d="m 4.4093283,9.896503 c 0.1313129,0.086203 0.7137586,-0.1803517 0.7843774,-0.040041 0.070619,0.1403105 -0.4904688,0.4493002 -0.4994664,0.6061222 -0.009,0.156822 0.5130684,0.527958 0.4268654,0.65927 -0.086203,0.131313 -0.6343402,-0.200108 -0.7746507,-0.129489 -0.1403105,0.07062 -0.2006902,0.708309 -0.357512,0.699312 -0.1568219,-0.009 -0.1438714,-0.649409 -0.2751843,-0.735612 -0.131313,-0.0862 -0.7137586,0.180351 -0.7843774,0.04004 -0.070619,-0.140311 0.4904688,-0.449301 0.4994663,-0.606123 0.009,-0.156822 -0.5130684,-0.5279569 -0.4268653,-0.6592698 0.086203,-0.131313 0.6343402,0.2001081 0.7746507,0.1294893 0.1403104,-0.070619 0.2006901,-0.7083089 0.357512,-0.6993114 0.1568218,0.009 0.1438714,0.6494089 0.2751843,0.7356119 z"
       inkscape:transform-center-x="0.16467333"
       inkscape:transform-center-y="-0.12299708"
       transform="matrix(-2.2643569,0,0,2.2643569,34.969366,18.626653)" /><rect
       style="fill:#000000;fill-opacity:1;stroke:none;stroke-width:0;stroke-linecap:round;stroke-linejoin:round;stroke-dasharray:none;paint-order:stroke markers fill"
       id="rect1-4-0"
       width="18.907553"
       height="22.058809"
       x="12.970593"
       y="20.17667"
       ry="5.2966633"
       rx="5.2966633" /><rect
       style="fill:#ffffff;fill-opacity:1;stroke:none;stroke-width:0;stroke-linecap:round;stroke-linejoin:round;stroke-dasharray:none;paint-order:stroke markers fill"
       id="rect1-5-3-9"
       width="6.3025174"
       height="16.544107"
       x="14.546225"
       y="21.752298"
       ry="3.8888683"
       rx="3.8888681" /><rect
       style="fill:#ffffff;fill-opacity:1;stroke:none;stroke-width:0;stroke-linecap:round;stroke-linejoin:round;stroke-dasharray:none;paint-order:stroke markers fill"
       id="rect1-5-2-0-1"
       width="6.3025174"
       height="16.544107"
       x="24"
       y="21.752298"
       ry="3.8888683"
       rx="3.8888681" /><rect
       style="fill:#ffffff;fill-opacity:1;stroke:none;stroke-width:0;stroke-linecap:round;stroke-linejoin:round;stroke-dasharray:none;paint-order:stroke markers fill"
       id="rect1-5-2-9-7-7"
       width="15.756293"
       height="13.392849"
       x="14.546176"
       y="25.690762"
       ry="3.8888683"
       rx="3.8888674" /><rect
       style="fill:#000000;fill-opacity:1;stroke:none;stroke-width:0;stroke-linecap:round;stroke-linejoin:round;stroke-dasharray:none;paint-order:stroke markers fill"
       id="rect1-5-2-97-8-1"
       width="3.1512587"
       height="3.1512587"
       x="20.84874"
       y="24.115744"
       ry="3.8888683"
       rx="3.8888681" /><rect
       style="fill:#ecaf14;fill-opacity:1;stroke:none;stroke-width:0;stroke-linecap:butt;stroke-linejoin:round;stroke-dasharray:none;stroke-opacity:1;paint-order:normal"
       id="rect7-8-5"
       width="3.0088608"
       height="3.0088608"
       x="-6.8793373"
       y="35.582546"
       transform="matrix(0.70712408,-0.70708948,0.70712408,0.70708948,0,0)"
       ry="0.85891384"
       rx="0.85891384" /><rect
       style="fill:#1e8053;fill-opacity:1;stroke:none;stroke-width:99.9995;stroke-linecap:round;stroke-linejoin:round;paint-order:stroke markers fill"
       id="rect2-4-9"
       width="26.669321"
       height="20.5"
       x="9.0897093"
       y="2.6309445"
       ry="3.1670964" /><path
       d="m 20.537225,18.264579 -5.153728,-5.153728 1.858407,-1.858407 3.295321,3.314479 7.069611,-7.069613 1.858407,1.839249 z"
       id="path1"
       style="fill:#ffffff;fill-opacity:1;stroke-width:0.025" /><path
       style="color:#000000;fill:#000000;stroke-linecap:round;stroke-linejoin:round;-inkscape-stroke:none;paint-order:stroke markers fill"
       d="M 4.0253906,15.708984 C 3.6958032,15.708983 3.3581105,15.815718 3.1054688,16.068359 2.6001821,16.573646 2.643187,17.323568 2.625,17.990234 A 0.375,0.375 0 0 0 2.9902344,18.375 0.375,0.375 0 0 0 3.375,18.009766 c 0.018187,-0.666667 0.098386,-1.25073 0.2597656,-1.41211 0.080691,-0.08069 0.2315847,-0.138672 0.390625,-0.138672 0.1590404,10e-7 0.3058572,0.05961 0.3808594,0.136719 0.075002,0.07711 0.1464712,0.244964 0.1816406,0.498047 C 4.62306,17.346833 4.625,17.666667 4.625,18 A 0.375,0.375 0 0 0 5,18.375 0.375,0.375 0 0 0 5.375,18 c 0,-0.333333 9.702e-4,-0.679521 -0.044922,-1.009766 C 5.284186,16.659989 5.1945564,16.3285 4.9453125,16.072266 4.6960687,15.816032 4.354978,15.708985 4.0253906,15.708984 Z"
       id="path5"
       transform="translate(23.151253,8.8466595)" /><path
       style="color:#000000;fill:#000000;stroke-linecap:round;stroke-linejoin:round;-inkscape-stroke:none;paint-order:stroke markers fill"
       d="M 4.0253906,15.708984 C 3.6958032,15.708983 3.3581105,15.815718 3.1054688,16.068359 2.6001821,16.573646 2.643187,17.323568 2.625,17.990234 A 0.375,0.375 0 0 0 2.9902344,18.375 0.375,0.375 0 0 0 3.375,18.009766 c 0.018187,-0.666667 0.098386,-1.25073 0.2597656,-1.41211 0.080691,-0.08069 0.2315847,-0.138672 0.390625,-0.138672 0.1590404,10e-7 0.3058572,0.05961 0.3808594,0.136719 0.075002,0.07711 0.1464712,0.244964 0.1816406,0.498047 C 4.62306,17.346833 4.625,17.666667 4.625,18 A 0.375,0.375 0 0 0 5,18.375 0.375,0.375 0 0 0 5.375,18 c 0,-0.333333 9.702e-4,-0.679521 -0.044922,-1.009766 C 5.284186,16.659989 5.1945564,16.3285 4.9453125,16.072266 4.6960687,15.816032 4.354978,15.708985 4.0253906,15.708984 Z"
       id="path5-2"
       transform="translate(13.697477,8.8466595)" /></g></svg>
