<svg xmlns="http://www.w3.org/2000/svg" height="20" viewBox="0 -960 960 960" width="20"><path d="M57-418q-28-45-42.5-90T0-600q0-108 76.5-186T264-864q61.644 0 117.322 25.5Q437-813 480-764q43-49 98.678-74.5T696-864q111 0 187.5 78T960-600q0 45-14.711 90.991Q930.579-463.018 903-419q-19-23-47-35.5T798-468q21.895-33 32.947-67.5Q842-570 842-600q0-59-42-102.5T696-746q-45 0-99 23T480-611q-63-88-117-111.5T264-746q-62 0-104 43.5T118-600q0 33 11.053 66 11.052 33 32.947 66-27 1-54.5 14T57-418ZM-16-16v-66q0-51.258 49.45-80.629Q82.9-192 168-192h8q-8 17-14 38.792-6 21.791-6 50.208v87H-16Zm240 0v-87q0-73.172 69.895-117.086T479.862-264Q596-264 666-220.086T736-103v87H224Zm580 0v-87q0-29.37-6-50.62-6-21.25-15-38.38h9q85.2 0 134.6 29.371Q976-133.258 976-82v66H804ZM168.089-236Q134-236 110-259.886t-24-57.939Q86-352 109.886-376t57.939-24Q202-400 226-376.15q24 23.849 24 58.061Q250-284 226.15-260q-23.849 24-58.061 24Zm624 0Q758-236 734-259.886t-24-57.939Q710-352 733.886-376t57.939-24Q826-400 850-376.15q24 23.849 24 58.061Q874-284 850.15-260q-23.849 24-58.061 24ZM480-287q-56.667 0-96.333-39.667Q344-366.333 344-423q0-56 39.667-96 39.666-40 96.333-40 56 0 96 40t40 96q0 56.667-40 96.333Q536-287 480-287Z"/></svg>