<svg xmlns="http://www.w3.org/2000/svg" height="40" viewBox="0 -960 960 960" width="40"><path d="M189-134q-72 0-121.971-50.023Q17.058-234.045 16-306.949q0-9.357.834-20.644Q17.667-338.88 21-349l84-337q16.841-62.129 67.348-101.398Q222.855-826.666 285-826.666h390q62.145 0 112.652 39.268Q838.159-748.129 856.333-686l84 336q2.333 10.735 3.833 21.864 1.5 11.129 1.5 22.11 0 72.618-51.317 122.322Q843.032-134 771.062-134q-50.395 0-92.562-26.167-42.166-26.167-63.833-70.833l-28-57.667q-.333-3-3.925-4.167Q579.151-294 575-294H385q-4.151 0-7.742 1.166-3.592 1.167-3.925 4.167l-28 57.667q-21.667 44.666-64.07 70.833Q238.86-134 189-134Zm2.775-105.999q19.285 0 34.366-10.149 15.082-10.149 23.526-26.518l28-57q14.312-30.712 43.358-48.523 29.047-17.81 63.975-17.81h190q34.852 0 63.5 18.424 28.648 18.424 45.499 47.909l28 57q7.778 16.369 22.86 26.518 15.081 10.149 34.641 10.149 27.911 0 48.136-18.467Q837.86-276.933 838.667-305q0-8.333-2.666-19.333l-84-335q-6.819-24.908-27.973-43.121-21.155-18.213-49.028-18.213H285q-27.288 0-49.235 17.814t-27.099 43.52l-84 335q1-.667-2.667 18.333 0 28.627 20.447 47.647 20.446 19.02 49.329 18.354Zm348.342-286.668q14.216 0 23.716-9.617 9.5-9.617 9.5-23.833 0-14.216-9.617-23.716-9.617-9.5-23.833-9.5-14.216 0-23.716 9.617-9.5 9.617-9.5 23.833 0 14.216 9.617 23.716 9.617 9.5 23.833 9.5Zm80-80q14.216 0 23.716-9.617 9.5-9.617 9.5-23.833 0-14.216-9.617-23.716-9.617-9.5-23.833-9.5-14.216 0-23.716 9.617-9.5 9.617-9.5 23.833 0 14.216 9.617 23.716 9.617 9.5 23.833 9.5Zm0 160q14.216 0 23.716-9.617 9.5-9.617 9.5-23.833 0-14.216-9.617-23.716-9.617-9.5-23.833-9.5-14.216 0-23.716 9.617-9.5 9.617-9.5 23.833 0 14.216 9.617 23.716 9.617 9.5 23.833 9.5Zm80-80q14.216 0 23.716-9.617 9.5-9.617 9.5-23.833 0-14.216-9.617-23.716-9.617-9.5-23.833-9.5-14.216 0-23.716 9.617-9.5 9.617-9.5 23.833 0 14.216 9.617 23.716 9.617 9.5 23.833 9.5Zm-360.039 63.334q11.589 0 19.089-7.556 7.5-7.555 7.5-19.111v-43.333H410q11.556 0 19.111-7.578 7.556-7.577 7.556-19.167 0-11.589-7.556-19.089-7.555-7.5-19.111-7.5h-43.333V-630q0-11.556-7.578-19.111-7.577-7.556-19.167-7.556-11.589 0-19.089 7.556-7.5 7.555-7.5 19.111v43.333H270q-11.556 0-19.111 7.578-7.556 7.577-7.556 19.167 0 11.589 7.556 19.089 7.555 7.5 19.111 7.5h43.333V-490q0 11.556 7.578 19.111 7.577 7.556 19.167 7.556ZM480-480Z"/></svg>