<svg xmlns="http://www.w3.org/2000/svg" height="40" viewBox="0 -960 960 960" width="40"><path d="M322-156.666h316v-114.667q0-66-46-111.667t-112-45.667q-66 0-112 45.667t-46 111.667v114.667Zm158-374.667q66 0 112-46t46-112.001v-114H322v114q0 66.001 46 112.001t112 46ZM132-52v-104.666h85.334v-114.667q0-64.334 31.333-119.834 31.334-55.5 85.334-88.833-54-34-85.334-89.5-31.333-55.5-31.333-119.834v-114H132v-105.333h696.667v105.333h-85.334v114q0 64.334-31.167 119.834T626.665-480q54.334 33.333 85.501 88.833t31.167 119.834v114.667h85.334V-52H132Z"/></svg>