<?xml version="1.0" encoding="UTF-8" standalone="no"?>
<!-- Created with Inkscape (http://www.inkscape.org/) -->

<svg
   width="268"
   height="108"
   version="1.1"
   viewBox="0 0 268 108"
   id="svg3"
   sodipodi:docname="logo_dark.svg"
   inkscape:version="1.3.2 (091e20ef0f, 2023-11-25)"
   xmlns:inkscape="http://www.inkscape.org/namespaces/inkscape"
   xmlns:sodipodi="http://sodipodi.sourceforge.net/DTD/sodipodi-0.dtd"
   xmlns="http://www.w3.org/2000/svg"
   xmlns:svg="http://www.w3.org/2000/svg">
  <defs
     id="defs3" />
  <sodipodi:namedview
     id="namedview3"
     pagecolor="#ffffff"
     bordercolor="#000000"
     borderopacity="0.25"
     inkscape:showpageshadow="2"
     inkscape:pageopacity="0.0"
     inkscape:pagecheckerboard="0"
     inkscape:deskcolor="#d1d1d1"
     inkscape:zoom="3.9552239"
     inkscape:cx="134"
     inkscape:cy="53.979245"
     inkscape:window-width="1920"
     inkscape:window-height="1011"
     inkscape:window-x="0"
     inkscape:window-y="0"
     inkscape:window-maximized="1"
     inkscape:current-layer="svg3" />
  <g
     stroke-linecap="round"
     stroke-linejoin="round"
     id="g3">
    <path
       d="m35.5 0c-3.0902 0-5.5 2.4098-5.5 5.5v72c0 0.38628 0.03745 0.76141 0.10938 1.123 0.07193 0.36164 0.17931 0.70882 0.31641 1.0391 0.1371 0.33024 0.30448 0.64346 0.5 0.93555 0.19552 0.29209 0.41884 0.56337 0.66602 0.81055s0.51846 0.4705 0.81055 0.66602c0.29209 0.19552 0.60531 0.3629 0.93555 0.5 0.33024 0.1371 0.67742 0.24448 1.0391 0.31641s0.73677 0.10938 1.123 0.10938h48c3.0902 0 5.5-2.4098 5.5-5.5v-72c0-3.0902-2.4098-5.5-5.5-5.5zm-10.5 12.939-7.9219 2.123c-2.9849 0.79981-4.6885 3.7514-3.8887 6.7363l1.5801 5.8926 10.23 38.186zm-14.715 17.342-7.1055 4.1016c-2.6762 1.5451-3.5588 4.8375-2.0137 7.5137l22.822 39.529zm20.309 56.475 1.2305 4.5898c0.79981 2.9849 3.7514 4.6885 6.7363 3.8887l27.002-7.2344h-30.062c-1.7728 0-3.4393-0.45796-4.9062-1.2441zm38.303 5.5273-29.043 7.7812c-1.7148 0.45948-3.444 0.44762-5.0664 0.0664l2.3789 4.1191c1.5451 2.6762 4.8374 3.5588 7.5137 2.0137z"
       color="#000000"
       fill="#d4131b"
       style="-inkscape-stroke:none"
       id="path1" />
    <path
       d="m148.67 27.939v13.611h-21.499v7.5787h15.467v12.915h-15.467v20.648h-17.168v-54.752zm51.968 11.136v43.616h-17.168v-6.6507q-2.0107 3.0933-5.4133 5.0267-3.3253 1.9333-7.9653 1.9333-7.5013 0-11.755-5.0267-4.176-5.0267-4.176-13.611v-25.288h17.091v23.123q0 3.0933 1.624 4.9493 1.7013 1.7787 4.4853 1.7787 2.8613 0 4.4853-1.7787 1.624-1.856 1.624-4.9493v-23.123zm16.395-3.48q-4.4853 0-7.192-2.3973-2.7067-2.3973-2.7067-6.032 0-3.712 2.7067-6.1093 2.7067-2.4747 7.192-2.4747 4.408 0 7.1147 2.4747 2.7067 2.3973 2.7067 6.1093 0 3.6347-2.7067 6.032-2.7067 2.3973-7.1147 2.3973zm8.5067 3.48v43.616h-17.168v-43.616zm24.205 29.387h18.173v14.229h-36.965v-13.456l16.627-15.931h-16.395v-14.229h35.96v13.456z"
       fill="#241f31"
       stroke-width="5"
       aria-label="Fuiz"
       id="path2"
       style="fill:#fffbf5;fill-opacity:1" />
    <text
       x="1963.125"
       y="642.33594"
       fill="#241f31"
       font-family="'Atkinson Hyperlegible'"
       font-size="82.667px"
       font-style="italic"
       letter-spacing="-1px"
       stroke-width="2"
       style="line-height:1.15"
       xml:space="preserve"
       id="text2"><tspan
         x="1963.125"
         y="642.33594"
         id="tspan2" /></text>
    <text
       x="588.23145"
       y="535.41321"
       fill="#63452c"
       font-family="'Atkinson Hyperlegible'"
       font-size="14.667px"
       letter-spacing="-.51705px"
       stroke-width="2"
       text-align="center"
       text-anchor="middle"
       style="line-height:1.15"
       xml:space="preserve"
       id="text3"><tspan
         x="588.23145"
         y="535.41321"
         fill="#63452c"
         font-family="'Atkinson Hyperlegible'"
         font-size="14.667px"
         stroke-width="2"
         text-align="center"
         text-anchor="middle"
         id="tspan3" /></text>
  </g>
</svg>
