<?xml version="1.0" encoding="UTF-8" standalone="no"?>
<!-- Created with Inkscape (http://www.inkscape.org/) -->

<svg
   width="24"
   height="24"
   viewBox="0 0 24 24"
   version="1.1"
   id="svg1"
   xmlns="http://www.w3.org/2000/svg"
   xmlns:svg="http://www.w3.org/2000/svg">
  <defs
     id="defs1" />
  <path
     d="m 12.887504,11.062 0.293,1.172 q -0.186,-0.068 -0.386,-0.097 a 2.864,2.864 0 0 0 -0.415,-0.03 q -0.83,0 -1.484,0.41 a 2.877,2.877 0 0 0 -1.0300004,1.128 3.494,3.494 0 0 0 -0.376,1.646 5.948,5.948 0 0 0 0.366,1.997 8.887,8.887 0 0 0 0.9470004,1.914 6.224,6.224 0 0 0 1.255,1.431 2.087,2.087 0 0 0 1.284,0.547 1.376,1.376 0 0 0 0.005,0 1.448,1.448 0 0 0 1.094,-0.591 4.465,4.465 0 0 0 0.82,-1.573 q 0.313,-0.981 0.313,-2.143 a 8.467,8.467 0 0 0 -0.025,-0.649 q -0.024,-0.318 -0.073,-0.621 l 1.191,-0.146 a 11.087,11.087 0 0 1 0.059,0.688 13.299,13.299 0 0 1 0.019,0.728 q 0,1.475 -0.463,2.7 a 5.125,5.125 0 0 1 -1.236,1.953 q -0.771,0.728 -1.699,0.728 a 3.002,3.002 0 0 1 -1.743,-0.63 q -0.884,-0.63 -1.6310004,-1.655 a 9.271,9.271 0 0 1 -1.201,-2.251 q -0.454,-1.226 -0.454,-2.427 0,-1.221 0.542,-2.183 A 4.076,4.076 0 0 1 10.324504,11.59 q 0.922,-0.557 2.055,-0.557 a 6.49,6.49 0 0 1 0.259,0.005 2.221,2.221 0 0 1 0.249,0.024 z m -2.432,-2.949 h 1.026 q 2.363,0.488 4.448,1.416 a 19.069,19.069 0 0 1 3.48,1.98 15.762,15.762 0 0 1 0.202,0.149 q 1.596,1.201 2.5,2.529 a 4.892,4.892 0 0 1 0.881,2.214 3.725,3.725 0 0 1 0.022,0.404 1.364,1.364 0 0 1 -0.513,1.142 2.231,2.231 0 0 1 -1.323,0.398 4.333,4.333 0 0 1 -0.146,0.003 6.448,6.448 0 0 1 -2.876,-0.723 q -1.46,-0.723 -2.857,-2.075 -1.396,-1.353 -2.632,-3.238 -1.235,-1.884 -2.212,-4.199 z M 3.6495036,18.836 q -1.182,0 -1.924,-1.143 a 4.808,4.808 0 0 1 -0.696,-2.12 8.113,8.113 0 0 1 -0.046,-0.888 7.479,7.479 0 0 1 0.429,-2.519 7.719,7.719 0 0 1 1.163,-2.158 5.915,5.915 0 0 1 1.665,-1.499 3.739,3.739 0 0 1 1.928,-0.552 3.997,3.997 0 0 1 1.988,0.517 4.312,4.312 0 0 1 1.494,1.368 q 0.5710004,0.849 0.5710004,1.855 a 5.55,5.55 0 0 1 -0.3910004,2.002 8.492,8.492 0 0 1 -1.054,1.934 q -0.664,0.918 -1.514,1.64 a 7.512,7.512 0 0 1 -1.782,1.143 4.438,4.438 0 0 1 -1.831,0.42 z m 5.722,-11.26 0.596,-0.781 a 16.555,16.555 0 0 0 3.1060004,-0.523 22.447,22.447 0 0 0 3.305,-1.162 q 1.685,-0.737 3.345,-1.772 a 2.425,2.425 0 0 1 1.117,-0.419 1.268,1.268 0 0 1 0.065,-10e-4 0.801,0.801 0 0 1 0.8,0.968 2.486,2.486 0 0 1 0,0.047 3.552,3.552 0 0 1 -0.6,1.91 q -0.601,0.952 -1.626,1.738 -1.026,0.786 -2.305,1.26 -1.279,0.473 -2.637,0.473 a 8.235,8.235 0 0 1 -2.636,-0.439 9.819,9.819 0 0 1 -2.5300004,-1.299 z m 11.7880004,9.697 q 0.4,0 0.541,-0.102 a 0.449,0.449 0 0 0 0.142,-0.386 3.575,3.575 0 0 0 -0.652,-1.946 5.763,5.763 0 0 0 -0.09,-0.134 9.102,9.102 0 0 0 -1.721,-1.819 13.232,13.232 0 0 0 -0.34,-0.271 17.393,17.393 0 0 0 -3.042,-1.85 q -1.723,-0.835 -3.686,-1.353 1.133,2.353 2.602,4.121 a 13.526,13.526 0 0 0 2.377,2.281 10.168,10.168 0 0 0 0.704,0.473 6.372,6.372 0 0 0 2.605,0.954 4.967,4.967 0 0 0 0.56,0.032 z m -8.252,-8.955 -0.616,0.977 a 33.528,33.528 0 0 1 -2.8810004,-1.333 34.423,34.423 0 0 1 -2.719,-1.572 23.216,23.216 0 0 1 -2.305,-1.675 11.466,11.466 0 0 1 -1.525,-1.5 7.617,7.617 0 0 1 -0.12,-0.151 l 1.347,-1.318 q 0.615,0.801 1.587,1.685 a 27.296,27.296 0 0 0 2.163,1.762 36.151,36.151 0 0 0 2.4900004,1.68 34.469,34.469 0 0 0 2.579,1.445 z m -9.2580004,9.444 a 3.383,3.383 0 0 0 1.479,-0.367 q 0.757,-0.366 1.455,-0.986 0.699,-0.62 1.255,-1.406 a 7.434,7.434 0 0 0 0.884,-1.641 4.641,4.641 0 0 0 0.327,-1.665 2.343,2.343 0 0 0 -0.4,-1.318 q -0.401,-0.606 -1.055,-0.977 -0.654,-0.371 -1.426,-0.371 -0.761,0 -1.479,0.469 a 4.859,4.859 0 0 0 -1.289,1.269 6.798,6.798 0 0 0 -0.908,1.812 6.611,6.611 0 0 0 -0.337,2.104 6.087,6.087 0 0 0 0.207,1.702 3.211,3.211 0 0 0 0.213,0.545 1.383,1.383 0 0 0 0.834,0.8 0.955,0.955 0 0 0 0.24,0.03 z m 16.4450004,-2.471 -0.605,0.625 q -1.778,-1.719 -3.858,-3.418 a 74.373,74.373 0 0 0 -4.492,-3.382 96.869,96.869 0 0 0 -0.01,-0.007 l 0.508,-0.722 q 2.441,1.709 4.551,3.432 a 60.467,60.467 0 0 1 3.906,3.472 z m -8.838,-7.676 0.01,-0.156 a 7.224,7.224 0 0 0 3.271,0.781 6.447,6.447 0 0 0 2.076,-0.351 8.046,8.046 0 0 0 1.914,-0.938 q 0.874,-0.586 1.425,-1.309 0.552,-0.722 0.611,-1.455 a 0.294,0.294 0 0 0 0.002,-0.032 0.066,0.066 0 0 0 -0.031,-0.07 0.051,0.051 0 0 0 -0.018,-0.003 0.266,0.266 0 0 0 -0.119,0.047 q -1.436,0.879 -2.608,1.499 a 21.031,21.031 0 0 1 -2.216,1.025 q -1.045,0.405 -2.09,0.635 -1.045,0.229 -2.227,0.327 z m -2.4710004,-0.586 0.997,0.391 a 35.839,35.839 0 0 1 -0.911,1.6 13.566,13.566 0 0 1 -0.74,1.11 3.285,3.285 0 0 1 -0.681,0.71 0.726,0.726 0 0 1 -0.403,0.154 0.467,0.467 0 0 1 -0.337,-0.151 q -0.151,-0.152 -0.151,-0.367 a 0.636,0.636 0 0 1 0.156,-0.4 56.232,56.232 0 0 0 1.057,-1.388 31.834,31.834 0 0 0 0.281,-0.389 6.782,6.782 0 0 0 0.675,-1.132 3.198,3.198 0 0 0 0.057,-0.138 z m 2.3830004,2.276 1.026,0.634 a 6.022,6.022 0 0 0 -0.093,0.474 1.681,1.681 0 0 0 -0.015,0.181 3.459,3.459 0 0 0 0.196,1.171 q 0.195,0.547 0.478,1.124 a 0.4,0.4 0 0 1 0.049,0.175 q 0,0.205 -0.191,0.381 a 0.572,0.572 0 0 1 -0.385,0.176 0.741,0.741 0 0 1 -0.559,-0.44 2.312,2.312 0 0 1 -0.017,-0.029 q -0.284,-0.469 -0.464,-1.167 -0.181,-0.698 -0.181,-1.391 0,-0.215 0.029,-0.494 a 10.64,10.64 0 0 1 0.127,-0.795 z"
     id="2-7"
     style="fill:#000000;stroke:#000000;stroke-width:0" />
</svg>
