<svg xmlns="http://www.w3.org/2000/svg" height="40" viewBox="0 -960 960 960" width="40"><path d="M480-50.667q-88.319 0-166.159-33.667Q236-118 176.667-177q-59.333-59-92.666-137.252-33.334-78.252-33.334-165.991 0-90.09 34.13-167.941 34.132-77.85 93.667-135.833Q238-842 317.323-876q79.322-34 169.248-34 84.913 0 161.697 28.972 76.784 28.971 134.924 80.666Q841.333-748.667 876-677.633q34.666 71.033 34.666 152.299 0 117.333-67.166 191.5-67.167 74.167-180.833 74.167H608q-13.001 0-21.501 9.262-8.5 9.262-8.5 21.643 0 19.429 9.334 28.929 9.333 9.5 9.333 32.5 0 49.333-33.7 83-33.7 33.666-82.966 33.666ZM480-480Zm-218.834 31.666q22.167 0 38-16.023 15.833-16.023 15.833-38.333T298.933-541q-16.067-16-37.267-16-23.333 0-38.833 16.023-15.5 16.024-15.5 38.334 0 22.309 15.5 38.309 15.5 16 38.333 16ZM380-608.001q23 0 38.833-15.499 15.833-15.5 15.833-38.334 0-23.499-15.833-38.666-15.833-15.167-38-15.167-23.5 0-38.666 15.4-15.167 15.4-15.167 37.6Q327-639 342.4-623.5q15.4 15.499 37.6 15.499Zm199.5 0q22.5 0 38.333-15.499 15.834-15.5 15.834-38.334 0-23.499-16.067-38.666-16.067-15.167-37.266-15.167-24 0-39.167 15.4-15.166 15.4-15.166 37.6 0 23.667 15.166 39.167 15.167 15.499 38.333 15.499Zm120.167 159.667q22.667 0 38.5-16.023Q754-480.38 754-502.69T738.167-541q-15.833-16-38-16-23.5 0-38.666 16.023-15.167 16.024-15.167 38.334 0 22.309 15.4 38.309 15.4 16 37.933 16Zm-224 291.668q6.083 0 10.708-3.16T491-171.708q0-13.625-15.167-24.958-15.166-11.333-15.166-48.334 0-48.5 32.805-84.583 32.806-36.084 81.185-36.084h88.01q69.333 0 105.333-42T804-519q0-129.759-96.264-207.047-96.264-77.287-220.82-77.287-138.469 0-234.36 94.183-95.89 94.183-95.89 229.392 0 134.759 93.474 228.926 93.475 94.167 225.527 94.167Z"/></svg>