<?xml version="1.0" encoding="UTF-8" standalone="no"?>
<!-- Created with Inkscape (http://www.inkscape.org/) -->

<svg
   width="48"
   height="48"
   viewBox="0 0 48 48"
   version="1.1"
   id="svg1"
   sodipodi:docname="waiting.svg"
   inkscape:version="1.3 (0e150ed6c4, 2023-07-21)"
   xmlns:inkscape="http://www.inkscape.org/namespaces/inkscape"
   xmlns:sodipodi="http://sodipodi.sourceforge.net/DTD/sodipodi-0.dtd"
   xmlns="http://www.w3.org/2000/svg"
   xmlns:svg="http://www.w3.org/2000/svg">
  <sodipodi:namedview
     id="namedview1"
     pagecolor="#ffffff"
     bordercolor="#000000"
     borderopacity="0.25"
     inkscape:showpageshadow="2"
     inkscape:pageopacity="0.0"
     inkscape:pagecheckerboard="0"
     inkscape:deskcolor="#d1d1d1"
     inkscape:document-units="px"
     showguides="false"
     inkscape:zoom="11.313709"
     inkscape:cx="31.863999"
     inkscape:cy="28.416854"
     inkscape:window-width="1920"
     inkscape:window-height="1011"
     inkscape:window-x="0"
     inkscape:window-y="0"
     inkscape:window-maximized="1"
     inkscape:current-layer="layer1" />
  <defs
     id="defs1">
    <inkscape:path-effect
       effect="fillet_chamfer"
       id="path-effect12"
       is_visible="true"
       lpeversion="1"
       nodesatellites_param="F,0,0,1,0,1.3835449,0,1 @ F,0,0,1,0,1.3835449,0,1 @ F,0,0,1,0,1.3835449,0,1 @ F,0,0,1,0,1.3835449,0,1"
       radius="1.3835449"
       unit="px"
       method="auto"
       mode="F"
       chamfer_steps="1"
       flexible="false"
       use_knot_distance="true"
       apply_no_radius="true"
       apply_with_radius="true"
       only_selected="false"
       hide_knots="false" />
    <inkscape:path-effect
       effect="bspline"
       id="path-effect10"
       is_visible="true"
       lpeversion="1.3"
       weight="33.333333"
       steps="2"
       helper_size="0"
       apply_no_weight="true"
       apply_with_weight="true"
       only_selected="false"
       uniform="false" />
    <inkscape:path-effect
       effect="bspline"
       id="path-effect3"
       is_visible="true"
       lpeversion="1.3"
       weight="33.333333"
       steps="2"
       helper_size="0"
       apply_no_weight="true"
       apply_with_weight="true"
       only_selected="false"
       uniform="false" />
    <inkscape:path-effect
       effect="fillet_chamfer"
       id="path-effect2"
       is_visible="true"
       lpeversion="1"
       nodesatellites_param="F,0,0,1,0,1.2197076,0,1 @ F,0,0,1,0,1.2197076,0,1 @ F,0,0,1,0,1.2197076,0,1 @ F,0,0,1,0,1.2197076,0,1"
       radius="4.6099185"
       unit="px"
       method="auto"
       mode="F"
       chamfer_steps="1"
       flexible="false"
       use_knot_distance="true"
       apply_no_radius="true"
       apply_with_radius="true"
       only_selected="false"
       hide_knots="false" />
    <clipPath
       clipPathUnits="userSpaceOnUse"
       id="clipPath6">
      <g
         inkscape:label="Clip"
         id="use6"
         style="stroke-width:1.18863">
        <ellipse
           style="fill:#ecaf14;fill-opacity:1;stroke:none;stroke-width:0;stroke-linecap:round;stroke-linejoin:round;stroke-dasharray:none;paint-order:stroke markers fill"
           id="ellipse6"
           cx="6.1743493"
           cy="5.7990546"
           rx="0.85619789"
           ry="0.44403717" />
      </g>
    </clipPath>
    <inkscape:path-effect
       effect="bspline"
       id="path-effect10-1"
       is_visible="true"
       lpeversion="1.3"
       weight="33.333333"
       steps="2"
       helper_size="0"
       apply_no_weight="true"
       apply_with_weight="true"
       only_selected="false"
       uniform="false" />
  </defs>
  <g
     inkscape:label="Layer 1"
     inkscape:groupmode="layer"
     id="layer1">
    <rect
       style="fill:#656565;fill-opacity:1;stroke:none;stroke-width:0;stroke-linecap:butt;stroke-linejoin:round;stroke-dasharray:none;stroke-opacity:1;paint-order:normal"
       id="rect8"
       width="44"
       height="8"
       x="2"
       y="38"
       ry="2" />
    <rect
       style="fill:#000000;fill-opacity:1;stroke:none;stroke-width:0;stroke-linecap:butt;stroke-linejoin:round;stroke-dasharray:none;stroke-opacity:1;paint-order:normal"
       id="rect9"
       width="4"
       height="28"
       x="36"
       y="14"
       ry="1.0079266"
       rx="1.0079266" />
    <rect
       style="fill:#d4131b;fill-opacity:1;stroke:none;stroke-width:0;stroke-linecap:butt;stroke-linejoin:round;stroke-dasharray:none;stroke-opacity:1;paint-order:normal"
       id="rect10"
       width="16"
       height="16"
       x="30"
       y="2"
       ry="1.2257965"
       rx="1.2257965" />
    <path
       d="m 38,14.20706 -0.664876,-0.605267 c -2.361455,-2.141358 -3.920475,-3.558232 -3.920475,-5.2869095 0,-1.416874 1.109656,-2.521943 2.521942,-2.521943 0.797852,0 1.563606,0.371415 2.063409,0.953753 0.499805,-0.58234 1.26556,-0.953753 2.063411,-0.953753 1.412287,0 2.52194,1.105069 2.52194,2.521943 0,1.7286775 -1.559019,3.1455515 -3.920477,5.2869095 z"
       id="path1"
       style="fill:#ffffff;stroke-width:0.264583" />
    <rect
       style="fill:#000000;fill-opacity:1;stroke:none;stroke-width:0;stroke-linecap:butt;stroke-linejoin:round;stroke-dasharray:none;stroke-opacity:1;paint-order:normal"
       id="rect11-5"
       width="2.4341998"
       height="7.9304347"
       x="9.030899"
       y="36.532673"
       ry="1.3828633"
       rx="1.3828111"
       transform="matrix(0.85808017,-0.51351575,0.48660491,0.87362215,0,0)" />
    <rect
       style="fill:#000000;fill-opacity:1;stroke:none;stroke-width:0;stroke-linecap:butt;stroke-linejoin:round;stroke-dasharray:none;stroke-opacity:1;paint-order:normal"
       id="rect11-5-2"
       width="2.4341998"
       height="7.9304347"
       x="-19.812693"
       y="19.578386"
       ry="1.3828633"
       rx="1.3828111"
       transform="matrix(-0.85808017,-0.51351575,-0.48660491,0.87362215,0,0)" />
    <path
       sodipodi:type="star"
       style="fill:#ecaf14;fill-opacity:1;stroke:none;stroke-width:0;stroke-linecap:butt;stroke-linejoin:round;stroke-dasharray:none;stroke-opacity:1;paint-order:normal"
       id="path6"
       inkscape:flatsided="false"
       sodipodi:sides="6"
       sodipodi:cx="4.061543"
       sodipodi:cy="10.426284"
       sodipodi:r1="0.63373685"
       sodipodi:r2="1.2674737"
       sodipodi:arg1="-0.9898861"
       sodipodi:arg2="-0.46628732"
       inkscape:rounded="0.2"
       inkscape:randomized="0"
       d="m 4.4093283,9.896503 c 0.1313129,0.086203 0.7137586,-0.1803517 0.7843774,-0.040041 0.070619,0.1403105 -0.4904688,0.4493002 -0.4994664,0.6061222 -0.009,0.156822 0.5130684,0.527958 0.4268654,0.65927 -0.086203,0.131313 -0.6343402,-0.200108 -0.7746507,-0.129489 -0.1403105,0.07062 -0.2006902,0.708309 -0.357512,0.699312 -0.1568219,-0.009 -0.1438714,-0.649409 -0.2751843,-0.735612 -0.131313,-0.0862 -0.7137586,0.180351 -0.7843774,0.04004 -0.070619,-0.140311 0.4904688,-0.449301 0.4994663,-0.606123 0.009,-0.156822 -0.5130684,-0.5279569 -0.4268653,-0.6592698 0.086203,-0.131313 0.6343402,0.2001081 0.7746507,0.1294893 0.1403104,-0.070619 0.2006901,-0.7083089 0.357512,-0.6993114 0.1568218,0.009 0.1438714,0.6494089 0.2751843,0.7356119 z"
       inkscape:transform-center-x="-0.16467081"
       inkscape:transform-center-y="-0.12299708"
       transform="matrix(2.8742253,0,0,2.8742253,0.57627059,10.032511)" />
    <path
       sodipodi:type="star"
       style="fill:#ecaf14;fill-opacity:1;stroke:none;stroke-width:0;stroke-linecap:butt;stroke-linejoin:round;stroke-dasharray:none;stroke-opacity:1;paint-order:normal"
       id="path6-6"
       inkscape:flatsided="false"
       sodipodi:sides="6"
       sodipodi:cx="4.061543"
       sodipodi:cy="10.426284"
       sodipodi:r1="0.63373685"
       sodipodi:r2="1.2674737"
       sodipodi:arg1="-0.9898861"
       sodipodi:arg2="-0.46628732"
       inkscape:rounded="0.2"
       inkscape:randomized="0"
       d="m 4.4093283,9.896503 c 0.1313129,0.086203 0.7137586,-0.1803517 0.7843774,-0.040041 0.070619,0.1403105 -0.4904688,0.4493002 -0.4994664,0.6061222 -0.009,0.156822 0.5130684,0.527958 0.4268654,0.65927 -0.086203,0.131313 -0.6343402,-0.200108 -0.7746507,-0.129489 -0.1403105,0.07062 -0.2006902,0.708309 -0.357512,0.699312 -0.1568219,-0.009 -0.1438714,-0.649409 -0.2751843,-0.735612 -0.131313,-0.0862 -0.7137586,0.180351 -0.7843774,0.04004 -0.070619,-0.140311 0.4904688,-0.449301 0.4994663,-0.606123 0.009,-0.156822 -0.5130684,-0.5279569 -0.4268653,-0.6592698 0.086203,-0.131313 0.6343402,0.2001081 0.7746507,0.1294893 0.1403104,-0.070619 0.2006901,-0.7083089 0.357512,-0.6993114 0.1568218,0.009 0.1438714,0.6494089 0.2751843,0.7356119 z"
       inkscape:transform-center-x="0.16467333"
       inkscape:transform-center-y="-0.12299708"
       transform="matrix(-2.8742253,0,0,2.8742253,32.42385,10.032511)" />
    <rect
       style="fill:#000000;fill-opacity:1;stroke:none;stroke-width:0;stroke-linecap:round;stroke-linejoin:round;stroke-dasharray:none;paint-order:stroke markers fill"
       id="rect1"
       width="24"
       height="28"
       x="4.5000601"
       y="12"
       ry="6.7232351"
       rx="6.7232351" />
    <rect
       style="fill:#ffffff;fill-opacity:1;stroke:none;stroke-width:0;stroke-linecap:round;stroke-linejoin:round;stroke-dasharray:none;paint-order:stroke markers fill"
       id="rect1-5"
       width="8"
       height="21"
       x="6.5000601"
       y="14"
       ry="4.9362731"
       rx="4.9362726" />
    <rect
       style="fill:#ffffff;fill-opacity:1;stroke:none;stroke-width:0;stroke-linecap:round;stroke-linejoin:round;stroke-dasharray:none;paint-order:stroke markers fill"
       id="rect1-5-2"
       width="8"
       height="21"
       x="18.500061"
       y="14"
       ry="4.9362731"
       rx="4.9362726" />
    <rect
       style="fill:#ffffff;fill-opacity:1;stroke:none;stroke-width:0;stroke-linecap:round;stroke-linejoin:round;stroke-dasharray:none;paint-order:stroke markers fill"
       id="rect1-5-2-9"
       width="20"
       height="17"
       x="6.5"
       y="18.999226"
       ry="4.9362731"
       rx="4.9362721" />
    <rect
       style="fill:#000000;fill-opacity:1;stroke:none;stroke-width:0;stroke-linecap:butt;stroke-linejoin:round;stroke-dasharray:none;stroke-opacity:1;paint-order:normal"
       id="rect6"
       width="3"
       height="4.5"
       x="9.0000601"
       y="17"
       ry="2.0037529"
       rx="2.0037529" />
    <rect
       style="fill:#000000;fill-opacity:1;stroke:none;stroke-width:0;stroke-linecap:butt;stroke-linejoin:round;stroke-dasharray:none;stroke-opacity:1;paint-order:normal"
       id="rect6-7"
       width="3"
       height="4.5"
       x="21.000061"
       y="17"
       ry="2.0037529"
       rx="2.0037529" />
    <rect
       style="fill:#000000;fill-opacity:1;stroke:none;stroke-width:0;stroke-linecap:round;stroke-linejoin:round;stroke-dasharray:none;paint-order:stroke markers fill"
       id="rect1-5-2-97"
       width="4"
       height="4"
       x="14.50006"
       y="17"
       ry="4.9362731"
       rx="4.9362726" />
    <rect
       style="fill:#ecaf14;fill-opacity:1;stroke:none;stroke-width:0;stroke-linecap:butt;stroke-linejoin:round;stroke-dasharray:none;stroke-opacity:1;paint-order:normal"
       id="rect7"
       width="3.8192494"
       height="3.8192494"
       x="-7.5671458"
       y="27.081934"
       transform="matrix(0.70712408,-0.70708948,0.70712408,0.70708948,0,0)"
       ry="1.0902486"
       rx="1.0902486" />
  </g>
</svg>
