<svg xmlns="http://www.w3.org/2000/svg" height="24" viewBox="0 -960 960 960" width="24"><path d="M120-103q-18 0-32.087-8.8Q73.826-120.6 66-135q-8-14-8.5-30.597T66-198l359-622q9-16 24.103-23.5 15.102-7.5 31-7.5Q496-851 511-843.5q15 7.5 24 23.5l359 622q9 15.806 8.5 32.403T894-135q-8 14-22 23t-32 9H120Zm83-111h554L480-692 203-214Zm277-29q18 0 31.5-13.5T525-288q0-18-13.5-31T480-332q-18 0-31.5 13T435-288q0 18 13.5 31.5T480-243Zm0-117q17 0 28.5-11.5T520-400v-109q0-17-11.5-28.5T480-549q-17 0-28.5 11.5T440-509v109q0 17 11.5 28.5T480-360Zm0-93Z"/></svg>