<?xml version="1.0" encoding="UTF-8" standalone="no"?>
<!-- Created with Inkscape (http://www.inkscape.org/) -->

<svg
   width="24"
   height="24"
   viewBox="0 0 24 24"
   version="1.1"
   id="svg1"
   xmlns="http://www.w3.org/2000/svg"
   xmlns:svg="http://www.w3.org/2000/svg">
  <defs
     id="defs1" />
  <path
     d="m 13.347141,16.394695 0.508,-0.839 c 0.787024,0.492713 1.698503,0.750161 2.627,0.742 0.882616,0.0095 1.750887,-0.22361 2.51,-0.674 0.755333,-0.449333 1.357667,-1.051667 1.807,-1.807 0.449863,-0.758923 0.682662,-1.626817 0.673,-2.509 0.01076,-0.885792 -0.222049,-1.7575137 -0.673,-2.5199997 -0.449333,-0.755333 -1.05,-1.357667 -1.802,-1.807 -0.760507,-0.45131 -1.630733,-0.684178 -2.515,-0.673 -0.667072,-0.0047 -1.328139,0.126245 -1.943,0.385 -0.59686,0.251205 -1.139238,0.615961 -1.597,1.074 -0.458039,0.457762 -0.822795,1.00014 -1.074,1.597 -0.259231,0.615099 -0.390563,1.2765217 -0.386,1.9439997 h -1.074 c 0,-0.820667 0.158,-1.5923327 0.474,-2.3149997 0.309136,-0.713078 0.753295,-1.359622 1.308,-1.904 0.559024,-0.548395 1.216983,-0.98579 1.939,-1.289 0.744407,-0.314302 1.544976,-0.473871 2.353,-0.469 0.812064,-0.0067 1.617234,0.149417 2.368,0.459 0.719746,0.297415 1.374876,0.731791 1.929,1.279 0.552126,0.545015 0.993276,1.191966 1.299,1.905 0.312667,0.722667 0.469,1.5006667 0.469,2.3339997 0,0.826667 -0.156333,1.601333 -0.469,2.324 -0.305837,0.712677 -0.74698,1.359281 -1.299,1.904 -0.554124,0.547209 -1.209254,0.981585 -1.929,1.279 -0.750766,0.309583 -1.555936,0.465653 -2.368,0.459 -0.553333,0 -1.098667,-0.07633 -1.636,-0.229 -0.526513,-0.148581 -1.030686,-0.367202 -1.499,-0.65 z m -5.5860002,5.86 c -0.891333,0 -1.719667,-0.156333 -2.485,-0.469 -0.748708,-0.301669 -1.430682,-0.747823 -2.007,-1.313 -0.572439,-0.562419 -1.027267,-1.233103 -1.338,-1.973 -0.32328,-0.774566 -0.4859,-1.606715 -0.478,-2.446 -0.008,-0.839622 0.154587,-1.672124 0.478,-2.447 0.310848,-0.73954 0.76567,-1.409875 1.338,-1.972 0.576864,-0.565993 1.258594,-1.014026 2.007,-1.319 0.765333,-0.315333 1.593667,-0.4729997 2.485,-0.4729997 0.892,0 1.719,0.1576667 2.4810002,0.4729997 0.761333,0.316 1.428667,0.755667 2.002,1.319 0.57233,0.562125 1.027152,1.23246 1.338,1.972 0.322752,0.771572 0.485375,1.600676 0.478,2.437 0.0079,0.839285 -0.15472,1.671434 -0.478,2.446 -0.310733,0.739897 -0.765561,1.410581 -1.338,1.973 -0.573333,0.563333 -1.240667,1.002667 -2.002,1.318 -0.7620002,0.316 -1.5890002,0.474 -2.4810002,0.474 z m -2.451,-11.377 -0.82,0.664 c -0.454614,-0.499306 -0.812367,-1.078833 -1.055,-1.7089997 -0.247333,-0.638 -0.371,-1.302 -0.371,-1.992 0,-0.762 0.148333,-1.476667 0.445,-2.144 0.290104,-0.658849 0.704304,-1.255705 1.22,-1.758 0.518,-0.504 1.113667,-0.897667 1.787,-1.181 0.68214,-0.284991 1.414734,-0.429538 2.154,-0.425 0.872,0 1.6906672,0.187 2.4560002,0.561 0.764667,0.374667 1.415667,0.887667 1.953,1.539 0.533231,0.643272 0.900316,1.40766 1.069,2.226 l -1.055,0.215 c -0.149333,-0.696667 -0.439,-1.312 -0.869,-1.846 -0.424003,-0.529442 -0.958883,-0.959531 -1.567,-1.26 -0.617261,-0.306462 -1.2978652,-0.463682 -1.9870002,-0.459 -0.801867,-0.0085 -1.590743,0.202823 -2.281,0.611 -0.686667,0.406667 -1.233333,0.953333 -1.64,1.64 -0.408177,0.690257 -0.619489,1.479133 -0.611,2.281 -0.01765,1.125959 0.402543,2.2147897 1.172,3.0369997 z m 2.451,10.4 c 0.964,0 1.839667,-0.236 2.6270002,-0.708 0.77886,-0.462851 1.428797,-1.114163 1.89,-1.894 0.473296,-0.795639 0.718258,-1.706287 0.708,-2.632 0,-0.957333 -0.234333,-1.831333 -0.703,-2.622 -0.459204,-0.781646 -1.10957,-1.433733 -1.89,-1.895 -0.7956392,-0.473296 -1.7062872,-0.718258 -2.6320002,-0.708 -0.925375,-0.01007 -1.835652,0.234881 -2.631,0.708 -0.791333,0.472 -1.423,1.103667 -1.895,1.895 -0.473296,0.795639 -0.718258,1.706287 -0.708,2.632 -0.01007,0.925375 0.234881,1.835652 0.708,2.631 0.461267,0.78043 1.113354,1.430796 1.895,1.89 0.790667,0.468667 1.667667,0.703 2.631,0.703 z m 10.3720002,-9.502 c -0.338667,0 -0.654667,-0.13 -0.948,-0.39 -0.292667,-0.260667 -0.475,-0.547333 -0.547,-0.86 -0.45865,0.0097 -0.906688,-0.138604 -1.269,-0.42 -0.358,-0.2799997 -0.537,-0.5956667 -0.537,-0.9469997 -7.42e-4,-0.454934 0.428554,-0.787898 0.869,-0.674 -0.04533,-0.175333 -0.078,-0.338 -0.098,-0.488 -0.01846,-0.135902 -0.02815,-0.272852 -0.029,-0.41 -0.102847,-0.425511 0.22639,-0.832594 0.664,-0.821 0.248208,0.0046 0.489441,0.0829 0.693,0.225 0.228,0.15 0.423333,0.352 0.586,0.606 0.168668,-0.130571 0.350285,-0.243495 0.542,-0.337 0.12081,-0.05748 0.25227,-0.08915 0.386,-0.093 0.266667,0 0.48,0.133333 0.64,0.4 0.180441,0.346979 0.275732,0.731914 0.278,1.123 0.286667,0.046 0.545333,0.176333 0.776,0.391 0.193785,0.145507 0.319252,0.364262 0.347,0.605 -0.03331,0.26576 -0.22103,0.4864727 -0.478,0.5619997 -0.319333,0.152667 -0.687333,0.229 -1.104,0.229 0.02659,0.344614 -0.03898,0.690098 -0.19,1.001 -0.124919,0.197758 -0.347507,0.311925 -0.581,0.298 z m -12.7100002,4.356 c 0.150635,0.111966 0.334362,0.170393 0.522,0.166 0.247333,0 0.516,-0.07333 0.806,-0.22 0.285246,-0.142559 0.52905,-0.356059 0.708,-0.62 0.420177,0.01687 0.827963,-0.144356 1.123,-0.444 0.286,-0.296667 0.429,-0.588 0.429,-0.874 0,-0.176 -0.06333,-0.327667 -0.19,-0.455 -0.173544,-0.142579 -0.396368,-0.210864 -0.62,-0.19 0.0072,-0.05176 0.01222,-0.10381 0.015,-0.156 0.0034,-0.07828 0.0047,-0.156645 0.004,-0.235 0,-0.442667 -0.07467,-0.808667 -0.224,-1.098 -0.07966,-0.236751 -0.288868,-0.406218 -0.537,-0.435 -0.217622,0.01993 -0.413198,0.141051 -0.528,0.327 -0.169333,0.218 -0.296,0.473667 -0.38,0.767 -0.098,-0.169333 -0.233333,-0.312667 -0.406,-0.43 -0.139716,-0.105759 -0.307997,-0.167079 -0.483,-0.176 -0.159868,-0.0013 -0.311995,0.06873 -0.415,0.191 -0.114,0.126667 -0.171,0.287667 -0.171,0.483 0,0.260667 0.078,0.540667 0.234,0.84 -0.30728,0.01974 -0.602992,0.12466 -0.854,0.303 -0.169765,0.115342 -0.276209,0.303098 -0.288,0.508 0.01078,0.196091 0.111537,0.376207 0.273,0.488 0.244422,0.17373 0.531137,0.278398 0.83,0.303 -0.01933,0.078 -0.03567,0.152667 -0.049,0.224 -0.01267,0.072 -0.019,0.140333 -0.019,0.205 0,0.241333 0.07333,0.417333 0.22,0.528 z m 1.313,-13.0759997 v 0.39 l -2.275,1.66 c -0.115751,-0.06491 -0.243853,-0.104777 -0.376,-0.117 -0.182303,-0.03176 -0.366952,-0.04815 -0.552,-0.049 -0.28629,0.0012 -0.570305,0.05094 -0.84,0.147 -0.0141,-0.23315 0.063,-0.462649 0.215,-0.64 0.143333,-0.152667 0.307667,-0.268333 0.493,-0.347 0.163265,-0.06826 0.325938,-0.137929 0.488,-0.209 0.113013,-0.02868 0.196571,-0.12418 0.21,-0.24 -0.0021,-0.07283 -0.01352,-0.145082 -0.034,-0.215 -0.02327,-0.08911 -0.0347,-0.180902 -0.034,-0.273 0,-0.214667 0.078,-0.393667 0.234,-0.537 0.156667,-0.143333 0.342333,-0.215 0.557,-0.215 0.15741,-0.0033 0.31216,0.04094 0.444,0.127 0.08895,0.07 0.195564,0.113963 0.308,0.127 0.130589,-0.01881 0.240777,-0.106805 0.288,-0.23 0.09687,-0.165045 0.21156,-0.318965 0.342,-0.459 0.154251,-0.158756 0.370052,-0.242375 0.591,-0.229 0.116667,0 0.233667,0.02933 0.351,0.088 -0.289648,0.338537 -0.436631,0.776259 -0.41,1.221 z M 17.683141,10.252695 c 0.28,0 0.511333,-0.08467 0.694,-0.2539997 0.182,-0.169333 0.273,-0.384333 0.273,-0.645 -5.59e-4,-0.300908 -0.13019,-0.587115 -0.356,-0.786 -0.225796,-0.22 -0.529776,-0.341232 -0.845,-0.337 -0.256663,-0.0062 -0.505499,0.08862 -0.693,0.264 -0.189333,0.176 -0.284,0.394 -0.284,0.654 0.002,0.297875 0.134295,0.579948 0.362,0.772 0.229184,0.2166627 0.533636,0.3357177 0.849,0.3319997 z m -11.7670002,4.453 c -0.178933,-0.154352 -0.282167,-0.378693 -0.283,-0.615 -0.0036,-0.251986 0.103495,-0.492874 0.293,-0.659 0.190583,-0.177439 0.44265,-0.273891 0.703,-0.269 0.2489,-0.0065 0.490461,0.08467 0.673,0.254 0.182667,0.169333 0.274,0.377667 0.274,0.625 -4.8e-4,0.248254 -0.107114,0.48445 -0.293,0.649 -0.187868,0.182846 -0.440876,0.283258 -0.703,0.279 -0.254,0 -0.475333,-0.088 -0.664,-0.264 z"
     id="1"
     vector-effect="non-scaling-stroke"
     style="fill:#000000;stroke:#000000;stroke-width:0" />
</svg>
