<?xml version="1.0" encoding="UTF-8" standalone="no"?>
<!-- Created with Inkscape (http://www.inkscape.org/) -->

<svg
   width="24"
   height="24"
   viewBox="0 0 24 24"
   version="1.1"
   id="svg1"
   xmlns="http://www.w3.org/2000/svg"
   xmlns:svg="http://www.w3.org/2000/svg">
  <defs
     id="defs1" />
  <path
     d="m 3.9328832,16.267016 0.665,-0.625 a 6.226,6.226 0 0 0 0.629,-0.659 2.127,2.127 0 0 0 0.347,-0.62 3.556,3.556 0 0 1 -1.841,-1.167 4.598,4.598 0 0 1 -1.04,-1.987 2.102,2.102 0 0 1 -0.561,-0.733 2.125,2.125 0 0 1 -0.201,-0.9080001 2.047,2.047 0 0 1 0.401,-1.24 3.772,3.772 0 0 1 -0.527,-1.924 3.515,3.515 0 0 1 0.546,-1.919 q 0.547,-0.864 1.441,-1.377 0.893,-0.512 1.919,-0.512 h 0.097 a 0.363,0.363 0 0 1 0.088,0.009 2.797,2.797 0 0 1 1.973,-0.761 2.855,2.855 0 0 1 1.934,0.732 2.468,2.468 0 0 1 0.161,-0.015 2.745,2.745 0 0 1 0.1609998,-0.004 2.082,2.082 0 0 1 1.357,0.488 q 0.401,-0.606 1.05,-0.952 a 2.911,2.911 0 0 1 1.392,-0.347 2.867,2.867 0 0 1 1.347,0.332 q 0.43,-0.205 0.909,-0.205 a 2.345,2.345 0 0 1 1.044,0.244 2.47,2.47 0 0 1 0.84,0.664 1.922,1.922 0 0 1 0.42,0.947 2.025,2.025 0 0 1 1.421,0.664 2.064,2.064 0 0 1 0.591,1.465 1.911,1.911 0 0 1 -0.068,0.518 3.761,3.761 0 0 1 0.498,1.885 3.763,3.763 0 0 1 -0.201,1.215 3.77,3.77 0 0 1 -0.571,1.0800001 q 0.928,0.449 1.485,1.377 a 3.983,3.983 0 0 1 0.556,2.089 3.492,3.492 0 0 1 -0.063,0.694 q -0.064,0.312 -0.171,0.634 a 4.778,4.778 0 0 1 0.049,0.323 2.839,2.839 0 0 1 0.019,0.332 2.737,2.737 0 0 1 -0.317,1.269 3.483,3.483 0 0 1 -0.845,1.065 q -0.527,0.449 -1.182,0.615 a 2.81,2.81 0 0 1 -1.001,0.786 2.887,2.887 0 0 1 -1.245,0.278 q -0.674,0 -1.269,-0.283 a 2.92,2.92 0 0 1 -1.27,0.283 q -0.693,0 -1.318,-0.312 -0.625,-0.313 -1.035,-0.859 a 3.259,3.259 0 0 1 -1.172,-0.206 2.893,2.893 0 0 1 -0.908,-0.537 13.912,13.912 0 0 0 -0.8009998,0.762 11.608,11.608 0 0 0 -1.055,1.265 q -0.498,0.688 -0.957,1.489 -0.166,0.293 -0.469,0.464 -0.302,0.171 -0.644,0.171 a 2.501,2.501 0 0 1 -1.22,-0.397 4.851,4.851 0 0 1 -0.006,-0.004 q -0.688,-0.4 -1.333,-1.015 a 6.975,6.975 0 0 1 -1.064,-1.27 2.273,2.273 0 0 1 -0.42,-1.13 1.245,1.245 0 0 1 0,-0.032 q 0,-0.449 0.322,-0.923 0.322,-0.473 1.113,-1.216 z m 11.0449998,-2.46 -1.816,0.478 q -0.147,0.039 -0.483,0.093 a 20.618,20.618 0 0 1 -0.689,0.097 4.684,4.684 0 0 1 -0.537,0.044 2.302,2.302 0 0 1 0.117,-0.712 1.913,1.913 0 0 1 0.274,-0.567 l 1.777,-2.392 a 2.485,2.485 0 0 0 -0.63,-0.279 5.871,5.871 0 0 0 -0.835,-0.2 l -1.367,1.836 q -0.254,0.342 -0.689,0.835 a 11.557,11.557 0 0 1 -1.0199998,1.011 1.262,1.262 0 0 1 -0.742,-0.738 3.385,3.385 0 0 1 -0.229,-1.078 8.673,8.673 0 0 1 -0.025,-0.684 v -0.977 q -0.274,0.068 -0.615,0.068 a 4.185,4.185 0 0 1 -0.337,-0.014 q -0.181,-0.015 -0.415,-0.054 v 2.285 a 7.353,7.353 0 0 1 -0.11,1.39 3.927,3.927 0 0 1 -0.008,0.036 2.863,2.863 0 0 1 -0.429,1.03 q -0.313,0.464 -0.908,1.031 l -0.655,0.625 a 11.093,11.093 0 0 0 -0.724,0.735 2.665,2.665 0 0 0 -0.194,0.246 q -0.215,0.317 -0.215,0.444 0,0.254 0.259,0.645 0.259,0.391 0.65,0.801 0.742,-0.957 1.43,-1.714 a 21.474,21.474 0 0 1 1.441,-1.441 0.525,0.525 0 0 1 0.351,-0.146 0.477,0.477 0 0 1 0.347,0.151 q 0.151,0.152 0.151,0.347 0,0.205 -0.156,0.351 a 18.938,18.938 0 0 0 -1.406,1.441 q -0.664,0.757 -1.436,1.684 a 5.633,5.633 0 0 0 0.796,0.547 q 0.386,0.215 0.64,0.215 0.127,0 0.288,-0.18 a 3.825,3.825 0 0 0 0.395,-0.582 13.328,13.328 0 0 1 0.835,-1.254 11.987,11.987 0 0 1 0.943,-1.109 q 0.869,-0.898 1.8599998,-1.562 0.991,-0.664 2.08,-1.065 a 8.837,8.837 0 0 1 2.232,-0.508 q 0.058,-0.195 0.058,-0.39 0,-0.225 -0.068,-0.445 -0.068,-0.219 -0.186,-0.375 z m -10.6149998,-3.067 q 0.498,0 0.908,-0.21 a 2.769,2.769 0 0 0 0.703,-0.503 2.572,2.572 0 0 0 0.43,-0.5370001 4.892,4.892 0 0 0 0.645,0.127 4.957,4.957 0 0 0 0.615,0.039 3.598,3.598 0 0 0 2.295,-0.737 3.815,3.815 0 0 0 1.2989998,-1.821 1.602,1.602 0 0 0 1.211,0.576 1.968,1.968 0 0 0 1.24,-0.498 q 0.332,0.097 0.664,0.097 a 1.495,1.495 0 0 0 1.113,-0.424 1.423,1.423 0 0 0 0.42,-1.041 q 0,-0.244 -0.068,-0.478 0.576,0 1.035,-0.376 a 1.179,1.179 0 0 0 0.459,-0.952 0.958,0.958 0 0 0 -0.337,-0.767 1.212,1.212 0 0 0 -0.815,-0.288 1.282,1.282 0 0 0 -0.909,0.41 1.959,1.959 0 0 0 -1.347,-0.537 2.298,2.298 0 0 0 -1.27,0.401 3.037,3.037 0 0 0 -1.006,1.113 q -0.332,-0.361 -0.747,-0.532 a 2.047,2.047 0 0 0 -0.776,-0.171 1.135,1.135 0 0 0 -0.2739998,0.029 3.085,3.085 0 0 0 -0.341,0.117 1.97,1.97 0 0 0 -1.641,-0.859 1.959,1.959 0 0 0 -0.889,0.205 1.85,1.85 0 0 0 -0.683,0.586 13.145,13.145 0 0 0 -0.327,-0.029 3.503,3.503 0 0 0 -0.259,-0.01 2.704,2.704 0 0 0 -1.372,0.356 2.715,2.715 0 0 0 -0.992,0.977 q -0.371,0.62 -0.371,1.401 0,1.182 0.879,2.061 -0.361,0.175 -0.556,0.459 a 1.108,1.108 0 0 0 -0.196,0.644 1.087,1.087 0 0 0 0.352,0.8640001 1.329,1.329 0 0 0 0.908,0.308 z m 13.0759998,8.203 a 1.941,1.941 0 0 0 0.952,-0.263 1.896,1.896 0 0 0 0.738,-0.723 q 0.722,-0.049 1.225,-0.615 a 1.949,1.949 0 0 0 0.503,-1.338 1.694,1.694 0 0 0 -0.136,-0.703 2.947,2.947 0 0 0 0.302,-1.28 q 0,-0.722 -0.322,-1.347 a 2.887,2.887 0 0 0 -0.85,-1.016 q -0.527,-0.391 -1.152,-0.391 a 2.352,2.352 0 0 0 -1.47,0.557 5.187,5.187 0 0 0 -1.168,1.378 8.561,8.561 0 0 0 -0.155,0.263 2.293,2.293 0 0 1 0.303,1.162 q 0,0.303 -0.073,0.639 -0.074,0.337 -0.147,0.699 -0.073,0.361 -0.073,0.761 a 3,3 0 0 0 0.347,1.535 1.933,1.933 0 0 0 0.048,0.077 q 0.396,0.605 1.128,0.605 z m -4.472,-13.2470001 a 4.414,4.414 0 0 0 0.8,0.425 q 0.762,-0.664 0.762,-1.133 0,-0.166 -0.083,-0.317 a 0.248,0.248 0 0 0 -0.22,-0.152 0.478,0.478 0 0 0 -0.332,0.196 q -0.175,0.195 -0.283,0.459 -0.195,-0.205 -0.376,-0.313 a 0.654,0.654 0 0 0 -0.327,-0.107 0.288,0.288 0 0 0 -0.293,0.351 0.7,0.7 0 0 0 0.352,0.591 z m -7.3199998,3.032 a 3.864,3.864 0 0 0 0.933,0.274 q 0.518,-0.684 0.518,-1.123 a 0.7,0.7 0 0 0 -0.103,-0.366 q -0.103,-0.171 -0.259,-0.171 -0.166,0 -0.312,0.234 a 1.432,1.432 0 0 0 -0.196,0.537 1.784,1.784 0 0 0 -0.371,-0.205 q -0.176,-0.068 -0.312,-0.068 -0.313,0 -0.313,0.312 0,0.391 0.415,0.576 z m -0.258,-2.119 q -0.469,-0.156 -0.845,-0.376 -0.376,-0.219 -0.376,-0.581 0,-0.342 0.293,-0.342 0.146,0 0.327,0.093 0.181,0.093 0.376,0.279 0.088,-0.274 0.249,-0.484 a 0.441,0.441 0 0 1 0.337,-0.21 q 0.146,0 0.229,0.156 0.083,0.157 0.083,0.332 0,0.459 -0.673,1.133 z m 2.73,0.05 a 2.842,2.842 0 0 0 0.795,0.663 q 0.508,-0.312 0.732,-0.576 0.225,-0.264 0.225,-0.537 a 0.439,0.439 0 0 0 -0.083,-0.269 q -0.083,-0.112 -0.19,-0.112 -0.157,0 -0.328,0.132 a 1.755,1.755 0 0 0 -0.356,0.405 1.692,1.692 0 0 0 -0.352,-0.4 0.552,0.552 0 0 0 -0.332,-0.137 0.301,0.301 0 0 0 -0.283,0.381 0.762,0.762 0 0 0 0.172,0.45 z m 9.6899998,7.8970001 a 2.926,2.926 0 0 0 0.978,0.305 q 0.518,-0.693 0.518,-1.123 a 0.635,0.635 0 0 0 -0.113,-0.381 q -0.112,-0.156 -0.249,-0.156 -0.156,0 -0.303,0.225 a 1.474,1.474 0 0 0 -0.205,0.547 2.095,2.095 0 0 0 -0.376,-0.206 0.84,0.84 0 0 0 -0.307,-0.068 q -0.313,0 -0.313,0.313 a 0.631,0.631 0 0 0 0.37,0.544 z"
     id="6-5"
     style="fill:#000000;stroke:#000000;stroke-width:0" />
</svg>
