<?xml version="1.0" encoding="UTF-8" standalone="no"?>
<!-- Created with Inkscape (http://www.inkscape.org/) -->

<svg
   width="24"
   height="24"
   viewBox="0 0 24 24"
   version="1.1"
   id="svg1"
   xmlns="http://www.w3.org/2000/svg"
   xmlns:svg="http://www.w3.org/2000/svg">
  <defs
     id="defs1" />
  <path
     d="m 20.476688,10.456958 -0.097,-0.9770005 a 1.201,1.201 0 0 0 0.82,-0.439 q 0.332,-0.391 0.332,-0.928 a 1.455,1.455 0 0 0 -0.513,-1.118 1.918,1.918 0 0 0 -1.216,-0.503 7.15,7.15 0 0 0 0.088,-0.478 2.496,2.496 0 0 0 0.03,-0.342 q 0,-0.811 -0.557,-1.343 a 1.867,1.867 0 0 0 -1.338,-0.532 q -0.537,0 -1.001,0.229 -0.464,0.23 -0.718,0.718 a 4.055,4.055 0 0 0 -0.498,-0.239 q -0.195,-0.073 -0.449,-0.073 a 1.338,1.338 0 0 0 -0.996,0.385 q -0.381,0.386 -0.381,1.001 a 1.523,1.523 0 0 0 0.2,0.801 3.271,3.271 0 0 0 0.469,0.605 q 0.269,0.274 0.469,0.542 a 0.995,0.995 0 0 1 0.2,0.611 1.242,1.242 0 0 1 -0.22,0.674 2.852,2.852 0 0 1 -0.659,0.683 l -0.479,0.3810005 -1.171,-0.5470005 a 16.99,16.99 0 0 0 0.872,-0.622 6.078,6.078 0 0 0 0.197,-0.159 q 0.347,-0.293 0.347,-0.41 0,-0.088 -0.21,-0.298 a 10.131,10.131 0 0 1 -0.489,-0.532 3.439,3.439 0 0 1 -0.488,-0.757 q -0.21,-0.435 -0.21,-0.972 0,-0.683 0.357,-1.24 a 2.667,2.667 0 0 1 0.937,-0.889 q 0.581,-0.332 1.255,-0.332 a 2.265,2.265 0 0 1 0.635,0.088 2.297,2.297 0 0 1 0.932,-0.556 3.668,3.668 0 0 1 1.099,-0.166 3.051,3.051 0 0 1 1.47,0.371 3.085,3.085 0 0 1 1.113,1.001 2.499,2.499 0 0 1 0.425,1.43 v 0.166 0.166 q 0.732,0.215 1.201,0.835 0.469,0.62 0.469,1.421 a 2.109,2.109 0 0 1 -0.313,1.118 2.592,2.592 0 0 1 -0.82,0.8400005 q -0.508,0.327 -1.094,0.386 z m -18.6129999,8.691 3.76,-4.433 a 188.9,188.9 0 0 1 1.312,-1.531 102.008,102.008 0 0 1 1.085,-1.233 q 0.972,-1.084 1.665,-1.694 a 5.606,5.606 0 0 1 1.1149999,-0.7970005 2.816,2.816 0 0 1 0.12,-0.058 q 0.542,-0.244 1.099,-0.244 a 3.164,3.164 0 0 1 1.675,0.493 4.194,4.194 0 0 1 1.323,1.2750005 2.94,2.94 0 0 1 0.518,1.65 2.477,2.477 0 0 1 -0.479,1.411 6.123,6.123 0 0 1 -1.072,1.145 11.261,11.261 0 0 1 -0.417,0.34 24.778,24.778 0 0 1 -1.502,1.068 44.387,44.387 0 0 1 -1.13,0.724 l -1.0249999,0.634 q -1.621,0.996 -3.125,1.758 a 29.086,29.086 0 0 1 -2.064,0.956 18.112,18.112 0 0 1 -0.602,0.236 8.489,8.489 0 0 1 -1.228,0.369 2.696,2.696 0 0 1 -0.52,0.06 1.216,1.216 0 0 1 -0.747,-0.244 0.785,0.785 0 0 1 -0.328,-0.664 1.35,1.35 0 0 1 0.166,-0.63 3.145,3.145 0 0 1 0.401,-0.591 z m 7.539,-2.187 1.0249999,-0.635 a 40.51,40.51 0 0 0 1.597,-1.036 20.014,20.014 0 0 0 0.732,-0.526 7.163,7.163 0 0 0 1.019,-0.908 3.162,3.162 0 0 0 0.217,-0.269 q 0.371,-0.523 0.371,-1.011 a 2.098,2.098 0 0 0 -0.337,-1.133 q -0.337,-0.537 -0.874,-0.874 a 2.098,2.098 0 0 0 -1.133,-0.337 q -0.4,0 -0.835,0.225 a 4.557,4.557 0 0 0 -0.895,0.658 9.672,9.672 0 0 0 -0.15,0.138 20.6,20.6 0 0 0 -0.9799999,0.995 41.443,41.443 0 0 0 -0.538,0.592 107.186,107.186 0 0 0 -1.018,1.157 200.767,200.767 0 0 0 -1.238,1.44 l -3.672,4.327 a 0.534,0.534 0 0 0 -0.156,0.293 0.136,0.136 0 0 0 0.175,0.117 q 0.381,0 1.373,-0.401 a 23.213,23.213 0 0 0 1.629,-0.744 40.292,40.292 0 0 0 0.748,-0.384 49.178,49.178 0 0 0 2.94,-1.684 z m 7.3729999,-5.664 -0.449,-0.42 -1.26,1.123 -0.479,-1.074 1.182,-1.0550005 a 0.875,0.875 0 0 1 0.523,-0.286 0.292,0.292 0 0 1 0.039,0.003 q 0.219,0.029 0.522,0.302 l 0.713,0.6550005 a 1.469,1.469 0 0 0 1.016,0.449 1.431,1.431 0 0 0 0.952,-0.352 1.017,1.017 0 0 0 0.415,-0.7810005 1.103,1.103 0 0 0 -0.332,-0.81 1.091,1.091 0 0 0 -0.801,-0.332 v -0.977 a 2.182,2.182 0 0 1 1.089,0.283 q 0.503,0.283 0.81,0.767 a 1.951,1.951 0 0 1 0.308,1.069 1.834,1.834 0 0 1 -0.352,1.0700005 2.756,2.756 0 0 1 -0.908,0.82 2.349,2.349 0 0 1 -1.181,0.317 q -0.479,0 -0.957,-0.219 -0.479,-0.22 -0.85,-0.552 z m -3.877,1.875 -0.82,0.517 a 7.834,7.834 0 0 0 -0.591,-0.81 q -0.317,-0.381 -0.689,-0.713 l 0.645,-0.733 a 7.346,7.346 0 0 1 0.781,0.806 q 0.371,0.444 0.674,0.933 z m -3.3199999,0.879 -0.811,0.547 a 5.618,5.618 0 0 0 -0.566,-0.708 4.706,4.706 0 0 0 -0.694,-0.591 l 0.635,-0.723 a 4.426,4.426 0 0 1 0.757,0.635 6.634,6.634 0 0 1 0.679,0.84 z m -1.27,2.89 -0.918,0.313 a 1.743,1.743 0 0 0 -0.82,-0.928 l 0.469,-0.859 q 0.937,0.517 1.269,1.474 z m -3.203,1.27 -0.84,0.488 a 1.457,1.457 0 0 0 -0.322,-0.376 q -0.186,-0.151 -0.439,-0.22 l 0.654,-0.791 q 0.293,0.147 0.532,0.371 a 2.305,2.305 0 0 1 0.415,0.528 z"
     id="4-5"
     style="fill:#000000;stroke:#000000;stroke-width:0" />
</svg>
