<?xml version="1.0" encoding="UTF-8" standalone="no"?>
<!-- Created with Inkscape (http://www.inkscape.org/) -->

<svg
   width="24"
   height="24"
   viewBox="0 0 24 24"
   version="1.1"
   id="svg1"
   xmlns="http://www.w3.org/2000/svg"
   xmlns:svg="http://www.w3.org/2000/svg">
  <defs
     id="defs1" />
  <path
     d="m 14.712537,1.7459819 c -0.14467,0.02507 -0.25613,0.143257 -0.27343,0.289063 -0.0653,0.192 -0.0977,0.440094 -0.0977,0.746094 -0.0174,0.343808 0.0396,0.685433 0.16406,1.001953 -0.21966,0.01159 -0.42711,0.02785 -0.60742,0.05859 -0.22738,0.04246 -0.45822,0.06614 -0.68945,0.07227 -0.13,0 -0.25433,-0.0236 -0.375,-0.07227 -0.12,-0.04933 -0.23699,-0.07422 -0.34766,-0.07422 -0.18168,0.01619 -0.35976,0.05505 -0.53125,0.117187 -0.25067,0.078 -0.51997,0.175063 -0.80664,0.289063 -0.26002,0.101588 -0.514106,0.216791 -0.761719,0.345703 -0.7038992,0.36417 -1.4005402,0.741721 -2.0898442,1.132812 -0.520667,0.299333 -0.912448,0.559918 -1.175781,0.78125 -0.05332,0.0447 -0.100482,0.08877 -0.146484,0.132813 -0.102353,-0.2591 -0.239091,-0.504741 -0.40625,-0.728516 -0.156719,-0.244621 -0.422638,-0.395803 -0.712891,-0.408203 -0.13667,0 -0.205078,0.06026 -0.205078,0.183594 0.01316,0.197292 0.06987,0.389721 0.166016,0.5625 0.11382,0.239061 0.170615,0.50089 0.166015,0.765625 0,0.15 -0.02613,0.329109 -0.07813,0.537109 -0.01889,0.07581 -0.04778,0.161948 -0.07617,0.248047 -0.04949,0.0039 -0.09926,0.0047 -0.148437,0.01172 -0.117333,0.01667 -0.221833,0.04027 -0.3125,0.07227 -0.117333,0.189333 -0.273417,0.500926 -0.46875,0.933593 -0.06602,0.147976 -0.127028,0.297765 -0.189453,0.447266 -0.02139,-0.0188 -0.04188,-0.039 -0.06445,-0.05664 -0.431105,-0.367635 -0.987062,-0.555387 -1.552735,-0.523437 -0.364667,0 -0.546875,0.09453 -0.546875,0.283203 -0.0079,0.149207 0.07036,0.289128 0.201172,0.361328 0.133333,0.078 0.314969,0.1825 0.542969,0.3125 0.285439,0.180082 0.540451,0.404248 0.755859,0.6640631 0.0609,0.06882 0.120258,0.149789 0.181641,0.234375 -0.153162,0.447187 -0.291057,0.898901 -0.40625,1.357421 -0.122096,0.45263 -0.188465,0.918034 -0.199219,1.386719 0,0.312667 0.04663,0.702636 0.140625,1.167969 0.04995,0.248918 0.112881,0.494641 0.183594,0.738281 -0.117335,-0.04864 -0.235614,-0.09628 -0.355469,-0.138672 -0.396667,-0.13667 -0.807136,-0.205078 -1.230469,-0.205078 -0.146151,-0.01696 -0.293327,0.02384 -0.410156,0.113281 -0.072,0.07467 -0.107422,0.145608 -0.107422,0.210938 0,0.09733 0.07094,0.173186 0.210938,0.228516 0.14,0.05533 0.361395,0.14987 0.664062,0.283203 0.411376,0.193901 0.806638,0.41646 1.185547,0.667968 0.227674,0.145873 0.480312,0.328539 0.751953,0.541016 0.27574,0.497369 0.599519,0.969164 0.96875,1.404297 0.657333,0.787333 1.41663,1.482558 2.279297,2.087891 0.862667,0.606 1.774375,1.081114 2.7343752,1.425781 0.905189,0.335214 1.860939,0.510069 2.826169,0.517578 0.89143,0.0059 1.78033,-0.105734 2.64258,-0.332031 0.8052,-0.216934 1.61312,-0.418438 2.42578,-0.605469 0.0973,-0.188667 0.23416,-0.423698 0.41016,-0.707031 0.176,-0.283333 0.44278,-0.624818 0.80078,-1.021485 0.88146,-1.036739 1.50711,-2.265011 1.82617,-3.58789 0.42739,-1.785524 0.62427,-3.619515 0.58594,-5.455078 0,-0.338667 -0.12433,-0.7689691 -0.375,-1.2929691 -0.28104,-0.575798 -0.60666,-1.128397 -0.97266,-1.654297 -0.20087,-0.293645 -0.41131,-0.581987 -0.6289,-0.863281 l -0.17969,-1.628907 c -0.046,-0.390667 -0.0808,-0.735823 -0.10352,-1.035156 -0.0187,-0.217554 -0.0311,-0.435976 -0.0352,-0.654297 0,-0.13 -0.0585,-0.193359 -0.17578,-0.193359 -0.19533,0 -0.38808,0.210145 -0.58008,0.632812 -0.15008,0.436351 -0.2373,0.889629 -0.27344,1.347657 -0.18276,-0.174263 -0.37044,-0.342276 -0.56641,-0.501953 -0.27448,-0.262391 -0.62575,-0.4328 -1.00195,-0.484375 -0.41093,-0.157149 -0.83636,-0.274572 -1.26953,-0.351563 -0.0538,-0.0094 -0.10813,-0.01343 -0.16211,-0.02148 -0.0398,-0.05972 -0.0836,-0.116478 -0.12109,-0.177735 -0.18237,-0.305156 -0.32714,-0.63227 -0.42969,-0.972656 -0.0688,-0.252984 -0.16713,-0.496556 -0.29297,-0.726562 -0.0482,-0.115019 -0.15073,-0.198523 -0.27344,-0.220704 z m -0.54687,3.212891 c 0.57752,0.0037 1.15351,0.0751 1.71484,0.210938 0.57801,0.133755 1.1385,0.330191 1.67383,0.585937 0.46978,0.215151 0.89883,0.509195 1.26953,0.869141 0.29977,0.272051 0.47623,0.653958 0.48828,1.058593 0.002,0.113893 -0.0185,0.226954 -0.0625,0.332032 -0.042,0.098 -0.0645,0.182573 -0.0645,0.253906 0.0374,0.162594 0.11067,0.315002 0.21484,0.445312 0.14333,0.218001 0.21485,0.531407 0.21485,0.941407 0,0.8006671 -0.17716,1.5817501 -0.53516,2.3437501 -0.35867,0.761333 -0.85809,1.470906 -1.49609,2.128906 -0.638,0.657333 -1.37747,1.236948 -2.2168,1.738281 -0.84,0.501333 -1.74484,0.891875 -2.71484,1.171875 -0.97,0.28 -1.965618,0.419922 -2.9882852,0.419922 h -1.386719 c -0.07583,-0.38314 -0.297442,-0.719918 -0.61914,-0.941406 -0.283333,-0.166 -0.552641,-0.25 -0.806641,-0.25 -0.191282,-0.0046 -0.380932,0.03169 -0.556641,0.107422 -0.377333,-0.43 -0.66714,-0.925614 -0.86914,-1.488282 -0.202,-0.563333 -0.302735,-1.170932 -0.302735,-1.822265 0,-0.579333 0.08024,-1.175109 0.240235,-1.78711 0.159333,-0.612 0.393792,-1.195286 0.703125,-1.7519531 0.309333,-0.556667 0.689339,-1.041171 1.138672,-1.451172 0.150139,-0.122459 0.315119,-0.22409 0.492187,-0.302734 0.218,-0.104 0.43687,-0.258797 0.658203,-0.466797 0.758372,-0.75084 1.6520472,-1.352738 2.6328132,-1.773437 1.011486,-0.39742 2.091166,-0.592721 3.177736,-0.572266 z m -2.56836,0.712891 c -0.14229,0.0031 -0.270479,0.08456 -0.335939,0.210937 -0.09485,0.167636 -0.141412,0.358365 -0.132812,0.550781 0.0068,0.180901 0.02804,0.360441 0.06445,0.53711 -0.0052,0.002 -0.01044,0.0038 -0.01563,0.0059 -0.885134,0.343402 -1.7054412,0.831428 -2.4296882,1.445313 -0.69109,0.577657 -1.268895,1.280104 -1.701172,2.0703121 -0.416667,0.771333 -0.625,1.576016 -0.625,2.416016 -0.02031,0.276803 0.0062,0.550036 0.06641,0.814453 -0.149712,0.100779 -0.290665,0.212999 -0.421875,0.337891 -0.169021,0.147497 -0.276398,0.35492 -0.298828,0.578125 -0.0062,0.114813 0.04056,0.224911 0.126953,0.300781 0.08467,0.072 0.185401,0.107422 0.302734,0.107422 0.206507,0 0.464784,-0.104273 0.761719,-0.292969 0.113316,0.153217 0.24143,0.296934 0.386719,0.425781 0.370217,0.303234 0.848092,0.513974 1.43164,0.634766 -0.03545,0.16842 -0.05702,0.339608 -0.06055,0.511719 -0.0058,0.158947 0.03369,0.317376 0.113282,0.455078 0.07467,0.12067 0.163578,0.179687 0.267578,0.179687 0.222544,-0.02636 0.414972,-0.167129 0.507812,-0.371094 0.09578,-0.151862 0.19885,-0.37615 0.304688,-0.658203 0.05517,0.0011 0.1075982,0.0039 0.1640622,0.0039 1.047999,0 2.059869,-0.173485 3.033199,-0.521485 0.12835,-0.04598 0.25011,-0.100066 0.375,-0.15039 0.0922,0.131371 0.19158,0.258413 0.30274,0.375 0.14742,0.168426 0.35347,0.274455 0.57617,0.296875 0.11481,0.0062 0.22683,-0.04056 0.30274,-0.126954 0.072,-0.084 0.10742,-0.185401 0.10742,-0.302734 0,-0.196773 -0.095,-0.438513 -0.26563,-0.716797 0.43187,-0.234984 0.83942,-0.500704 1.22266,-0.796875 0.73471,-0.554542 1.35993,-1.241098 1.8418,-2.02539 0.43782,-0.70202 0.67273,-1.5125 0.67773,-2.3398441 0.009,-0.431984 -0.0854,-0.85651 -0.26953,-1.242188 0.13467,-0.09368 0.26355,-0.197022 0.38281,-0.310547 0.1688,-0.147252 0.27418,-0.353323 0.29688,-0.576171 0.007,-0.115156 -0.0403,-0.226645 -0.12696,-0.302735 -0.0847,-0.07133 -0.1854,-0.107422 -0.30273,-0.107422 -0.24597,0 -0.55675,0.1377 -0.92969,0.404297 -0.3122,-0.28232 -0.67547,-0.5074 -1.07226,-0.658203 -0.63801,-0.260667 -1.3799,-0.390625 -2.22657,-0.390625 -0.59168,0 -1.17062,0.06692 -1.73633,0.197266 -0.0475,-0.21905 -0.10567,-0.409438 -0.18164,-0.5625 -0.13333,-0.27 -0.2957,-0.40625 -0.48437,-0.40625 z m 2.7168,1.74414 c 0.73154,0.01551 1.44774,0.221024 2.07812,0.59961 0.55733,0.344196 0.89141,0.9564 0.87891,1.611328 -0.008,0.6975531 -0.21828,1.3786981 -0.60547,1.9589841 -0.40333,0.634667 -0.9481,1.204891 -1.63477,1.712891 -0.68733,0.507333 -1.45845,0.910937 -2.31445,1.210937 -0.84857,0.298092 -1.743176,0.450136 -2.642579,0.449219 -0.7177092,0.06044 -1.4358142,-0.10749 -2.0507812,-0.482422 -0.446993,-0.39229 -0.67931,-0.976123 -0.625,-1.568359 0,-0.696667 0.184734,-1.371391 0.552734,-2.025391 0.384154,-0.673912 0.888149,-1.2721731 1.488282,-1.7636721 0.6340302,-0.526061 1.3499452,-0.945153 2.1191442,-1.240234 0.77786,-0.304118 1.60621,-0.459788 2.4414,-0.458984 0.1049,-0.0056 0.20995,-0.0061 0.31446,-0.0039 z m 5.88671,5.9023441 c 0.12333,0 0.22474,0.04481 0.30274,0.132813 0.0793,0.09012 0.12264,0.206161 0.11914,0.326171 v 1.613282 c 0,0.286 -0.13811,0.427734 -0.41211,0.427734 -0.26667,0 -0.40039,-0.141734 -0.40039,-0.427734 v -1.613282 c -0.006,-0.120784 0.0357,-0.239284 0.11328,-0.332031 0.0692,-0.08214 0.16997,-0.128734 0.27734,-0.126953 z m -1.5625,1.865234 c 0.11462,0.0015 0.22355,0.04992 0.30274,0.132813 0.0913,0.088 0.12433,0.212333 0.0977,0.375 l -0.19532,1.396484 c -0.0193,0.136667 -0.0685,0.236828 -0.14648,0.298828 -0.0715,0.05912 -0.16115,0.09143 -0.25391,0.0918 -0.11067,0 -0.20887,-0.04353 -0.29687,-0.130859 -0.0728,-0.07382 -0.11129,-0.173751 -0.10742,-0.277344 -6e-5,-0.02641 9e-4,-0.05388 0.004,-0.08008 l 0.18555,-1.394531 c 0.0193,-0.143333 0.071,-0.24912 0.15234,-0.314453 0.0813,-0.06533 0.16648,-0.09766 0.25781,-0.09766 z m -2.37304,2.56836 c 0.176,0 0.30286,0.09453 0.38086,0.283203 l 0.57617,1.289062 c 0.0309,0.06615 0.0473,0.13796 0.0488,0.210938 3.8e-4,0.07671 -0.0218,0.152428 -0.0664,0.214844 -0.0843,0.120686 -0.22607,0.189802 -0.37305,0.18164 -0.16147,-0.0037 -0.30319,-0.111522 -0.35156,-0.265625 l -0.57617,-1.289062 c -0.0366,-0.07379 -0.0564,-0.153984 -0.0586,-0.236328 -3.8e-4,-0.07195 0.0197,-0.142588 0.0586,-0.203125 0.0774,-0.123129 0.2162,-0.194651 0.36133,-0.185547 z m -6.6015652,1.279297 c 0.104667,0 0.218464,0.05225 0.3417972,0.15625 l 1.044922,0.9375 c 0.104,0.08467 0.15625,0.182301 0.15625,0.292968 -0.0075,0.10509 -0.04584,0.206535 -0.111328,0.289063 -0.07467,0.107333 -0.17173,0.160156 -0.289063,0.160156 -0.118266,-0.0092 -0.227698,-0.05963 -0.310547,-0.144531 L 9.4488678,19.773326 c -0.09605,-0.07988 -0.152465,-0.197396 -0.15625,-0.322265 7.11e-4,-0.105769 0.03841,-0.206954 0.107422,-0.28711 0.0619,-0.08306 0.160079,-0.132813 0.263672,-0.132812 z m 3.3789052,0.05859 c 0.11831,0.0075 0.23056,0.05184 0.32227,0.126954 l 1.12304,0.849609 c 0.10944,0.0722 0.17865,0.193291 0.18555,0.324219 -0.002,0.109588 -0.0448,0.214263 -0.12109,0.292968 -0.0622,0.08108 -0.15769,0.129549 -0.25977,0.134766 -0.11118,-0.0028 -0.21866,-0.04438 -0.30273,-0.117187 l -1.12305,-0.84961 c -0.11755,-0.07441 -0.19018,-0.202772 -0.19531,-0.341797 -7.2e-4,-0.108438 0.04,-0.213093 0.11328,-0.292968 0.0628,-0.07863 0.15719,-0.125139 0.25781,-0.126954 z"
     style="baseline-shift:baseline;display:inline;overflow:visible;vector-effect:non-scaling-stroke;enable-background:accumulate;stop-color:#000000;stop-opacity:1"
     id="path38" />
</svg>
