<?xml version="1.0" encoding="UTF-8" standalone="no"?>
<!-- Created with Inkscape (http://www.inkscape.org/) -->

<svg
   width="24"
   height="24"
   viewBox="0 0 24 24"
   version="1.1"
   id="svg1"
   xmlns="http://www.w3.org/2000/svg"
   xmlns:svg="http://www.w3.org/2000/svg">
  <defs
     id="defs1" />
  <path
     d="m 18.808132,9.1184103 -1.485,0.41 a 2.688,2.688 0 0 0 0.455,-0.727 1.98,1.98 0 0 0 0.141,-0.738 3.537,3.537 0 0 0 -0.088,-0.732 2.048,2.048 0 0 0 1.099,-0.503 1.288,1.288 0 0 0 0.366,-0.952 q 0,-0.313 -0.098,-0.601 a 1.729,1.729 0 0 0 -0.283,-0.522 1.666,1.666 0 0 0 0.41,-1.035 q 0,-0.391 -0.229,-0.64 a 0.745,0.745 0 0 0 -0.571,-0.249 q -0.362,0 -0.718,0.244 a 1.694,1.694 0 0 0 -0.552,0.615 q -0.478,-0.205 -0.908,-0.205 a 1.288,1.288 0 0 0 -1.074,0.518 2.409,2.409 0 0 0 -0.43,1.425 5.268,5.268 0 0 0 -0.303,-0.029 q -0.146,-0.009 -0.312,-0.009 a 1.994,1.994 0 0 0 -1.242,0.337 1.209,1.209 0 0 0 -0.125,0.112 1.811,1.811 0 0 0 -0.435,1.217 3.844,3.844 0 0 0 -0.005,0.189 v 0.2 q 0,0.073 0.01,0.152 a 4.442,4.442 0 0 0 -0.498,-0.039 q -0.84,0 -1.304,0.4 a 1.427,1.427 0 0 0 -0.464,1.142 4.025,4.025 0 0 0 0.098,0.831 2.316,2.316 0 0 0 -1.4610003,0.4159997 1.585,1.585 0 0 0 -0.097,0.082 1.814,1.814 0 0 0 -0.542,1.406 3.251,3.251 0 0 0 0.069,0.693 q -0.742,0.069 -1.182,0.513 a 1.588,1.588 0 0 0 -0.439,1.167 2.5,2.5 0 0 0 0.156,0.859 q -0.215,0.127 -0.337,0.337 a 0.964,0.964 0 0 0 -0.122,0.493 q 0,0.235 0.083,0.479 0.083,0.244 0.239,0.469 l 3.311,-2.832 a 31.771,31.771 0 0 1 3.3000003,-2.496 25.44,25.44 0 0 1 0.601,-0.38 19.608,19.608 0 0 1 3.28,-1.6369997 15.529,15.529 0 0 1 0.455,-0.165 q 0.616,-0.215 1.182,-0.352 a 10.125,10.125 0 0 1 1.108,-0.205 q 0.542,-0.068 1.06,-0.068 a 4.955,4.955 0 0 1 0.791,0.058 q 0.361,0.059 0.654,0.166 a 88.596,88.596 0 0 0 -1.255,0.902 45.78,45.78 0 0 0 -0.332,0.2459997 32.173,32.173 0 0 0 -1.074,0.835 q -0.454,0.371 -0.932,0.801 h 0.146 0.137 q 0.859,0 1.382,0.483 0.522,0.483 0.522,1.274 a 1.958,1.958 0 0 1 -0.483,1.329 1.926,1.926 0 0 1 -1.206,0.664 2.084,2.084 0 0 0 -0.196,-0.731 0.648,0.648 0 0 0 -0.005,-0.007 q -0.131,-0.219 -0.454,-0.219 a 1.445,1.445 0 0 0 -0.581,0.161 4.824,4.824 0 0 0 -0.744,0.468 12.713,12.713 0 0 0 -0.223,0.167 22.449,22.449 0 0 0 -0.948,0.777 53.114,53.114 0 0 0 -0.736,0.643 l -1.24,1.094 a 26.389,26.389 0 0 1 -1.699,1.392 15.244,15.244 0 0 1 -0.679,0.478 8.151,8.151 0 0 1 -1.8340003,0.939 5.444,5.444 0 0 1 -0.115,0.038 6.133,6.133 0 0 1 -1.865,0.288 q -0.537,0 -1.133,-0.093 -0.595,-0.093 -1.103,-0.249 a 3.348,3.348 0 0 0 -0.493,0.723 3.193,3.193 0 0 1 -0.42,0.649 0.831,0.831 0 0 1 -0.669,0.269 q -0.371,0 -0.806,-0.244 -0.434,-0.245 -0.82,-0.63 -0.386,-0.386 -0.635,-0.816 -0.249,-0.429 -0.249,-0.8 a 0.882,0.882 0 0 1 0.278,-0.708 q 0.279,-0.24 0.665,-0.44 a 2.432,2.432 0 0 0 0.698,-0.552 q -0.303,-0.693 -0.396,-1.113 a 4.948,4.948 0 0 1 -0.093,-1.045 7.856,7.856 0 0 1 0.342,-2.217 11.604,11.604 0 0 1 0.972,-2.309 11.852,11.852 0 0 1 1.509,-2.1439997 98.302,98.302 0 0 0 1.172,-1.35 44.971,44.971 0 0 0 0.879,-1.062 13.325,13.325 0 0 0 0.799,-1.094 5.129,5.129 0 0 0 0.226,-0.385 2.166,2.166 0 0 0 0.293,-0.962 0.68,0.68 0 0 0 -0.186,-0.518 0.767,0.767 0 0 0 -0.547,-0.176 2.231,2.231 0 0 0 -1.269,0.489 q 0,-0.606 0.376,-1.133 a 2.786,2.786 0 0 1 0.986,-0.85 2.751,2.751 0 0 1 1.304,-0.322 2.094,2.094 0 0 1 1.2450003,0.371 q 0.523,0.371 0.855,1.123 a 16.349,16.349 0 0 0 0.493,-0.854 q 0.239,-0.445 0.376,-0.748 a 3.846,3.846 0 0 1 0.971,1.001 q 0.406,0.601 0.542,1.246 0.196,-0.782 0.747,-1.236 0.552,-0.454 1.285,-0.454 a 1.926,1.926 0 0 1 0.449,0.054 1.675,1.675 0 0 1 0.42,0.161 q 0.254,-0.361 0.708,-0.576 0.454,-0.215 0.932,-0.215 a 1.659,1.659 0 0 1 1.26,0.527 1.871,1.871 0 0 1 0.498,1.338 q 0,0.635 -0.303,1.094 a 1.838,1.838 0 0 1 0.352,1.182 q 0,0.732 -0.435,1.362 a 2.006,2.006 0 0 1 -1.088,0.825 0.671,0.671 0 0 1 0.024,0.137 2.062,2.062 0 0 1 0.005,0.146 1.732,1.732 0 0 1 -0.044,0.381 2.255,2.255 0 0 1 -0.122,0.381 z m -5.342,7.8219997 1.26,-1.074 q 1.211,-1.035 1.938,-1.567 a 7.121,7.121 0 0 1 1.012,-0.64 2.851,2.851 0 0 1 0.185,-0.083 2.385,2.385 0 0 1 0.898,-0.19 1.455,1.455 0 0 1 0.64,0.122 q 0.249,0.122 0.405,0.317 0.078,-0.205 0.078,-0.352 a 0.779,0.779 0 0 0 -0.43,-0.688 q -0.429,-0.259 -1.162,-0.259 a 5.401,5.401 0 0 0 -0.849,0.069 q -0.43,0.068 -0.84,0.175 0.644,-0.781 1.406,-1.528 0.762,-0.747 1.992,-1.6259997 a 18.368,18.368 0 0 0 -3.154,1.0649997 22.713,22.713 0 0 0 -3.13,1.684 q -1.548,0.991 -3.052,2.29 l -4.2670003,3.682 a 2.722,2.722 0 0 1 -0.957,-1.016 q -0.303,-0.586 -0.303,-1.152 a 1.583,1.583 0 0 1 0.449,-1.201 q -0.058,-0.215 -0.093,-0.425 a 2.765,2.765 0 0 1 -0.034,-0.445 2.425,2.425 0 0 1 0.489,-1.523 1.826,1.826 0 0 1 1.259,-0.732 1.308,1.308 0 0 1 -0.044,-0.23 2.343,2.343 0 0 1 -0.014,-0.259 2.301,2.301 0 0 1 0.263,-1.093 2.091,2.091 0 0 1 0.728,-0.7959997 1.918,1.918 0 0 1 1.059,-0.298 1.605,1.605 0 0 1 -0.058,-0.459 2.09,2.09 0 0 1 0.278,-1.079 q 0.279,-0.474 0.7470003,-0.747 a 1.999,1.999 0 0 1 1.026,-0.274 1.86,1.86 0 0 1 0.141,0.005 0.508,0.508 0 0 1 0.122,0.025 q -0.009,-0.049 -0.009,-0.103 v -0.093 a 1.914,1.914 0 0 1 0.507,-1.318 2.138,2.138 0 0 1 1.289,-0.693 q -0.048,-0.333 -0.151,-0.625 a 2.096,2.096 0 0 0 -0.298,-0.557 3.966,3.966 0 0 1 -0.672,1.148 2.111,2.111 0 0 1 -0.036,0.038 2.201,2.201 0 0 1 -0.844,0.572 q -0.118,-0.547 -0.328,-1.035 a 2.183,2.183 0 0 0 -0.561,-0.796 1.358,1.358 0 0 0 -0.9280003,-0.308 q -0.283,0 -0.537,0.078 a 1.331,1.331 0 0 1 0.874,0.459 1.474,1.474 0 0 1 0.3170003,0.977 2.758,2.758 0 0 1 -0.1800003,0.971 5.317,5.317 0 0 1 -0.601,1.099 17.094,17.094 0 0 1 -0.795,1.057 30.393,30.393 0 0 1 -0.338,0.413 94.041,94.041 0 0 1 -0.803,0.948 166.508,166.508 0 0 1 -0.984,1.1369997 9.803,9.803 0 0 0 -1.313,1.909 10.279,10.279 0 0 0 -0.825,2.06 7.297,7.297 0 0 0 -0.284,1.929 4.398,4.398 0 0 0 0.127,1.079 10.154,10.154 0 0 0 0.357,1.086 19.502,19.502 0 0 0 0.073,0.189 4.235,4.235 0 0 1 -0.798,0.849 1.924,1.924 0 0 1 -0.061,0.044 4.529,4.529 0 0 1 -0.625,0.376 q -0.235,0.108 -0.235,0.283 a 0.823,0.823 0 0 0 0.127,0.357 2.992,2.992 0 0 0 0.322,0.464 2.274,2.274 0 0 0 0.42,0.395 q 0.225,0.161 0.42,0.161 a 0.392,0.392 0 0 0 0.327,-0.288 14.395,14.395 0 0 1 0.357,-0.713 q 0.225,-0.424 0.683,-0.825 a 12.373,12.373 0 0 0 1.343,0.318 6.931,6.931 0 0 0 1.167,0.102 5.017,5.017 0 0 0 1.597,-0.259 7.162,7.162 0 0 0 1.5930003,-0.803 11.385,11.385 0 0 0 0.116,-0.076 19.847,19.847 0 0 0 1.442,-1.072 35.402,35.402 0 0 0 0.76,-0.632 z m -0.576,-4.687 -4.8830003,3.74 q 0.537,-0.518 0.855,-1.104 a 2.511,2.511 0 0 0 0.317,-1.21 q 0,-0.43 -0.156,-0.84 a 2.342,2.342 0 0 0 1.4650003,-0.435 1.584,1.584 0 0 0 0.537,-1.323 2.251,2.251 0 0 0 -0.118,-0.752 2.887,2.887 0 0 0 0.567,0.059 1.587,1.587 0 0 0 1.123,-0.357 q 0.381,-0.3559997 0.381,-1.0689997 0,-0.401 -0.117,-0.899 h 0.092 0.083 a 3.684,3.684 0 0 0 1.228,-0.169 1.409,1.409 0 0 0 0.389,-0.207 q 0.483,-0.376 0.483,-1.303 a 6.49,6.49 0 0 0 -0.005,-0.259 6.782,6.782 0 0 0 -0.015,-0.249 6.736,6.736 0 0 0 0.865,-0.098 2.496,2.496 0 0 0 0.649,-0.215 q 0.293,-0.146 0.606,-0.381 a 2.435,2.435 0 0 0 -0.323,1.163 q 0,0.273 0.098,0.41 a 2.937,2.937 0 0 0 -1.088,0.729 1.57,1.57 0 0 0 -0.094,0.12 q -0.341,0.489 -0.341,1.309 a 2.491,2.491 0 0 0 0.087,0.693 h -0.136 -0.127 q -1.055,0 -1.748,0.6349997 -0.694,0.635 -0.694,1.602 a 4.21,4.21 0 0 0 0.005,0.2 4.888,4.888 0 0 0 0.015,0.21 z"
     id="5-2"
     style="fill:#000000;stroke:#000000;stroke-width:0" />
</svg>
