<?xml version="1.0" encoding="UTF-8" standalone="no"?>
<!-- Created with Inkscape (http://www.inkscape.org/) -->

<svg
   width="24"
   height="24"
   viewBox="0 0 24 24"
   version="1.1"
   id="svg1"
   xmlns="http://www.w3.org/2000/svg"
   xmlns:svg="http://www.w3.org/2000/svg">
  <defs
     id="defs1" />
  <path
     d="m 6.9020169,9.6562275 -1.377,0.293 v -2.91 a 5.473,5.473 0 0 1 -0.488,-1.24 5.038,5.038 0 0 1 -0.185,-1.299 q 0,-0.82 0.312,-1.441 0.313,-0.62 0.874,-0.966 a 2.412,2.412 0 0 1 1.294,-0.347 2.66,2.66 0 0 1 0.796,0.117 q 0.376,0.117 0.649,0.332 l -0.576,1.231 q -0.361,-0.157 -0.742,-0.157 -0.557,0 -0.879,0.367 -0.322,0.366 -0.322,1.001 a 2.999,2.999 0 0 0 0.141,0.874 q 0.142,0.463 0.386,0.874 l 2.735,0.957 -0.401,1.298 -2.217,-0.761 z m 2.344,4.8539995 0.234,0.937 a 1.787,1.787 0 0 0 -1.015,0.669 q -0.391,0.513 -0.391,1.157 0,0.772 0.552,1.324 0.552,0.551 1.323,0.551 a 1.8,1.8 0 0 0 1.3280001,-0.551 q 0.547,-0.552 0.547,-1.324 a 1.813,1.813 0 0 0 -0.195,-0.84 l 0.859,-0.449 q 0.313,0.576 0.313,1.289 0,0.782 -0.386,1.431 -0.386,0.649 -1.03,1.035 -0.645,0.386 -1.4360001,0.386 a 2.742,2.742 0 0 1 -1.435,-0.386 q -0.645,-0.386 -1.031,-1.035 -0.385,-0.649 -0.385,-1.431 a 2.765,2.765 0 0 1 0.6,-1.753 q 0.601,-0.766 1.548,-1.01 z m 3.3200001,2.529 0.547,0.801 q -0.39,0.273 -0.605,0.678 -0.215,0.406 -0.215,0.884 0,0.772 0.552,1.323 0.551,0.552 1.323,0.552 a 1.8,1.8 0 0 0 1.328,-0.552 q 0.547,-0.551 0.547,-1.323 a 1.93,1.93 0 0 0 -0.264,-0.976 l 0.84,-0.489 q 0.401,0.684 0.401,1.465 0,0.781 -0.386,1.431 -0.386,0.649 -1.031,1.035 -0.644,0.386 -1.435,0.386 -0.781,0 -1.431,-0.386 -0.649,-0.386 -1.035,-1.035 -0.386,-0.65 -0.386,-1.431 a 2.809,2.809 0 0 1 0.332,-1.338 2.836,2.836 0 0 1 0.918,-1.025 z m -8.0660001,-4.727 0.449,0.86 a 1.85,1.85 0 0 0 -0.727,0.688 q -0.269,0.445 -0.269,0.972 0,0.771 0.552,1.323 0.552,0.552 1.323,0.552 a 1.8,1.8 0 0 0 1.328,-0.552 q 0.547,-0.552 0.547,-1.323 a 1.873,1.873 0 0 0 -0.039,-0.396 q -0.039,-0.18 -0.117,-0.356 l 0.879,-0.41 a 2.29,2.29 0 0 1 0.19,0.556 q 0.064,0.303 0.064,0.606 0,0.781 -0.386,1.431 -0.386,0.649 -1.03,1.035 -0.645,0.385 -1.436,0.385 -0.781,0 -1.431,-0.385 -0.649,-0.386 -1.035,-1.035 -0.385,-0.65 -0.385,-1.431 a 2.791,2.791 0 0 1 0.41,-1.47 q 0.41,-0.679 1.113,-1.05 z m 7.5000001,3.995 h 0.977 q 0,0.517 0.253,0.942 0.254,0.425 0.679,0.679 0.425,0.254 0.943,0.254 0.517,0 0.942,-0.254 0.425,-0.254 0.679,-0.679 0.254,-0.425 0.254,-0.942 a 1.848,1.848 0 0 0 -0.225,-0.894 1.865,1.865 0 0 0 -0.625,-0.679 l 0.527,-0.82 a 2.785,2.785 0 0 1 0.952,1.03 2.816,2.816 0 0 1 0.347,1.363 q 0,0.781 -0.386,1.43 -0.385,0.65 -1.03,1.035 -0.644,0.386 -1.435,0.386 -0.782,0 -1.431,-0.386 -0.65,-0.385 -1.035,-1.035 -0.386,-0.649 -0.386,-1.43 z m 3.779,4.472 0.821,-0.527 a 1.939,1.939 0 0 0 0.678,0.62 1.817,1.817 0 0 0 0.894,0.229 1.8,1.8 0 0 0 1.328,-0.551 q 0.547,-0.552 0.547,-1.324 a 1.845,1.845 0 0 0 -0.347,-1.093 1.819,1.819 0 0 0 -0.923,-0.684 l 0.313,-0.918 a 2.71,2.71 0 0 1 1.401,1.03 q 0.532,0.747 0.532,1.665 0,0.782 -0.385,1.431 -0.386,0.65 -1.031,1.035 -0.644,0.386 -1.435,0.386 a 2.789,2.789 0 0 1 -1.358,-0.347 q -0.634,-0.346 -1.035,-0.952 z m 0.655,-10.8299995 -1.075,-0.4 a 1.975,1.975 0 0 0 0.703,-0.679 1.787,1.787 0 0 0 0.274,-0.972 q 0,-0.781 -0.547,-1.328 -0.547,-0.547 -1.328,-0.547 a 1.837,1.837 0 0 0 -0.986,0.279 1.875,1.875 0 0 0 -0.694,0.756 l -0.879,-0.429 q 0.371,-0.723 1.06,-1.153 a 2.778,2.778 0 0 1 1.499,-0.429 2.742,2.742 0 0 1 1.435,0.385 q 0.645,0.386 1.031,1.031 0.385,0.644 0.385,1.435 a 2.768,2.768 0 0 1 -0.234,1.128 2.841,2.841 0 0 1 -0.644,0.923 z m 0.146,7.9489995 0.352,-0.918 a 1.848,1.848 0 0 0 0.654,0.118 1.8,1.8 0 0 0 1.328,-0.552 q 0.547,-0.552 0.547,-1.323 0,-0.782 -0.547,-1.329 -0.547,-0.546 -1.328,-0.546 v -0.977 a 2.742,2.742 0 0 1 1.435,0.386 q 0.645,0.385 1.031,1.03 0.385,0.645 0.385,1.436 0,0.781 -0.385,1.43 -0.386,0.65 -1.031,1.035 -0.644,0.386 -1.435,0.386 a 2.812,2.812 0 0 1 -0.523,-0.049 3.376,3.376 0 0 1 -0.483,-0.127 z m -9.3460001,-3.144 q -0.781,0 -1.43,-0.386 -0.65,-0.386 -1.035,-1.035 -0.386,-0.65 -0.386,-1.431 a 2.742,2.742 0 0 1 0.386,-1.435 q 0.385,-0.6449995 1.035,-1.0309995 0.649,-0.385 1.43,-0.385 a 2.742,2.742 0 0 1 1.436,0.385 q 0.644,0.386 1.03,1.0309995 0.3860001,0.644 0.3860001,1.435 0,0.781 -0.3860001,1.431 -0.386,0.649 -1.03,1.035 -0.645,0.386 -1.436,0.386 z m 4.2000001,2.158 q -0.782,0 -1.431,-0.386 -0.6500001,-0.386 -1.0350001,-1.035 -0.386,-0.649 -0.386,-1.431 a 2.742,2.742 0 0 1 0.386,-1.435 q 0.385,-0.645 1.0350001,-1.03 0.649,-0.386 1.431,-0.386 a 2.742,2.742 0 0 1 1.435,0.386 q 0.645,0.385 1.03,1.03 0.386,0.644 0.386,1.435 0,0.782 -0.386,1.431 -0.385,0.649 -1.03,1.035 -0.644,0.386 -1.435,0.386 z m 4.296,-2.139 q -0.781,0 -1.43,-0.385 -0.65,-0.386 -1.035,-1.036 -0.386,-0.649 -0.386,-1.43 a 2.742,2.742 0 0 1 0.386,-1.436 q 0.385,-0.6439995 1.035,-1.0299995 0.649,-0.386 1.43,-0.386 a 2.742,2.742 0 0 1 1.436,0.386 q 0.645,0.386 1.03,1.0299995 0.386,0.645 0.386,1.436 0,0.781 -0.386,1.43 -0.385,0.65 -1.03,1.036 -0.645,0.385 -1.436,0.385 z m -4.492,-2.627 q -0.781,0 -1.4300001,-0.385 -0.65,-0.386 -1.036,-1.036 -0.385,-0.649 -0.385,-1.4299995 a 2.742,2.742 0 0 1 0.385,-1.436 q 0.386,-0.644 1.036,-1.03 0.6490001,-0.386 1.4300001,-0.386 a 2.742,2.742 0 0 1 1.436,0.386 q 0.644,0.386 1.03,1.03 0.386,0.645 0.386,1.436 0,0.7809995 -0.386,1.4299995 -0.386,0.65 -1.03,1.036 -0.645,0.385 -1.436,0.385 z m 4.492,1.651 a 1.8,1.8 0 0 0 1.329,-0.552 q 0.546,-0.552 0.546,-1.323 0,-0.782 -0.546,-1.328 -0.547,-0.547 -1.329,-0.547 -0.771,0 -1.323,0.547 -0.552,0.546 -0.552,1.328 0,0.771 0.552,1.323 0.552,0.552 1.323,0.552 z m -8.4960001,-0.02 a 1.8,1.8 0 0 0 1.328,-0.552 q 0.547,-0.551 0.547,-1.323 0,-0.781 -0.547,-1.328 -0.546,-0.547 -1.328,-0.547 -0.771,0 -1.323,0.547 -0.552,0.547 -0.552,1.328 0,0.772 0.552,1.323 0.552,0.552 1.323,0.552 z m 4.2000001,2.158 a 1.8,1.8 0 0 0 1.328,-0.551 q 0.547,-0.552 0.547,-1.324 0,-0.781 -0.547,-1.328 -0.547,-0.547 -1.328,-0.547 -0.772,0 -1.324,0.547 -0.5510001,0.547 -0.5510001,1.328 0,0.772 0.5510001,1.324 0.552,0.551 1.324,0.551 z m -0.196,-4.765 a 1.8,1.8 0 0 0 1.328,-0.552 q 0.547,-0.552 0.547,-1.3229995 0,-0.781 -0.547,-1.328 -0.546,-0.547 -1.328,-0.547 -0.771,0 -1.3230001,0.547 -0.552,0.547 -0.552,1.328 0,0.7709995 0.552,1.3229995 0.5520001,0.552 1.3230001,0.552 z m 2.129,-0.362 0.069,1.749 -1.475,-0.889 z m -4.2280001,4.366 -0.948,0.381 -0.195,-1.416 1.045,-0.459 z m 1.6400001,-3.438 -1.2300001,0.811 v -1.416 z"
     id="3-4"
     style="fill:#000000;stroke:#000000;stroke-width:0" />
</svg>
