<?xml version="1.0" encoding="UTF-8" standalone="no"?>
<!-- Created with Inkscape (http://www.inkscape.org/) -->

<svg
   width="24"
   height="24"
   viewBox="0 0 24 24"
   version="1.1"
   id="svg1"
   xmlns="http://www.w3.org/2000/svg"
   xmlns:svg="http://www.w3.org/2000/svg">
  <defs
     id="defs1" />
  <path
     d="m 9.9823956,21.785388 c 1.0744754,0.309367 2.1868764,0.467224 3.3050004,0.469 1.08933,-3.95e-4 2.171844,-0.171815 3.208,-0.508 1.039572,-0.332018 2.007164,-0.857204 2.852,-1.548 0.867812,-0.716821 1.563593,-1.619354 2.036,-2.641 0.533585,-1.190659 0.793947,-2.485638 0.762,-3.79 0,-2.610667 -0.382667,-4.8093332 -1.148,-6.5960002 -0.63728,-1.624753 -1.728722,-3.031756 -3.144,-4.053 -1.333725,-0.915432 -2.918496,-1.394776 -4.536,-1.372 -1.074667,0 -2.155333,0.169333 -3.242,0.508 -1.0873334,0.338667 -2.1226674,0.818667 -3.1060004,1.44 -0.974801,0.61481 -1.859001,1.362694 -2.627,2.222 -0.760265,0.84699 -1.375532,1.813645 -1.821,2.861 -0.446,1.048 -0.669,2.1646672 -0.669,3.3500002 -0.0113,1.159975 0.209351,2.310511 0.649,3.384 0.427455,1.029124 1.028907,1.97697 1.778,2.802 0.752,0.83 1.616,1.538 2.592,2.124 0.973044,0.584507 2.019112,1.03777 3.111,1.348 z m -1.743,-3.633 c -0.669243,-0.193725 -1.312081,-0.469131 -1.914,-0.82 -0.616387,-0.356469 -1.180134,-0.797033 -1.675,-1.309 -0.496258,-0.511403 -0.898118,-1.106577 -1.187,-1.758 -0.297456,-0.680143 -0.44709,-1.4157 -0.439,-2.158 -0.0013,-0.983092 0.196353,-1.95628 0.581,-2.8610002 0.387333,-0.918 0.921,-1.764333 1.601,-2.539 0.687487,-0.780653 1.479662,-1.462448 2.354,-2.026 0.888667,-0.576667 1.834333,-1.024333 2.8370004,-1.343 0.98476,-0.31638 2.012666,-0.477971 3.047,-0.479 0.86907,-0.0031 1.729061,0.176767 2.524,0.528 0.791721,0.347565 1.51195,0.839247 2.124,1.45 0.618667,0.615333 1.105333,1.316667 1.46,2.104 0.354667,0.788 0.532,1.618333 0.532,2.491 0,0.8913332 -0.174,1.7716672 -0.522,2.6410002 -0.359335,0.887501 -0.853484,1.714231 -1.465,2.451 -0.635388,0.771922 -1.372813,1.453839 -2.192,2.027 -0.833333,0.586 -1.74,1.046333 -2.72,1.381 -0.979091,0.335197 -2.007123,0.505184 -3.042,0.503 -0.6447814,-0.0048 -1.2856994,-0.100051 -1.9040004,-0.283 z m 6.1960004,-7.07 c 0.21391,0.11604 0.454752,0.173318 0.698,0.166 0.246061,0.0096 0.490298,-0.04592 0.708,-0.161 0.16161,-0.07179 0.269098,-0.228385 0.278,-0.405 -0.01537,-0.172742 -0.126787,-0.322073 -0.288,-0.386 -0.192,-0.107333 -0.421333,-0.161 -0.688,-0.161 -0.273333,0 -0.507667,0.057 -0.703,0.171 -0.195333,0.113333 -0.293,0.245 -0.293,0.395 0.01846,0.170365 0.12913,0.316769 0.288,0.381 z m -0.142,2.471 c -0.13,0.104 -0.299333,0.125 -0.508,0.063 -0.208,-0.062 -0.396667,-0.193667 -0.566,-0.395 -0.162667,-0.195333 -0.258667,-0.403667 -0.288,-0.625 -0.0052,-0.03845 -0.0079,-0.0772 -0.008,-0.116 -0.0095,-0.142575 0.04955,-0.281139 0.159,-0.373 0.08228,-0.06963 0.187248,-0.106636 0.295,-0.104 0.07405,0.0011 0.147523,0.01325 0.218,0.036 0.211333,0.06533 0.398667,0.198667 0.562,0.4 0.168667,0.195333 0.266333,0.402 0.293,0.62 0.0041,0.03485 0.0061,0.06991 0.006,0.105 0.0083,0.147819 -0.05181,0.291248 -0.163,0.389 z M 9.9483956,8.4653878 c -0.130667,0.104 -0.3,0.125 -0.508,0.063 -0.208667,-0.062 -0.397667,-0.193667 -0.567,-0.395 -0.162667,-0.195333 -0.258667,-0.403667 -0.288,-0.625 -0.0052,-0.03845 -0.0079,-0.0772 -0.008,-0.116 -0.0093,-0.142747 0.05017,-0.281341 0.16,-0.373 0.08202,-0.0694 0.18659,-0.10639 0.294,-0.104 0.07405,0.0011 0.147523,0.01325 0.218,0.036 0.212,0.06533 0.399333,0.198667 0.562,0.4 0.169333,0.195333 0.2670004,0.402333 0.2930004,0.621 0.004,0.03452 0.006,0.06924 0.006,0.104 0.0085,0.147654 -0.05118,0.291056 -0.1620004,0.389 z m 5.3300004,0.806 c 0.159436,-0.0016 0.317776,-0.02656 0.47,-0.074 0.234005,-0.05941 0.446057,-0.1847 0.611,-0.361 0.152667,-0.169333 0.206333,-0.325667 0.161,-0.469 -0.0634,-0.164534 -0.215282,-0.278345 -0.391,-0.293 -0.08057,-0.01686 -0.162685,-0.02524 -0.245,-0.025 -0.155506,0.0017 -0.309886,0.0266 -0.458,0.074 -0.233788,0.06201 -0.445264,0.188899 -0.61,0.366 -0.105826,0.103915 -0.169869,0.243031 -0.18,0.391 -2e-6,0.02791 0.003,0.05574 0.009,0.083 0.0569,0.163578 0.20796,0.275786 0.381,0.283 0.08294,0.01684 0.16737,0.02522 0.252,0.025 z m -4.212,5.4930002 c 0.08633,0.161236 0.251283,0.264998 0.434,0.273 0.169333,0 0.314333,-0.091 0.435,-0.273 0.125278,-0.198666 0.188309,-0.430246 0.181,-0.665 0.0071,-0.234416 -0.05591,-0.465619 -0.181,-0.664 -0.08651,-0.161534 -0.25192,-0.265345 -0.435,-0.273 -0.169333,0 -0.314,0.091 -0.434,0.273 -0.125085,0.198381 -0.188108,0.429584 -0.181,0.664 -0.0073,0.234754 0.05572,0.466334 0.181,0.665 z m 0.786,-7.1200002 c -0.143333,-0.03867 -0.242667,-0.167 -0.298,-0.385 -0.02568,-0.102678 -0.03845,-0.20816 -0.038,-0.314 0.0011,-0.136329 0.01886,-0.272011 0.053,-0.404 0.05709,-0.234557 0.174661,-0.450051 0.341,-0.625 0.09106,-0.108598 0.22176,-0.176287 0.363,-0.188 0.02941,8.2e-5 0.05867,0.0041 0.087,0.012 0.166421,0.05834 0.285384,0.205979 0.307,0.381 0.02436,0.09609 0.03646,0.194873 0.036,0.294 -0.0011,0.141725 -0.02131,0.282654 -0.06,0.419 -0.05201,0.236032 -0.1667,0.453672 -0.332,0.63 -0.09223,0.111483 -0.225748,0.180769 -0.37,0.192 -0.03006,-1.62e-4 -0.05997,-0.0042 -0.089,-0.012 z M 7.2133956,10.183388 c 0.209534,0.114264 0.445399,0.171506 0.684,0.166 0.273333,0 0.507667,-0.05667 0.703,-0.17 0.195333,-0.114 0.293,-0.2460002 0.293,-0.3960002 -0.01537,-0.172742 -0.126787,-0.322073 -0.288,-0.386 -0.214944,-0.112816 -0.455358,-0.168269 -0.698,-0.161 -0.240147,-0.0051 -0.477518,0.05211 -0.689,0.166 -0.167432,0.06622 -0.28289,0.221584 -0.298,0.401 0.01972,0.171168 0.132474,0.3174002 0.293,0.3800002 z m -0.155,2.479 c 0.20946,-0.004 0.415548,-0.05348 0.604,-0.145 0.222694,-0.09681 0.415128,-0.25193 0.557,-0.449 0.07825,-0.102913 0.123883,-0.22691 0.131,-0.356 -2.13e-4,-0.04507 -0.0083,-0.08974 -0.024,-0.132 -0.07869,-0.153412 -0.243502,-0.242767 -0.415,-0.225 -0.02364,-0.0013 -0.04732,-0.002 -0.071,-0.002 -0.220485,0.004 -0.437604,0.05481 -0.637,0.149 -0.222321,0.08974 -0.414969,0.240117 -0.556,0.434 -0.0775,0.09829 -0.122883,0.218037 -0.13,0.343 -4.08e-4,0.05206 0.01051,0.103582 0.032,0.151 0.06533,0.136667 0.207,0.213 0.425,0.229 0.02795,0.002 0.05597,0.003 0.084,0.003 z M 13.663396,7.3203878 c -0.0084,0.122586 0.04035,0.242166 0.132,0.324 0.06362,0.0553 0.145747,0.08458 0.23,0.082 0.08543,-0.0024 0.16975,-0.02001 0.249,-0.052 0.208,-0.078 0.396667,-0.221333 0.566,-0.43 0.169333,-0.208 0.275333,-0.419667 0.318,-0.635 0.01045,-0.05236 0.01581,-0.105608 0.016,-0.159 0.0066,-0.120222 -0.04072,-0.237128 -0.129,-0.319 -0.06511,-0.05624 -0.149015,-0.08588 -0.235,-0.083 -0.0832,0.0024 -0.165386,0.01893 -0.243,0.049 -0.224486,0.08634 -0.420719,0.233081 -0.567,0.424 -0.162909,0.182453 -0.274081,0.405141 -0.322,0.645 -0.0095,0.0508 -0.01447,0.102329 -0.015,0.154 z M 8.2363956,14.393388 c -0.0068,0.121338 0.04087,0.239384 0.13,0.322 0.06351,0.0547 0.145221,0.0836 0.229,0.081 0.08543,-0.0024 0.16975,-0.02001 0.249,-0.052 0.222021,-0.08833 0.417125,-0.233102 0.566,-0.42 0.163113,-0.18206 0.274625,-0.404393 0.323,-0.644 0.0092,-0.05116 0.01386,-0.103024 0.014,-0.155 0.0086,-0.122421 -0.03972,-0.241973 -0.131,-0.324 -0.06377,-0.05494 -0.14588,-0.08385 -0.23,-0.081 -0.08543,0.0024 -0.16975,0.02001 -0.249,0.052 -0.208,0.078 -0.396667,0.221 -0.566,0.429 -0.169333,0.202 -0.275333,0.412 -0.318,0.63 -0.01083,0.05333 -0.01653,0.107581 -0.017,0.162 z"
     id="2"
     vector-effect="non-scaling-stroke"
     style="fill:#000000;stroke:#000000;stroke-width:0" />
</svg>
