<?xml version="1.0" encoding="UTF-8" standalone="no"?>
<!-- Created with Inkscape (http://www.inkscape.org/) -->

<svg
   width="24"
   height="24"
   viewBox="0 0 24 24"
   version="1.1"
   id="svg1"
   xmlns="http://www.w3.org/2000/svg"
   xmlns:svg="http://www.w3.org/2000/svg">
  <defs
     id="defs1" />
  <path
     d="M 3.40625,2.7226563 A 0.801,0.801 0 0 0 2.8691406,3.0019531 0.904,0.904 0 0 0 2.5859375,3.671875 1.623,1.623 0 0 0 2.7910156,4.3632812 4.864,4.864 0 0 0 3.5429688,5.375 17.742,17.742 0 0 0 4.6386719,6.4257812 13.311,13.311 0 0 0 2.2304688,9.4902344 6.836,6.836 0 0 0 1.3359375,12.830078 c 0,0.976667 0.2344583,1.978573 0.703125,3.003906 a 12.361,12.361 0 0 0 2.2070312,3.169922 20.446,20.446 0 0 0 1.1230469,-1.457031 c 0.2101279,-0.300424 0.3992425,-0.595726 0.578125,-0.888672 0.4457645,0.679911 0.9777554,1.300967 1.5996094,1.861328 a 10.679,10.679 0 0 0 3.324219,2.027344 11.102,11.102 0 0 0 4.048828,0.730469 13.454,13.454 0 0 0 3.349609,-0.449219 24.308,24.308 0 0 0 0.628906,0.04492 13.353,13.353 0 0 0 0.699219,0.01367 2.945,2.945 0 0 0 1.517578,-0.410157 c 0.466,-0.273333 0.840381,-0.632124 1.123047,-1.078125 a 2.638,2.638 0 0 0 0.425781,-1.441406 4.975,4.975 0 0 0 -0.101562,-0.9375 77.168,77.168 0 0 0 -0.214844,-1.064453 c -0.07533,-0.358 -0.126344,-0.677031 -0.152344,-0.957031 -0.195333,-2.441333 -0.7165,-4.436901 -1.5625,-5.9902345 A 7.874,7.874 0 0 0 17.009766,5.5644531 13.832,13.832 0 0 0 11.091797,4.4511719 c -0.573333,0 -1.126823,0.026125 -1.6601564,0.078125 -0.534,0.052 -1.0383385,0.1334739 -1.5136719,0.2441406 A 3.347,3.347 0 0 0 7.4296875,4.6523437 3.029,3.029 0 0 0 6.9121094,4.6074219 c -0.4493334,0 -0.8262396,0.1654739 -1.1289063,0.4941406 a 2.176,2.176 0 0 0 -0.1640625,0.25 L 3.953125,3.7480469 C 3.8357917,3.6373802 3.7648542,3.501224 3.7421875,3.3378906 3.7195208,3.175224 3.6928229,3.0315365 3.6601563,2.9082031 A 0.234,0.234 0 0 0 3.40625,2.7226563 Z m 7.685547,2.8027343 a 12.879,12.879 0 0 1 5.361328,0.9628906 6.661,6.661 0 0 1 3.189453,3.0703126 c 0.732,1.4066662 1.195292,3.2524422 1.390625,5.5371092 0.026,0.267333 0.07448,0.585792 0.146484,0.953125 0.07133,0.368 0.142271,0.725552 0.210938,1.074219 a 4.574,4.574 0 0 1 0.101562,0.833984 1.646,1.646 0 0 1 -0.267578,0.894531 c -0.179333,0.283334 -0.413791,0.514027 -0.703125,0.69336 A 1.727,1.727 0 0 1 19.597656,19.8125 10.655,10.655 0 0 1 18.845703,19.79492 33.353,33.353 0 0 1 18.191406,19.73437 16.165,16.165 0 0 1 16.457031,20.091792 10.87,10.87 0 0 1 14.919922,20.20312 10.135,10.135 0 0 1 11.292969,19.564448 C 10.169635,19.137786 9.1864167,18.54201 8.34375,17.777344 7.5004167,17.012677 6.8411406,16.121469 6.3691406,15.105469 c -0.472,-1.015334 -0.7070312,-2.10925 -0.7070312,-3.28125 V 11.658203 A 8.725,8.725 0 0 0 5.3984375,9.3632813 6.202,6.202 0 0 1 5.1347656,7.78125 c 0,-0.098 0.049724,-0.2018333 0.1503906,-0.3125 A 1.258,1.258 0 0 1 5.59375,7.2519531 l 0.2441406,0.2089844 a 0.457,0.457 0 0 0 0.3222656,0.1152344 c 0.1886667,0 0.3640105,-0.081474 0.5273438,-0.2441407 A 0.728,0.728 0 0 0 6.9316406,6.8144531 0.448,0.448 0 0 0 6.7851562,6.4726562 L 6.3691406,6.0722656 A 2.801,2.801 0 0 1 6.375,6.0488281 0.535,0.535 0 0 1 6.9121094,5.6816406 a 2.075,2.075 0 0 1 0.453125,0.054687 c 0.16,0.036 0.3447343,0.085724 0.5527343,0.1503906 A 9.409,9.409 0 0 1 9.4121094,5.609375 C 9.932776,5.5540417 10.492464,5.5253906 11.091797,5.5253906 Z m 0.742187,1.6035156 a 0.522,0.522 0 0 0 -0.371093,0.1347657 0.459,0.459 0 0 0 -0.146485,0.3515625 0.464,0.464 0 0 0 0.136719,0.3417968 0.511,0.511 0 0 0 0.351563,0.1464844 6.983,6.983 0 0 1 2.216796,0.4199219 c 0.638,0.2406667 1.22448,0.6019844 1.757813,1.0839844 a 0.474,0.474 0 0 0 0.332031,0.1367187 0.448,0.448 0 0 0 0.335938,-0.1367187 0.461,0.461 0 0 0 0.132812,-0.3320313 c 0,-0.2666666 -0.215198,-0.5514218 -0.644531,-0.8574218 -0.43,-0.3060001 -0.9505,-0.5696823 -1.5625,-0.7910157 -0.41,-0.15 -0.834104,-0.2719479 -1.273438,-0.3632812 A 6.228,6.228 0 0 0 11.833984,7.1289062 Z"
     style="baseline-shift:baseline;display:inline;overflow:visible;vector-effect:non-scaling-stroke;enable-background:accumulate;stop-color:#000000;stop-opacity:1"
     id="path37" />
</svg>
