<?xml version="1.0" encoding="UTF-8" standalone="no"?>
<!-- Created with Inkscape (http://www.inkscape.org/) -->

<svg
   width="24"
   height="24"
   viewBox="0 0 24 24"
   version="1.1"
   id="svg1"
   xmlns="http://www.w3.org/2000/svg"
   xmlns:svg="http://www.w3.org/2000/svg">
  <defs
     id="defs1" />
  <path
     d="m 16.335933,1.744421 c -0.866,0 -1.644557,0.230787 -2.337891,0.689454 C 13.470651,2.81172 13.00576,3.26603 12.61523,3.779578 12.57254,3.631332 12.52014,3.486175 12.449214,3.347937 12.29596,3.151002 12.053448,3.043134 11.804683,3.062781 c -0.3,0 -0.572979,0.06097 -0.820313,0.18164 -0.247333,0.120667 -0.371093,0.266214 -0.371093,0.435547 0.273333,0.266667 0.481666,0.530349 0.625,0.791016 C 11.37897,4.74463 11.469766,5.03971 11.511714,5.344031 10.263472,5.373211 9.0248138,5.565548 7.8261673,5.920203 6.6434793,6.267337 5.5371849,6.837905 4.5683547,7.59989 3.675228,8.309613 2.953522,9.210484 2.455073,10.236609 c -0.510451,1.081697 -0.767049,2.264999 -0.748046,3.460937 -0.03669,1.597637 0.408521,3.169211 1.27539,4.511719 0.8885868,1.315159 2.1324171,2.351267 3.5878909,2.984375 1.7123892,0.74075 3.5644281,1.100945 5.4296871,1.058594 2.083334,0 3.895547,-0.351927 5.435547,-1.058594 1.453494,-0.634147 2.696539,-1.670135 3.583985,-2.984375 0.866869,-1.342508 1.310132,-2.914082 1.273437,-4.511719 0.019,-1.195937 -0.235642,-2.37924 -0.746094,-3.460937 C 21.048422,9.210484 20.324763,8.309613 19.431636,7.59989 18.462806,6.837905 17.358465,6.267337 16.175777,5.920203 15.060248,5.590141 13.908472,5.40223 12.748042,5.353796 c -0.0061,-0.188375 -0.01467,-0.37617 -0.02344,-0.564453 0.738653,0.21419 1.410111,0.324219 2.009765,0.324219 0.905334,0 1.696381,-0.235031 2.373047,-0.707031 0.761064,-0.566851 1.390451,-1.292363 1.845703,-2.125 -0.983333,-0.358 -1.855854,-0.53711 -2.617187,-0.53711 z m -4.955078,4.572266 c 0.06832,-0.002 0.136692,7.83e-4 0.205078,0 0.0074,0.210156 0.0133,0.426455 0.01367,0.675781 -0.175596,0.05201 -0.343376,0.130898 -0.496094,0.236328 -0.26281,0.18334 -0.418059,0.484301 -0.412109,0.804688 0,0.338667 0.138109,0.611739 0.412109,0.816406 0.314569,0.2176 0.690185,0.324461 1.072266,0.306641 0.38208,0.01782 0.75965,-0.08904 1.074218,-0.306641 0.273334,-0.204667 0.410157,-0.477739 0.410157,-0.816406 0,-0.332 -0.136823,-0.599355 -0.410157,-0.804688 -0.147583,-0.101885 -0.309359,-0.178412 -0.478515,-0.230468 0.0018,-0.224654 -0.002,-0.449196 -0.0039,-0.673828 1.393564,0.05688 2.768479,0.354018 4.0625,0.884765 1.364,0.595333 2.419302,1.444828 3.167969,2.548828 0.748666,1.103333 1.123046,2.41612 1.123046,3.939453 0.03279,1.402946 -0.358653,2.784063 -1.123046,3.960938 C 19.213018,18.811938 18.114053,19.715985 16.830078,20.262 15.466078,20.874 13.855333,21.179968 12,21.179968 10.144666,21.179968 8.5358748,20.874 7.1718748,20.262 5.8078748,19.65 4.7506196,18.781817 4.0019529,17.658484 3.237556,16.481609 2.8461094,15.100491 2.8789024,13.697546 2.8424624,12.300395 3.2343798,10.926082 4.0019489,9.758093 4.7506156,8.654093 5.8078708,7.804598 7.1718708,7.209265 8.5113053,6.659891 9.9371158,6.357917 11.380855,6.316687 Z M 8.0605423,8.66239 C 7.9660243,8.66369 7.8728794,8.68936 7.791011,8.73661 5.9641887,9.794693 4.8065655,11.714975 4.7246047,13.824501 c -0.00179,0.01828 -0.00174,0.03632 -0.00195,0.05469 -0.0023,0.11987 0.039673,0.2364 0.1191406,0.326172 0.084489,0.101114 0.2120067,0.158732 0.3437501,0.15625 0.2782104,0.03065 0.5191106,-0.188878 0.515625,-0.46875 C 5.7688454,12.098356 6.755211,10.464338 8.3105454,9.566691 8.4500086,9.499691 8.5387461,9.360028 8.5429672,9.205363 8.5401672,9.113403 8.5165812,9.023556 8.4746082,8.941691 8.4246132,8.812218 8.3157407,8.715746 8.1816394,8.679972 8.1417824,8.669652 8.1017144,8.662702 8.0605457,8.662392 Z m 9.9257817,0.935547 c -0.188667,0 -0.348516,0.09635 -0.478516,0.291016 -0.122631,0.171253 -0.190233,0.375366 -0.195313,0.585937 -0.0047,0.130831 0.0407,0.258942 0.126954,0.357422 0.08467,0.094 0.195364,0.140625 0.332031,0.140625 0.195333,0 0.354515,-0.09635 0.478515,-0.291016 0.118159,-0.176582 0.18425,-0.385213 0.1875,-0.597656 0.05005,-0.271967 -0.176047,-0.514218 -0.451171,-0.486328 z m 0.986328,2.898438 c -0.202,0 -0.364282,0.100734 -0.488282,0.302734 -0.119901,0.189803 -0.184555,0.410266 -0.185546,0.634766 -0.0052,0.146636 0.03866,0.292071 0.123046,0.412109 0.08648,0.113164 0.223127,0.175504 0.365235,0.166016 0.210597,-0.0012 0.402868,-0.120728 0.498047,-0.308594 0.119098,-0.188744 0.183034,-0.407695 0.185547,-0.63086 0.0019,-0.142181 -0.03842,-0.282008 -0.117188,-0.40039 -0.08684,-0.121491 -0.232037,-0.188126 -0.380859,-0.175781 z m -1.47461,3.173828 c -0.22847,0.01391 -0.437693,0.1318 -0.570312,0.318359 -0.160942,0.167837 -0.256913,0.386951 -0.269531,0.619141 -0.0035,0.128022 0.04581,0.251589 0.136718,0.341797 0.09021,0.09091 0.213776,0.140206 0.341797,0.136718 0.231935,-0.01218 0.446768,-0.127605 0.582031,-0.316406 0.160577,-0.167985 0.255233,-0.389035 0.267579,-0.621094 0.0054,-0.129331 -0.04472,-0.254642 -0.136719,-0.345703 -0.09133,-0.088 -0.208229,-0.132812 -0.351563,-0.132812 z m -4.060547,2.763672 c -0.234961,0.015 -0.454847,0.122915 -0.611328,0.298828 -0.178924,0.146666 -0.289528,0.359123 -0.30664,0.589843 0,0.130001 0.04972,0.240699 0.15039,0.332032 0.09065,0.08713 0.210207,0.135885 0.335938,0.136718 0.208,0 0.413234,-0.100734 0.615234,-0.302734 0.202,-0.202 0.302735,-0.40037 0.302735,-0.595703 0.002,-0.125431 -0.05132,-0.244439 -0.146485,-0.326172 -0.09265,-0.08591 -0.213496,-0.133946 -0.339844,-0.132812 z"
     style="baseline-shift:baseline;display:inline;overflow:visible;vector-effect:non-scaling-stroke;enable-background:accumulate;stop-color:#000000;stop-opacity:1"
     id="path37" />
</svg>
