<?xml version="1.0" encoding="UTF-8" standalone="no"?>
<!-- Created with Inkscape (http://www.inkscape.org/) -->

<svg
   width="24"
   height="24"
   viewBox="0 0 24 24"
   version="1.1"
   id="svg1"
   xmlns="http://www.w3.org/2000/svg"
   xmlns:svg="http://www.w3.org/2000/svg">
  <defs
     id="defs1" />
  <path
     d="m 3.5808228,13.154002 v -0.879 h 1.162 v 0.879 a 5.971,5.971 0 0 0 0.957,3.296 7.063,7.063 0 0 0 2.52,2.368 7.487,7.487 0 0 0 1.396,0.616 q 0.7030002,0.224 1.4310002,0.385 a 29.341,29.341 0 0 1 1.47,0.366 29.145,29.145 0 0 1 1.416,0.411 21.372,21.372 0 0 0 1.479,0.41 5.975,5.975 0 0 0 1.382,0.176 q 1.397,0 2.275,-0.855 0.879,-0.854 0.879,-2.29 a 6.566,6.566 0 0 0 -0.127,-1.25 33.924,33.924 0 0 0 -0.273,-1.279 8.773,8.773 0 0 1 -0.195,-1.114 5.796,5.796 0 0 1 -0.031,-0.588 5.342,5.342 0 0 1 0.011,-0.344 q 0.029,-0.454 0.073,-0.918 a 10.093,10.093 0 0 0 0.044,-0.952 q 0,-1.8360003 -0.854,-3.3350003 -0.855,-1.499 -2.378,-2.432 a 7.741,7.741 0 0 0 -3.535,-1.079 v -0.977 q 1.718,0.108 3.169,0.723 1.45,0.615 2.519,1.655 1.07,1.04 1.66,2.422 a 7.608,7.608 0 0 1 0.591,3.0230003 q 0,0.791 -0.083,1.377 a 4.924,4.924 0 0 0 -0.045,0.689 6.973,6.973 0 0 0 0.03,0.639 11.151,11.151 0 0 0 0.342,1.792 q 0.254,0.932 0.254,1.948 a 4.393,4.393 0 0 1 -0.656,2.457 3.66,3.66 0 0 1 -0.516,0.624 4.189,4.189 0 0 1 -2.788,1.128 6.525,6.525 0 0 1 -0.366,0.01 7.726,7.726 0 0 1 -2.251,-0.352 49.326,49.326 0 0 0 -2.456,-0.674 47.735,47.735 0 0 0 -1.523,-0.356 13.312,13.312 0 0 1 -1.3820002,-0.376 8.501,8.501 0 0 1 -1.45,-0.654 q -2.012,-1.133 -3.082,-2.886 a 7.171,7.171 0 0 1 -1.069,-3.804 z m 2.168,-0.635 v -0.468 q -0.117,0.146 -0.268,0.288 -0.152,0.141 -0.318,0.249 -0.244,0.156 -0.571,0.244 a 3.551,3.551 0 0 0 -0.718,0.293 1.581,1.581 0 0 0 -0.41,0.288 q -0.147,0.151 -0.283,0.151 a 0.285,0.285 0 0 1 -0.259,-0.312 4.045,4.045 0 0 1 -0.044,-0.557 6.842,6.842 0 0 1 0.327,-1.982 11.717,11.717 0 0 1 0.903,-2.1440003 10.708,10.708 0 0 1 1.319,-1.928 4.441,4.441 0 0 1 -0.986,-1.465 4.39,4.39 0 0 1 -0.333,-1.68 6.541,6.541 0 0 1 0.04,-0.723 5.785,5.785 0 0 1 0.058,-0.439 q 0.02,-0.078 0.23,-0.22 a 2.903,2.903 0 0 1 0.468,-0.254 1.128,1.128 0 0 1 0.425,-0.112 0.457,0.457 0 0 1 0.274,0.049 0.21,0.21 0 0 1 0.058,0.127 q 0.02,0.195 0,0.512 -0.019,0.318 -0.019,0.66 a 3.019,3.019 0 0 0 0.322,1.386 q 0.322,0.635 0.918,0.762 a 8.917,8.917 0 0 1 2.495,-1.45 7.752,7.752 0 0 1 2.7590002,-0.503 q 0.527,0 1.084,0.059 0.556,0.058 0.932,0.175 0.376,0.117 0.376,0.303 0,0.186 -0.263,0.498 a 6.097,6.097 0 0 1 -0.65,0.65 8.273,8.273 0 0 1 -0.771,0.6 q -0.386,0.264 -0.64,0.371 0.215,0.069 0.611,0.322 a 9.093,9.093 0 0 1 0.805,0.586 q 0.41,0.332 0.698,0.63 a 0.852,0.852 0 0 1 0.288,0.449 0.173,0.173 0 0 1 0.001,0.005 0.645,0.645 0 0 1 -0.357,0.533 q -0.356,0.229 -0.903,0.361 a 4.817,4.817 0 0 1 -1.133,0.132 3.309,3.309 0 0 1 -0.254,-0.01 l -0.254,-0.02 q 0.176,0.44 0.308,1.1630003 0.132,0.722 0.132,1.298 a 4.605,4.605 0 0 1 -0.02,0.445 q -0.019,0.2 -0.117,0.278 a 1.267,1.267 0 0 1 -0.752,0.176 4.603,4.603 0 0 1 -0.962,-0.112 7.178,7.178 0 0 1 -0.9620002,-0.274 q -0.439,-0.161 -0.654,-0.308 a 4.366,4.366 0 0 1 -0.269,1.534 q -0.268,0.722 -0.62,1.172 a 1.125,1.125 0 0 1 -0.531,0.44 0.319,0.319 0 0 1 -0.074,0.009 q -0.118,0 -0.347,-0.22 a 4.473,4.473 0 0 1 -0.483,-0.561 3.926,3.926 0 0 1 -0.43,-0.733 1.774,1.774 0 0 1 -0.176,-0.723 z m 8.2280002,-0.986 a 0.781,0.781 0 0 0 0.571,0.352 0.421,0.421 0 0 0 0.322,-0.137 0.496,0.496 0 0 0 0.127,-0.352 1.111,1.111 0 0 0 -0.288,-0.703 0.781,0.781 0 0 0 -0.571,-0.351 0.421,0.421 0 0 0 -0.322,0.136 0.496,0.496 0 0 0 -0.127,0.352 1.111,1.111 0 0 0 0.288,0.703 z m 0.815,7.783 a 1.096,1.096 0 0 0 0.606,0.147 1.096,1.096 0 0 0 0.605,-0.147 q 0.225,-0.146 0.225,-0.39 a 0.444,0.444 0 0 0 -0.225,-0.396 1.126,1.126 0 0 0 -0.605,-0.141 1.126,1.126 0 0 0 -0.606,0.141 q -0.225,0.142 -0.225,0.386 0,0.254 0.225,0.4 z m 0.83,-11.4160003 a 0.875,0.875 0 0 0 0.615,0.332 0.436,0.436 0 0 0 0.328,-0.136 0.461,0.461 0 0 0 0.131,-0.332 q 0,-0.332 -0.312,-0.664 a 0.875,0.875 0 0 0 -0.615,-0.333 0.441,0.441 0 0 0 -0.323,0.137 0.452,0.452 0 0 0 -0.136,0.332 q 0,0.332 0.312,0.664 z m -5.395,10.0340003 a 1.004,1.004 0 0 0 0.669,0.308 0.468,0.468 0 0 0 0.336,-0.137 0.434,0.434 0 0 0 0.142,-0.322 0.85,0.85 0 0 0 -0.337,-0.6 1.004,1.004 0 0 0 -0.669,-0.308 0.478,0.478 0 0 0 -0.337,0.132 0.429,0.429 0 0 0 -0.1410002,0.327 0.85,0.85 0 0 0 0.3370002,0.6 z m -2.9300002,-1.269 a 1.004,1.004 0 0 0 0.669,0.308 0.468,0.468 0 0 0 0.337,-0.137 0.434,0.434 0 0 0 0.141,-0.322 0.85,0.85 0 0 0 -0.337,-0.601 1.004,1.004 0 0 0 -0.668,-0.308 0.478,0.478 0 0 0 -0.337,0.132 0.429,0.429 0 0 0 -0.142,0.327 0.85,0.85 0 0 0 0.337,0.601 z m 3.4180002,-2.246 a 1.004,1.004 0 0 0 0.669,0.307 0.468,0.468 0 0 0 0.337,-0.136 0.434,0.434 0 0 0 0.141,-0.323 0.85,0.85 0 0 0 -0.337,-0.6 1.004,1.004 0 0 0 -0.668,-0.308 0.478,0.478 0 0 0 -0.337,0.132 0.429,0.429 0 0 0 -0.142,0.327 0.85,0.85 0 0 0 0.337,0.601 z m 6.865,2.241 a 0.633,0.633 0 0 0 0.503,0.332 q 0.195,0 0.327,-0.156 0.132,-0.156 0.132,-0.391 0,-0.39 -0.229,-0.722 a 0.633,0.633 0 0 0 -0.503,-0.332 q -0.196,0 -0.328,0.151 a 0.58,0.58 0 0 0 -0.131,0.395 q 0,0.391 0.229,0.723 z m -2.622,-0.615 q -0.293,0 -0.61,-0.342 a 0.999,0.999 0 0 1 -0.318,-0.664 0.436,0.436 0 0 1 0.137,-0.327 q 0.137,-0.132 0.322,-0.132 0.293,0 0.611,0.342 a 0.999,0.999 0 0 1 0.317,0.664 0.449,0.449 0 0 1 -0.132,0.322 0.436,0.436 0 0 1 -0.327,0.137 z m 2.774,-3.633 q -0.264,0 -0.45,-0.293 a 1.268,1.268 0 0 1 -0.185,-0.693 0.726,0.726 0 0 1 0.136,-0.459 0.435,0.435 0 0 1 0.362,-0.176 q 0.263,0 0.449,0.293 a 1.268,1.268 0 0 1 0.186,0.693 0.726,0.726 0 0 1 -0.137,0.459 0.435,0.435 0 0 1 -0.361,0.176 z"
     id="0-9"
     style="fill:#000000;stroke:#000000;stroke-width:0" />
</svg>
