<?xml version="1.0" encoding="UTF-8" standalone="no"?>
<!-- Created with Inkscape (http://www.inkscape.org/) -->

<svg
   width="24"
   height="24"
   viewBox="0 0 24 24"
   version="1.1"
   id="svg1"
   xmlns="http://www.w3.org/2000/svg"
   xmlns:svg="http://www.w3.org/2000/svg">
  <defs
     id="defs1" />
  <path
     d="m 10.652473,6.0638274 -0.147,0.918 q -0.5370001,-0.185 -0.8880001,-0.249 a 5.675,5.675 0 0 0 -0.871,-0.062 14.358,14.358 0 0 0 -0.194,-0.001 5.955,5.955 0 0 0 -2.49,0.527 6.524,6.524 0 0 0 -2.046,1.455 6.861,6.861 0 0 0 -1.382,2.1339996 6.649,6.649 0 0 0 -0.498,2.564 6.501,6.501 0 0 0 0.757,3.095 q 0.757,1.426 2.105,2.49 a 10.131,10.131 0 0 0 3.139,1.656 12.263,12.263 0 0 0 3.8620001,0.591 12.263,12.263 0 0 0 3.863,-0.591 10.131,10.131 0 0 0 3.139,-1.656 7.849,7.849 0 0 0 2.105,-2.49 6.501,6.501 0 0 0 0.757,-3.095 6.649,6.649 0 0 0 -0.498,-2.564 6.861,6.861 0 0 0 -1.382,-2.1339996 6.524,6.524 0 0 0 -2.046,-1.455 5.955,5.955 0 0 0 -2.49,-0.527 q -0.479,0 -0.967,0.078 a 6.647,6.647 0 0 0 -0.977,0.234 l -0.156,-0.918 q 0.547,-0.283 1.133,-0.376 0.586,-0.092 1.172,-0.092 1.435,0 2.759,0.625 a 7.995,7.995 0 0 1 2.368,1.713 q 1.045,1.089 1.650002,2.4809996 a 7.277,7.277 0 0 1 0.606,2.935 7.15,7.15 0 0 1 -0.86,3.422 q -0.859002,1.607 -2.373002,2.842 a 11.565,11.565 0 0 1 -3.515,1.939 q -2.002,0.703 -4.288,0.703 -2.2850001,0 -4.2870001,-0.703 -2.002,-0.703 -3.515,-1.939 -1.514,-1.235 -2.373,-2.842 -0.86,-1.606 -0.86,-3.422 0,-1.543 0.606,-2.935 0.605,-1.3919996 1.65,-2.4809996 1.045,-1.088 2.368,-1.713 a 6.386,6.386 0 0 1 2.759,-0.625 q 0.586,0 1.172,0.092 a 3.714,3.714 0 0 1 1.1330001,0.376 z m -2.5390001,-1.923 0.4,0.361 q 0.244,0.215 0.625,0.234 a 1.573,1.573 0 0 1 0.83,0.352 4.868,4.868 0 0 1 0.7910001,0.708 q 0.323,0.366 0.86,0.366 a 0.906,0.906 0 0 0 0.673,-0.308 12.481,12.481 0 0 0 0.621,-0.708 q 0.327,-0.4 0.795,-0.708 a 2.112,2.112 0 0 1 1.182,-0.307 2.798,2.798 0 0 1 0.562,0.063 0.318,0.318 0 0 1 0.307,0.171 0.207,0.207 0 0 1 -0.136,0.117 1.54,1.54 0 0 0 -0.326,0.284 7.403,7.403 0 0 0 -0.163,0.175 l -0.693,0.762 q -0.44,0.488 -0.654,0.967 0.566,0 0.981,0.254 a 34.833,34.833 0 0 1 0.806,0.508 q 0.39,0.253 0.888,0.253 a 1.401,1.401 0 0 0 0.186,-0.014 1.52,1.52 0 0 1 0.205,-0.015 0.179,0.179 0 0 1 0.234,0.127 0.582,0.582 0 0 1 -0.254,0.464 q -0.253,0.2 -0.605,0.312 a 2.108,2.108 0 0 1 -0.635,0.113 3.557,3.557 0 0 1 -0.893,-0.113 q -0.435,-0.112 -0.728,-0.112 a 0.342,0.342 0 0 0 -0.332,0.147 4.47,4.47 0 0 1 0.244,0.659 q 0.117,0.395 0.147,0.679 a 1.071,1.071 0 0 0 0.176,0.4629996 q 0.156,0.249 0.341,0.396 0.225,0.176 0.225,0.332 a 0.287,0.287 0 0 1 -0.361,0.175 1.74,1.74 0 0 1 -0.049,10e-4 1.305,1.305 0 0 1 -0.152,-0.01 7.326,7.326 0 0 0 -0.19,-0.02 4.035,4.035 0 0 1 -1.314,-0.385 3.052,3.052 0 0 1 -0.81,-0.601 q -0.308,-0.3319996 -0.537,-0.6349996 a 2.846,2.846 0 0 0 -0.479,-0.503 1.005,1.005 0 0 0 -0.649,-0.2 4.871,4.871 0 0 0 -0.6150001,0.044 6.276,6.276 0 0 1 -0.791,0.044 5.355,5.355 0 0 1 -1.036,-0.117 q -0.585,-0.117 -1.02,-0.371 -0.435,-0.254 -0.435,-0.654 a 0.218,0.218 0 0 1 0.284,-0.137 5.841,5.841 0 0 0 0.937,-0.059 2.258,2.258 0 0 0 0.571,-0.166 q 0.23,-0.107 0.469,-0.249 a 5.783,5.783 0 0 1 0.62,-0.307 1.98,1.98 0 0 1 -0.888,-0.606 3.552,3.552 0 0 1 -0.66,-1.108 q -0.249,-0.65 -0.249,-1.353 0,-0.127 0.127,-0.127 0.088,0 0.244,0.108 0.157,0.107 0.323,0.254 z m -2.276,12.4209996 q -0.195,0 -0.405,-0.17 -0.21,-0.171 -0.395,-0.474 a 5.733,5.733 0 0 1 -0.557,-1.343 q -0.234,-0.806 -0.234,-1.577 0,-0.547 0.078,-1.006 a 3.743,3.743 0 0 1 0.205,-0.771 q 0.215,-0.518 0.547,-0.518 a 0.499,0.499 0 0 1 0.307,0.117 q 0.152,0.117 0.152,0.371 a 2.41,2.41 0 0 1 -0.088,0.465 12.37,12.37 0 0 1 -0.069,0.258 q -0.156,0.566 -0.156,1.094 0,0.703 0.235,1.401 a 5.272,5.272 0 0 0 0.703,1.362 q 0.097,0.137 0.097,0.303 a 0.546,0.546 0 0 1 -0.112,0.342 0.367,0.367 0 0 1 -0.308,0.146 z M 12.068473,6.4448274 h -1.162 a 14.502,14.502 0 0 1 0.146,-2.109 9.416,9.416 0 0 1 0.537,-2.012 l 0.088,-0.224 a 0.561,0.561 0 0 1 0.586,-0.352 q 0.342,0 0.469,0.249 0.127,0.249 0.039,0.503 l -0.098,0.273 a 9.89,9.89 0 0 0 -0.468,1.802 12.11,12.11 0 0 0 -0.137,1.87 z"
     id="7-4"
     style="fill:#000000;stroke:#000000;stroke-width:0" />
</svg>
