<?xml version="1.0" encoding="UTF-8" standalone="no"?>
<!-- Created with Inkscape (http://www.inkscape.org/) -->

<svg
   width="24"
   height="24"
   viewBox="0 0 24 24"
   version="1.1"
   id="svg1"
   xmlns="http://www.w3.org/2000/svg"
   xmlns:svg="http://www.w3.org/2000/svg">
  <defs
     id="defs1" />
  <path
     d="m 4.793509,2.7225979 17.422,7.7730001 q 0.214,1.26 0.214,2.49 0,1.778 -0.542,3.286 a 6.629,6.629 0 0 1 -1.743,2.632 7.67,7.67 0 0 1 -2.455,1.496 11.127,11.127 0 0 1 -0.709,0.252 13.12,13.12 0 0 1 -2.641,0.522 21.336,21.336 0 0 1 -2.163,0.103 12.121,12.121 0 0 1 -3.972,-0.621 10.186,10.186 0 0 1 -0.369,-0.136 9.755,9.755 0 0 1 -3.35,-2.133 q -1.401,-1.377 -2.158,-3.247 -0.757,-1.871 -0.757,-4.087 a 12.942,12.942 0 0 1 0.43,-3.3300001 q 0.429,-1.622 1.157,-2.93 0.727,-1.309 1.636,-2.07 z m 1.24,1.23 0.742,0.635 a 7.915,7.915 0 0 0 -1.45,2.519 8.939,8.939 0 0 0 -0.493,2.9980001 7.941,7.941 0 0 0 0.375,2.545 5.061,5.061 0 0 0 1.046,1.811 4.817,4.817 0 0 0 3.098,1.507 7.731,7.731 0 0 0 0.94,0.055 8.824,8.824 0 0 0 4.892,-1.513 12.516,12.516 0 0 0 3.049,-2.867 17.088,17.088 0 0 0 1.033,-1.499 l 0.83,0.508 q -1.884,3.067 -4.438,4.707 a 9.775,9.775 0 0 1 -5.366,1.641 7.21,7.21 0 0 1 -2.853,-0.53 5.59,5.59 0 0 1 -0.609,-0.305 5.516,5.516 0 0 1 -2.207,-2.378 7.685,7.685 0 0 1 -0.74,-2.901 11.044,11.044 0 0 1 -0.027,-0.781 10.027,10.027 0 0 1 0.542,-3.2910001 q 0.542,-1.572 1.636,-2.861 z m 14.775,7.0900001 -15.791,-7.0410001 a 8.042,8.042 0 0 0 -1.108,1.802 10.592,10.592 0 0 0 -0.713,2.197 q -0.249,1.177 -0.249,2.4460001 0,2.344 0.845,4.043 a 6.067,6.067 0 0 0 2.431,2.617 7.151,7.151 0 0 0 3.193,0.9 10.092,10.092 0 0 0 0.611,0.018 10.391,10.391 0 0 0 3.994,-0.801 q 1.944,-0.8 3.672,-2.358 a 16.816,16.816 0 0 0 2.852,-3.405 20.874,20.874 0 0 0 0.263,-0.418 z m -1.064,2.754 -0.772,0.752 a 14.948,14.948 0 0 1 -0.043,1.257 5.586,5.586 0 0 1 -0.049,0.408 1.768,1.768 0 0 1 -0.362,0.884 3.301,3.301 0 0 1 -0.805,0.634 5.143,5.143 0 0 0 -1.225,0.962 2.854,2.854 0 0 0 -0.133,0.161 3.494,3.494 0 0 0 -0.615,1.455 2.729,2.729 0 0 0 0.474,-0.083 7.919,7.919 0 0 0 0.473,-0.141 1.668,1.668 0 0 1 0.43,-0.874 q 0.351,-0.386 1.016,-0.728 0.498,-0.254 0.815,-0.566 0.317,-0.313 0.488,-0.811 a 5.493,5.493 0 0 0 0.237,-1.269 9.986,9.986 0 0 0 0.003,-0.025 20.814,20.814 0 0 0 0.064,-1.432 38.135,38.135 0 0 0 0.004,-0.584 z m -4.072,3.32 -1.006,0.41 a 1.534,1.534 0 0 1 -0.347,0.366 4.843,4.843 0 0 1 -0.513,0.337 5.491,5.491 0 0 0 -1.182,0.876 2.82,2.82 0 0 0 -0.18,0.203 3.201,3.201 0 0 0 -0.61,1.275 q 0.234,0.029 0.478,0.029 a 2.821,2.821 0 0 0 0.235,-0.01 l 0.234,-0.019 a 1.968,1.968 0 0 1 0.932,-1.301 4.423,4.423 0 0 1 0.513,-0.301 2.726,2.726 0 0 0 0.933,-0.722 2.724,2.724 0 0 0 0.513,-1.143 z m 5.644,-5.41 -0.547,0.81 q 0.293,0.684 0.386,1.558 a 18.384,18.384 0 0 1 0.085,1.521 35.3,35.3 0 0 1 0.008,0.74 q 0.234,-0.518 0.405,-1.109 a 11.566,11.566 0 0 0 0.288,-1.284 5.607,5.607 0 0 0 -0.195,-1.04 9.439,9.439 0 0 0 -0.43,-1.196 z m -9.57,6.68 -1.944,0.078 a 3.14,3.14 0 0 0 -0.766,0.488 q -0.337,0.293 -0.64,0.732 0.225,0.137 0.523,0.23 0.298,0.093 0.551,0.093 a 2.47,2.47 0 0 1 0.352,-0.528 1.495,1.495 0 0 1 0.42,-0.327 2.199,2.199 0 0 1 0.547,-0.19 1.811,1.811 0 0 0 0.732,-0.279 q 0.215,-0.17 0.225,-0.297 z m -3.35,-6.739 a 0.473,0.473 0 0 0 0.352,0.166 0.833,0.833 0 0 0 0.669,-0.42 q 0.298,-0.42 0.298,-0.81 0,-0.322 -0.293,-0.322 a 1.288,1.288 0 0 0 -0.772,0.317 0.898,0.898 0 0 0 -0.41,0.708 0.518,0.518 0 0 0 0.156,0.361 z m 6.035,0.254 a 0.679,0.679 0 0 0 0.577,0.362 0.502,0.502 0 0 0 0.356,-0.157 q 0.161,-0.156 0.161,-0.4 a 1.016,1.016 0 0 0 -0.342,-0.708 0.98,0.98 0 0 0 -0.683,-0.347 0.355,0.355 0 0 0 -0.014,0 0.388,0.388 0 0 0 -0.289,0.498 q 0,0.391 0.234,0.752 z m -2.959,0.825 a 0.492,0.492 0 0 0 0.411,0.23 q 0.244,0 0.415,-0.234 0.17,-0.235 0.17,-0.586 0,-0.362 -0.18,-0.65 a 0.485,0.485 0 0 0 -0.347,-0.288 0.595,0.595 0 0 0 -0.41,0.317 q -0.225,0.318 -0.225,0.679 a 0.884,0.884 0 0 0 0.166,0.532 z m -4.619,-3.6230001 a 0.46,0.46 0 0 0 0.381,0.171 q 0.225,0 0.479,-0.161 a 1.723,1.723 0 0 0 0.434,-0.39 0.708,0.708 0 0 0 0.181,-0.425 0.219,0.219 0 0 0 -0.046,-0.139 0.717,0.717 0 0 0 -0.56,-0.154 1.274,1.274 0 0 0 -0.683,0.2 q -0.322,0.2 -0.322,0.542 a 0.564,0.564 0 0 0 0.136,0.356 z"
     id="1-3"
     style="fill:#000000;stroke:#000000;stroke-width:0" />
</svg>
